<svg width="25" height="25" viewBox="0 0 25 25" fill="none" xmlns="http://www.w3.org/2000/svg">
<path d="M15.7496 6.5C15.7496 8.2397 14.3393 9.65 12.5996 9.65C10.8599 9.65 9.44961 8.2397 9.44961 6.5C9.44961 4.7603 10.8599 3.35 12.5996 3.35C14.3393 3.35 15.7496 4.7603 15.7496 6.5Z" stroke="#0055FF" stroke-width="1.7"/>
<path d="M19.7496 18C19.7496 19.3163 19.7039 20.0007 19.0629 20.5228C18.7096 20.8105 18.1076 21.1003 17.056 21.3132C16.0081 21.5253 14.5704 21.65 12.5996 21.65C10.6288 21.65 9.19112 21.5253 8.14325 21.3132C7.09163 21.1003 6.48963 20.8105 6.13636 20.5228C5.49529 20.0007 5.44961 19.3163 5.44961 18C5.44961 17.201 6.03446 16.3044 7.35959 15.559C8.65803 14.8286 10.509 14.35 12.5996 14.35C14.6902 14.35 16.5412 14.8286 17.8396 15.559C19.1648 16.3044 19.7496 17.201 19.7496 18Z" stroke="#0055FF" stroke-width="1.7"/>
</svg>
