<svg width="16" height="15" viewBox="0 0 16 15" fill="none" xmlns="http://www.w3.org/2000/svg">
<path d="M3.95052 0.975098C3.82964 0.975163 3.711 1.00769 3.60699 1.06927C3.50297 1.13086 3.41741 1.21924 3.35922 1.3252L0.884223 5.8252C0.818996 5.94389 0.790982 6.07946 0.803822 6.21428C0.816663 6.34911 0.869764 6.47695 0.956223 6.5812L7.48122 14.4562C7.54456 14.5326 7.62398 14.5942 7.71382 14.6364C7.80366 14.6786 7.9017 14.7005 8.00097 14.7005C8.10024 14.7005 8.19829 14.6786 8.28813 14.6364C8.37797 14.5942 8.45739 14.5326 8.52072 14.4562L15.0457 6.5812C15.1322 6.47695 15.1853 6.34911 15.1981 6.21428C15.211 6.07946 15.183 5.94389 15.1177 5.8252L12.6427 1.3252C12.5845 1.21911 12.4988 1.13064 12.3946 1.06904C12.2904 1.00745 12.1716 0.975002 12.0505 0.975098H3.95052ZM2.74092 5.2501L4.34922 2.3251H5.69922L4.67502 5.2501H2.74092ZM4.53012 6.6001L6.26622 10.8733L2.72472 6.6001H4.53012ZM7.99062 11.533L5.98722 6.6001H9.93462L7.99062 11.533ZM6.10602 5.2501L7.12932 2.3251H8.87982L9.95712 5.2501H6.10602ZM11.3962 5.2501L10.3189 2.3251H11.6509L13.2601 5.2501H11.3962ZM11.3854 6.6001H13.2754L9.67092 10.9507L11.3854 6.6001Z" fill="#04075A"/>
</svg>
