<svg width="16" height="20" viewBox="0 0 16 20" fill="none" xmlns="http://www.w3.org/2000/svg">
<path d="M15.6 1.99951V2V18C15.6 18.4432 15.447 18.8128 15.1299 19.1304C14.8132 19.4476 14.4441 19.6005 14.0005 19.6H14H2C1.55683 19.6 1.18769 19.447 0.870842 19.1302C0.554038 18.8134 0.400591 18.4438 0.4 17.9997V2C0.4 1.55705 0.553164 1.18798 0.870602 0.871083C1.18837 0.553856 1.55781 0.400591 2.00025 0.4H14C14.443 0.4 14.8125 0.553186 15.1302 0.870843C15.4478 1.18848 15.6005 1.55753 15.6 1.99951ZM16 2V18C16 18.55 15.8043 19.021 15.413 19.413C15.0217 19.805 14.5507 20.0007 14 20H2C1.45 20 0.979333 19.8043 0.588 19.413C0.196666 19.0217 0.000666667 18.5507 0 18L16 2ZM8.6 6.5V7.3L9.24 6.82L11 5.5L12.76 6.82L13.4 7.3V6.5V5V2V1.6H13H9H8.6V2V6.5Z" stroke="#4A4A4A" stroke-width="0.8"/>
<path d="M7.78038 9.79803C7.70213 9.7312 7.60274 9.6945 7.5 9.6945C7.39726 9.6945 7.29787 9.7312 7.21962 9.79803L3.84462 12.6777C3.79683 12.7185 3.75846 12.7692 3.73216 12.8264C3.70586 12.8836 3.69226 12.9458 3.69231 13.0088V17.5114C3.69231 17.5575 3.71054 17.6016 3.743 17.6342C3.77546 17.6668 3.81948 17.6851 3.86538 17.6851H5.59615C5.64206 17.6851 5.68608 17.6668 5.71854 17.6342C5.751 17.6016 5.76923 17.5575 5.76923 17.5114V15.0792C5.76923 14.8489 5.8604 14.6279 6.0227 14.465C6.18499 14.3021 6.4051 14.2106 6.63462 14.2106H8.36677C8.48041 14.2106 8.59294 14.2331 8.69794 14.2767C8.80293 14.3204 8.89833 14.3844 8.97869 14.465C9.05905 14.5457 9.12279 14.6414 9.16628 14.7468C9.20977 14.8522 9.23215 14.9652 9.23215 15.0792V17.5114C9.23215 17.5575 9.25039 17.6016 9.28285 17.6342C9.31531 17.6668 9.35933 17.6851 9.40523 17.6851H11.1346C11.1805 17.6851 11.2245 17.6668 11.257 17.6342C11.2895 17.6016 11.3077 17.5575 11.3077 17.5114V13.0084C11.3077 12.9455 11.2941 12.8834 11.2678 12.8263C11.2415 12.7691 11.2031 12.7184 11.1554 12.6777L7.78038 9.79803ZM6.77135 9.26886C6.97475 9.0953 7.23303 9 7.5 9C7.76697 9 8.02525 9.0953 8.22865 9.26886L11.6037 12.1482C11.7279 12.2542 11.8277 12.386 11.8961 12.5345C11.9645 12.6831 12 12.8448 12 13.0084V17.5114C12 17.7418 11.9088 17.9627 11.7465 18.1256C11.5842 18.2885 11.3641 18.38 11.1346 18.38H9.40523C9.17572 18.38 8.9556 18.2885 8.79331 18.1256C8.63102 17.9627 8.53985 17.7418 8.53985 17.5114V15.0792C8.53985 15.0332 8.52161 14.989 8.48915 14.9564C8.4567 14.9238 8.41267 14.9055 8.36677 14.9055H6.63462C6.58871 14.9055 6.54469 14.9238 6.51223 14.9564C6.47977 14.989 6.46154 15.0332 6.46154 15.0792V17.5114C6.46154 17.7418 6.37036 17.9627 6.20807 18.1256C6.04578 18.2885 5.82567 18.38 5.59615 18.38H3.86538C3.63587 18.38 3.41576 18.2885 3.25347 18.1256C3.09117 17.9627 3 17.7418 3 17.5114V13.0084C3.00001 12.8448 3.03546 12.6831 3.1039 12.5345C3.17233 12.386 3.27212 12.2542 3.39635 12.1482L6.77135 9.26886Z" fill="#4A4A4A"/>
<path d="M7.78038 9.79803C7.70213 9.7312 7.60274 9.6945 7.5 9.6945C7.39726 9.6945 7.29787 9.7312 7.21962 9.79803L3.84462 12.6777C3.79683 12.7185 3.75846 12.7692 3.73216 12.8264C3.70586 12.8836 3.69226 12.9458 3.69231 13.0088V17.5114C3.69231 17.5575 3.71054 17.6016 3.743 17.6342C3.77546 17.6668 3.81948 17.6851 3.86538 17.6851H5.59615C5.64206 17.6851 5.68608 17.6668 5.71854 17.6342C5.751 17.6016 5.76923 17.5575 5.76923 17.5114V15.0792C5.76923 14.8489 5.8604 14.6279 6.0227 14.465C6.18499 14.3021 6.4051 14.2106 6.63462 14.2106H8.36677C8.48041 14.2106 8.59294 14.2331 8.69794 14.2767C8.80293 14.3204 8.89833 14.3844 8.97869 14.465C9.05905 14.5457 9.12279 14.6414 9.16628 14.7468C9.20977 14.8522 9.23215 14.9652 9.23215 15.0792V17.5114C9.23215 17.5575 9.25039 17.6016 9.28285 17.6342C9.31531 17.6668 9.35933 17.6851 9.40523 17.6851H11.1346C11.1805 17.6851 11.2245 17.6668 11.257 17.6342C11.2895 17.6016 11.3077 17.5575 11.3077 17.5114V13.0084C11.3077 12.9455 11.2941 12.8834 11.2678 12.8263C11.2415 12.7691 11.2031 12.7184 11.1554 12.6777L7.78038 9.79803ZM6.77135 9.26886C6.97475 9.0953 7.23303 9 7.5 9C7.76697 9 8.02525 9.0953 8.22865 9.26886L11.6037 12.1482C11.7279 12.2542 11.8277 12.386 11.8961 12.5345C11.9645 12.6831 12 12.8448 12 13.0084V17.5114C12 17.7418 11.9088 17.9627 11.7465 18.1256C11.5842 18.2885 11.3641 18.38 11.1346 18.38H9.40523C9.17572 18.38 8.9556 18.2885 8.79331 18.1256C8.63102 17.9627 8.53985 17.7418 8.53985 17.5114V15.0792C8.53985 15.0332 8.52161 14.989 8.48915 14.9564C8.4567 14.9238 8.41267 14.9055 8.36677 14.9055H6.63462C6.58871 14.9055 6.54469 14.9238 6.51223 14.9564C6.47977 14.989 6.46154 15.0332 6.46154 15.0792V17.5114C6.46154 17.7418 6.37036 17.9627 6.20807 18.1256C6.04578 18.2885 5.82567 18.38 5.59615 18.38H3.86538C3.63587 18.38 3.41576 18.2885 3.25347 18.1256C3.09117 17.9627 3 17.7418 3 17.5114V13.0084C3.00001 12.8448 3.03546 12.6831 3.1039 12.5345C3.17233 12.386 3.27212 12.2542 3.39635 12.1482L6.77135 9.26886Z" fill="#4A4A4A"/>
<path d="M7.78038 9.79803C7.70213 9.7312 7.60274 9.6945 7.5 9.6945C7.39726 9.6945 7.29787 9.7312 7.21962 9.79803L3.84462 12.6777C3.79683 12.7185 3.75846 12.7692 3.73216 12.8264C3.70586 12.8836 3.69226 12.9458 3.69231 13.0088V17.5114C3.69231 17.5575 3.71054 17.6016 3.743 17.6342C3.77546 17.6668 3.81948 17.6851 3.86538 17.6851H5.59615C5.64206 17.6851 5.68608 17.6668 5.71854 17.6342C5.751 17.6016 5.76923 17.5575 5.76923 17.5114V15.0792C5.76923 14.8489 5.8604 14.6279 6.0227 14.465C6.18499 14.3021 6.4051 14.2106 6.63462 14.2106H8.36677C8.48041 14.2106 8.59294 14.2331 8.69794 14.2767C8.80293 14.3204 8.89833 14.3844 8.97869 14.465C9.05905 14.5457 9.12279 14.6414 9.16628 14.7468C9.20977 14.8522 9.23215 14.9652 9.23215 15.0792V17.5114C9.23215 17.5575 9.25039 17.6016 9.28285 17.6342C9.31531 17.6668 9.35933 17.6851 9.40523 17.6851H11.1346C11.1805 17.6851 11.2245 17.6668 11.257 17.6342C11.2895 17.6016 11.3077 17.5575 11.3077 17.5114V13.0084C11.3077 12.9455 11.2941 12.8834 11.2678 12.8263C11.2415 12.7691 11.2031 12.7184 11.1554 12.6777L7.78038 9.79803ZM6.77135 9.26886C6.97475 9.0953 7.23303 9 7.5 9C7.76697 9 8.02525 9.0953 8.22865 9.26886L11.6037 12.1482C11.7279 12.2542 11.8277 12.386 11.8961 12.5345C11.9645 12.6831 12 12.8448 12 13.0084V17.5114C12 17.7418 11.9088 17.9627 11.7465 18.1256C11.5842 18.2885 11.3641 18.38 11.1346 18.38H9.40523C9.17572 18.38 8.9556 18.2885 8.79331 18.1256C8.63102 17.9627 8.53985 17.7418 8.53985 17.5114V15.0792C8.53985 15.0332 8.52161 14.989 8.48915 14.9564C8.4567 14.9238 8.41267 14.9055 8.36677 14.9055H6.63462C6.58871 14.9055 6.54469 14.9238 6.51223 14.9564C6.47977 14.989 6.46154 15.0332 6.46154 15.0792V17.5114C6.46154 17.7418 6.37036 17.9627 6.20807 18.1256C6.04578 18.2885 5.82567 18.38 5.59615 18.38H3.86538C3.63587 18.38 3.41576 18.2885 3.25347 18.1256C3.09117 17.9627 3 17.7418 3 17.5114V13.0084C3.00001 12.8448 3.03546 12.6831 3.1039 12.5345C3.17233 12.386 3.27212 12.2542 3.39635 12.1482L6.77135 9.26886Z" fill="#4A4A4A"/>
<path d="M7.78038 9.79803C7.70213 9.7312 7.60274 9.6945 7.5 9.6945C7.39726 9.6945 7.29787 9.7312 7.21962 9.79803L3.84462 12.6777C3.79683 12.7185 3.75846 12.7692 3.73216 12.8264C3.70586 12.8836 3.69226 12.9458 3.69231 13.0088V17.5114C3.69231 17.5575 3.71054 17.6016 3.743 17.6342C3.77546 17.6668 3.81948 17.6851 3.86538 17.6851H5.59615C5.64206 17.6851 5.68608 17.6668 5.71854 17.6342C5.751 17.6016 5.76923 17.5575 5.76923 17.5114V15.0792C5.76923 14.8489 5.8604 14.6279 6.0227 14.465C6.18499 14.3021 6.4051 14.2106 6.63462 14.2106H8.36677C8.48041 14.2106 8.59294 14.2331 8.69794 14.2767C8.80293 14.3204 8.89833 14.3844 8.97869 14.465C9.05905 14.5457 9.12279 14.6414 9.16628 14.7468C9.20977 14.8522 9.23215 14.9652 9.23215 15.0792V17.5114C9.23215 17.5575 9.25039 17.6016 9.28285 17.6342C9.31531 17.6668 9.35933 17.6851 9.40523 17.6851H11.1346C11.1805 17.6851 11.2245 17.6668 11.257 17.6342C11.2895 17.6016 11.3077 17.5575 11.3077 17.5114V13.0084C11.3077 12.9455 11.2941 12.8834 11.2678 12.8263C11.2415 12.7691 11.2031 12.7184 11.1554 12.6777L7.78038 9.79803ZM6.77135 9.26886C6.97475 9.0953 7.23303 9 7.5 9C7.76697 9 8.02525 9.0953 8.22865 9.26886L11.6037 12.1482C11.7279 12.2542 11.8277 12.386 11.8961 12.5345C11.9645 12.6831 12 12.8448 12 13.0084V17.5114C12 17.7418 11.9088 17.9627 11.7465 18.1256C11.5842 18.2885 11.3641 18.38 11.1346 18.38H9.40523C9.17572 18.38 8.9556 18.2885 8.79331 18.1256C8.63102 17.9627 8.53985 17.7418 8.53985 17.5114V15.0792C8.53985 15.0332 8.52161 14.989 8.48915 14.9564C8.4567 14.9238 8.41267 14.9055 8.36677 14.9055H6.63462C6.58871 14.9055 6.54469 14.9238 6.51223 14.9564C6.47977 14.989 6.46154 15.0332 6.46154 15.0792V17.5114C6.46154 17.7418 6.37036 17.9627 6.20807 18.1256C6.04578 18.2885 5.82567 18.38 5.59615 18.38H3.86538C3.63587 18.38 3.41576 18.2885 3.25347 18.1256C3.09117 17.9627 3 17.7418 3 17.5114V13.0084C3.00001 12.8448 3.03546 12.6831 3.1039 12.5345C3.17233 12.386 3.27212 12.2542 3.39635 12.1482L6.77135 9.26886Z" fill="#4A4A4A"/>
</svg>
