<svg width="102" height="110" viewBox="0 0 102 110" fill="none" xmlns="http://www.w3.org/2000/svg">
<rect width="102" height="110" rx="6" fill="#05C168" fill-opacity="0.2"/>
<path d="M34.0007 83.3337C32.4423 83.3337 31.1088 82.7793 30 81.6705C28.8912 80.5617 28.3359 79.2272 28.334 77.667V32.3337C28.334 30.7753 28.8893 29.4418 30 28.333C31.1107 27.2242 32.4442 26.6689 34.0007 26.667H68.0007C69.559 26.667 70.8935 27.2223 72.0042 28.333C73.1148 29.4437 73.6692 30.7772 73.6673 32.3337V77.667C73.6673 79.2253 73.1129 80.5598 72.0042 81.6705C70.8954 82.7812 69.5609 83.3355 68.0007 83.3337H34.0007ZM34.0007 77.667H68.0007V32.3337H62.334V52.167L55.2507 47.917L48.1673 52.167V32.3337H34.0007V77.667Z" fill="#08A95C"/>
</svg>
