<svg width="16" height="21" viewBox="0 0 16 21" fill="none" xmlns="http://www.w3.org/2000/svg">
<path d="M15.6 2.80078V2.80127V18.8013C15.6 19.2445 15.447 19.6141 15.1299 19.9317C14.8132 20.2489 14.4441 20.4018 14.0005 20.4013H14H2C1.55683 20.4013 1.18769 20.2483 0.870842 19.9314C0.554038 19.6146 0.400591 19.2451 0.4 18.801V2.80127C0.4 2.35832 0.553164 1.98925 0.870602 1.67235C1.18837 1.35513 1.55781 1.20186 2.00025 1.20127H14C14.443 1.20127 14.8125 1.35446 15.1302 1.67211C15.4478 1.98975 15.6005 2.3588 15.6 2.80078ZM16 2.80127V18.8013C16 19.3513 15.8043 19.8223 15.413 20.2143C15.0217 20.6063 14.5507 20.8019 14 20.8013H2C1.45 20.8013 0.979333 20.6056 0.588 20.2143C0.196666 19.8229 0.000666667 19.3519 0 18.8013L16 2.80127ZM8.6 7.30127V8.10127L9.24 7.62127L11 6.30127L12.76 7.62127L13.4 8.10127V7.30127V5.80127V2.80127V2.40127H13H9H8.6V2.80127V7.30127Z" stroke="white" stroke-width="0.8"/>
<path d="M7.78038 10.5993C7.70213 10.5325 7.60274 10.4958 7.5 10.4958C7.39726 10.4958 7.29787 10.5325 7.21962 10.5993L3.84462 13.4789C3.79683 13.5198 3.75846 13.5705 3.73216 13.6277C3.70586 13.6849 3.69226 13.7471 3.69231 13.8101V18.3126C3.69231 18.3587 3.71054 18.4029 3.743 18.4355C3.77546 18.4681 3.81948 18.4864 3.86538 18.4864H5.59615C5.64206 18.4864 5.68608 18.4681 5.71854 18.4355C5.751 18.4029 5.76923 18.3587 5.76923 18.3126V15.8805C5.76923 15.6501 5.8604 15.4292 6.0227 15.2663C6.18499 15.1034 6.4051 15.0119 6.63462 15.0119H8.36677C8.48041 15.0119 8.59294 15.0344 8.69794 15.078C8.80293 15.1217 8.89833 15.1856 8.97869 15.2663C9.05905 15.347 9.12279 15.4427 9.16628 15.5481C9.20977 15.6535 9.23215 15.7664 9.23215 15.8805V18.3126C9.23215 18.3587 9.25039 18.4029 9.28285 18.4355C9.31531 18.4681 9.35933 18.4864 9.40523 18.4864H11.1346C11.1805 18.4864 11.2245 18.4681 11.257 18.4355C11.2895 18.4029 11.3077 18.3587 11.3077 18.3126V13.8097C11.3077 13.7468 11.2941 13.6846 11.2678 13.6275C11.2415 13.5704 11.2031 13.5197 11.1554 13.4789L7.78038 10.5993ZM6.77135 10.0701C6.97475 9.89657 7.23303 9.80127 7.5 9.80127C7.76697 9.80127 8.02525 9.89657 8.22865 10.0701L11.6037 12.9494C11.7279 13.0554 11.8277 13.1873 11.8961 13.3358C11.9645 13.4844 12 13.6461 12 13.8097V18.3126C12 18.543 11.9088 18.764 11.7465 18.9269C11.5842 19.0898 11.3641 19.1813 11.1346 19.1813H9.40523C9.17572 19.1813 8.9556 19.0898 8.79331 18.9269C8.63102 18.764 8.53985 18.543 8.53985 18.3126V15.8805C8.53985 15.8344 8.52161 15.7902 8.48915 15.7577C8.4567 15.7251 8.41267 15.7068 8.36677 15.7068H6.63462C6.58871 15.7068 6.54469 15.7251 6.51223 15.7577C6.47977 15.7902 6.46154 15.8344 6.46154 15.8805V18.3126C6.46154 18.543 6.37036 18.764 6.20807 18.9269C6.04578 19.0898 5.82567 19.1813 5.59615 19.1813H3.86538C3.63587 19.1813 3.41576 19.0898 3.25347 18.9269C3.09117 18.764 3 18.543 3 18.3126V13.8097C3.00001 13.6461 3.03546 13.4844 3.1039 13.3358C3.17233 13.1873 3.27212 13.0554 3.39635 12.9494L6.77135 10.0701Z" fill="white"/>
<path d="M7.78038 10.5993C7.70213 10.5325 7.60274 10.4958 7.5 10.4958C7.39726 10.4958 7.29787 10.5325 7.21962 10.5993L3.84462 13.4789C3.79683 13.5198 3.75846 13.5705 3.73216 13.6277C3.70586 13.6849 3.69226 13.7471 3.69231 13.8101V18.3126C3.69231 18.3587 3.71054 18.4029 3.743 18.4355C3.77546 18.4681 3.81948 18.4864 3.86538 18.4864H5.59615C5.64206 18.4864 5.68608 18.4681 5.71854 18.4355C5.751 18.4029 5.76923 18.3587 5.76923 18.3126V15.8805C5.76923 15.6501 5.8604 15.4292 6.0227 15.2663C6.18499 15.1034 6.4051 15.0119 6.63462 15.0119H8.36677C8.48041 15.0119 8.59294 15.0344 8.69794 15.078C8.80293 15.1217 8.89833 15.1856 8.97869 15.2663C9.05905 15.347 9.12279 15.4427 9.16628 15.5481C9.20977 15.6535 9.23215 15.7664 9.23215 15.8805V18.3126C9.23215 18.3587 9.25039 18.4029 9.28285 18.4355C9.31531 18.4681 9.35933 18.4864 9.40523 18.4864H11.1346C11.1805 18.4864 11.2245 18.4681 11.257 18.4355C11.2895 18.4029 11.3077 18.3587 11.3077 18.3126V13.8097C11.3077 13.7468 11.2941 13.6846 11.2678 13.6275C11.2415 13.5704 11.2031 13.5197 11.1554 13.4789L7.78038 10.5993ZM6.77135 10.0701C6.97475 9.89657 7.23303 9.80127 7.5 9.80127C7.76697 9.80127 8.02525 9.89657 8.22865 10.0701L11.6037 12.9494C11.7279 13.0554 11.8277 13.1873 11.8961 13.3358C11.9645 13.4844 12 13.6461 12 13.8097V18.3126C12 18.543 11.9088 18.764 11.7465 18.9269C11.5842 19.0898 11.3641 19.1813 11.1346 19.1813H9.40523C9.17572 19.1813 8.9556 19.0898 8.79331 18.9269C8.63102 18.764 8.53985 18.543 8.53985 18.3126V15.8805C8.53985 15.8344 8.52161 15.7902 8.48915 15.7577C8.4567 15.7251 8.41267 15.7068 8.36677 15.7068H6.63462C6.58871 15.7068 6.54469 15.7251 6.51223 15.7577C6.47977 15.7902 6.46154 15.8344 6.46154 15.8805V18.3126C6.46154 18.543 6.37036 18.764 6.20807 18.9269C6.04578 19.0898 5.82567 19.1813 5.59615 19.1813H3.86538C3.63587 19.1813 3.41576 19.0898 3.25347 18.9269C3.09117 18.764 3 18.543 3 18.3126V13.8097C3.00001 13.6461 3.03546 13.4844 3.1039 13.3358C3.17233 13.1873 3.27212 13.0554 3.39635 12.9494L6.77135 10.0701Z" fill="white"/>
<path d="M7.78038 10.5993C7.70213 10.5325 7.60274 10.4958 7.5 10.4958C7.39726 10.4958 7.29787 10.5325 7.21962 10.5993L3.84462 13.4789C3.79683 13.5198 3.75846 13.5705 3.73216 13.6277C3.70586 13.6849 3.69226 13.7471 3.69231 13.8101V18.3126C3.69231 18.3587 3.71054 18.4029 3.743 18.4355C3.77546 18.4681 3.81948 18.4864 3.86538 18.4864H5.59615C5.64206 18.4864 5.68608 18.4681 5.71854 18.4355C5.751 18.4029 5.76923 18.3587 5.76923 18.3126V15.8805C5.76923 15.6501 5.8604 15.4292 6.0227 15.2663C6.18499 15.1034 6.4051 15.0119 6.63462 15.0119H8.36677C8.48041 15.0119 8.59294 15.0344 8.69794 15.078C8.80293 15.1217 8.89833 15.1856 8.97869 15.2663C9.05905 15.347 9.12279 15.4427 9.16628 15.5481C9.20977 15.6535 9.23215 15.7664 9.23215 15.8805V18.3126C9.23215 18.3587 9.25039 18.4029 9.28285 18.4355C9.31531 18.4681 9.35933 18.4864 9.40523 18.4864H11.1346C11.1805 18.4864 11.2245 18.4681 11.257 18.4355C11.2895 18.4029 11.3077 18.3587 11.3077 18.3126V13.8097C11.3077 13.7468 11.2941 13.6846 11.2678 13.6275C11.2415 13.5704 11.2031 13.5197 11.1554 13.4789L7.78038 10.5993ZM6.77135 10.0701C6.97475 9.89657 7.23303 9.80127 7.5 9.80127C7.76697 9.80127 8.02525 9.89657 8.22865 10.0701L11.6037 12.9494C11.7279 13.0554 11.8277 13.1873 11.8961 13.3358C11.9645 13.4844 12 13.6461 12 13.8097V18.3126C12 18.543 11.9088 18.764 11.7465 18.9269C11.5842 19.0898 11.3641 19.1813 11.1346 19.1813H9.40523C9.17572 19.1813 8.9556 19.0898 8.79331 18.9269C8.63102 18.764 8.53985 18.543 8.53985 18.3126V15.8805C8.53985 15.8344 8.52161 15.7902 8.48915 15.7577C8.4567 15.7251 8.41267 15.7068 8.36677 15.7068H6.63462C6.58871 15.7068 6.54469 15.7251 6.51223 15.7577C6.47977 15.7902 6.46154 15.8344 6.46154 15.8805V18.3126C6.46154 18.543 6.37036 18.764 6.20807 18.9269C6.04578 19.0898 5.82567 19.1813 5.59615 19.1813H3.86538C3.63587 19.1813 3.41576 19.0898 3.25347 18.9269C3.09117 18.764 3 18.543 3 18.3126V13.8097C3.00001 13.6461 3.03546 13.4844 3.1039 13.3358C3.17233 13.1873 3.27212 13.0554 3.39635 12.9494L6.77135 10.0701Z" fill="white"/>
<path d="M7.78038 10.5993C7.70213 10.5325 7.60274 10.4958 7.5 10.4958C7.39726 10.4958 7.29787 10.5325 7.21962 10.5993L3.84462 13.4789C3.79683 13.5198 3.75846 13.5705 3.73216 13.6277C3.70586 13.6849 3.69226 13.7471 3.69231 13.8101V18.3126C3.69231 18.3587 3.71054 18.4029 3.743 18.4355C3.77546 18.4681 3.81948 18.4864 3.86538 18.4864H5.59615C5.64206 18.4864 5.68608 18.4681 5.71854 18.4355C5.751 18.4029 5.76923 18.3587 5.76923 18.3126V15.8805C5.76923 15.6501 5.8604 15.4292 6.0227 15.2663C6.18499 15.1034 6.4051 15.0119 6.63462 15.0119H8.36677C8.48041 15.0119 8.59294 15.0344 8.69794 15.078C8.80293 15.1217 8.89833 15.1856 8.97869 15.2663C9.05905 15.347 9.12279 15.4427 9.16628 15.5481C9.20977 15.6535 9.23215 15.7664 9.23215 15.8805V18.3126C9.23215 18.3587 9.25039 18.4029 9.28285 18.4355C9.31531 18.4681 9.35933 18.4864 9.40523 18.4864H11.1346C11.1805 18.4864 11.2245 18.4681 11.257 18.4355C11.2895 18.4029 11.3077 18.3587 11.3077 18.3126V13.8097C11.3077 13.7468 11.2941 13.6846 11.2678 13.6275C11.2415 13.5704 11.2031 13.5197 11.1554 13.4789L7.78038 10.5993ZM6.77135 10.0701C6.97475 9.89657 7.23303 9.80127 7.5 9.80127C7.76697 9.80127 8.02525 9.89657 8.22865 10.0701L11.6037 12.9494C11.7279 13.0554 11.8277 13.1873 11.8961 13.3358C11.9645 13.4844 12 13.6461 12 13.8097V18.3126C12 18.543 11.9088 18.764 11.7465 18.9269C11.5842 19.0898 11.3641 19.1813 11.1346 19.1813H9.40523C9.17572 19.1813 8.9556 19.0898 8.79331 18.9269C8.63102 18.764 8.53985 18.543 8.53985 18.3126V15.8805C8.53985 15.8344 8.52161 15.7902 8.48915 15.7577C8.4567 15.7251 8.41267 15.7068 8.36677 15.7068H6.63462C6.58871 15.7068 6.54469 15.7251 6.51223 15.7577C6.47977 15.7902 6.46154 15.8344 6.46154 15.8805V18.3126C6.46154 18.543 6.37036 18.764 6.20807 18.9269C6.04578 19.0898 5.82567 19.1813 5.59615 19.1813H3.86538C3.63587 19.1813 3.41576 19.0898 3.25347 18.9269C3.09117 18.764 3 18.543 3 18.3126V13.8097C3.00001 13.6461 3.03546 13.4844 3.1039 13.3358C3.17233 13.1873 3.27212 13.0554 3.39635 12.9494L6.77135 10.0701Z" fill="white"/>
</svg>
