<svg width="24" height="22" viewBox="0 0 24 22" fill="none" xmlns="http://www.w3.org/2000/svg">
<path d="M17.5 1.50098C17.5 1.50098 16.8508 1.49894 16 1.50098C15.1492 1.50301 15.5983 1.50004 14.97 1.49978H3.36904C3.0568 1.49991 2.74765 1.56173 2.45938 1.68171C2.1711 1.80168 1.90937 1.97744 1.68923 2.19888C1.46909 2.42032 1.29488 2.68308 1.17661 2.97206C1.05833 3.26104 0.998329 3.57054 1.00004 3.88278V15.4708C0.998184 15.7825 1.05822 16.0916 1.17666 16.3799C1.29511 16.6683 1.46961 16.9303 1.69006 17.1508C1.9105 17.3712 2.17251 17.5457 2.46089 17.6642C2.74927 17.7826 3.05829 17.8426 3.37004 17.8408L4.5 17.8408" stroke="white" stroke-width="1.5" stroke-linecap="round" stroke-linejoin="round"/>
<path d="M14.4649 4.40993C12.4425 4.40993 14.089 4.40993 13 4.40993C12.5 4.40993 12.6282 4.4102 12 4.40993H7.11904C6.8068 4.41006 6.49765 4.47189 6.20938 4.59186C5.9211 4.71184 5.65937 4.88759 5.43923 5.10904C5.21909 5.33048 5.04488 5.59324 4.92661 5.88221C4.80833 6.17119 4.74833 6.48069 4.75004 6.79293V18.3809C4.74818 18.6927 4.80822 19.0017 4.92666 19.2901C5.04511 19.5785 5.21961 19.8405 5.44006 20.0609C5.6605 20.2814 5.92251 20.4559 6.21089 20.5743C6.49927 20.6928 6.80829 20.7528 7.12004 20.7509L21 20.7509V11.6194" stroke="white" stroke-width="1.5" stroke-linecap="round" stroke-linejoin="round"/>
<path d="M21.0909 8.4957L17.0059 4.4097M8.83594 15.3037V13.1387C8.83794 12.7817 8.97994 12.4387 9.23094 12.1857L18.7629 2.6537C18.8894 2.52581 19.04 2.42427 19.206 2.35498C19.372 2.28568 19.5501 2.25 19.7299 2.25C19.9098 2.25 20.0879 2.28568 20.2539 2.35498C20.4199 2.42427 20.5705 2.52581 20.6969 2.6537L22.8479 4.8047C22.9758 4.93118 23.0774 5.08177 23.1467 5.24776C23.216 5.41374 23.2516 5.59183 23.2516 5.7717C23.2516 5.95157 23.216 6.12965 23.1467 6.29564C23.0774 6.46163 22.9758 6.61222 22.8479 6.7387L13.3159 16.2707C13.0625 16.5224 12.7202 16.6643 12.3629 16.6657H10.1979C10.019 16.666 9.84178 16.6309 9.67641 16.5626C9.51105 16.4942 9.3608 16.3939 9.23427 16.2674C9.10775 16.1408 9.00743 15.9906 8.93908 15.8252C8.87073 15.6599 8.83568 15.4826 8.83594 15.3037Z" stroke="white" stroke-width="1.5" stroke-linecap="round" stroke-linejoin="round"/>
</svg>
