<svg width="24" height="25" viewBox="0 0 24 25" fill="none" xmlns="http://www.w3.org/2000/svg">
<g clip-path="url(#clip0_1109_3994)">
<path d="M17.5 2.50098C17.5 2.50098 16.8508 2.49894 16 2.50098C15.1492 2.50301 15.5983 2.50004 14.97 2.49978H3.36904C3.0568 2.49991 2.74765 2.56173 2.45938 2.68171C2.1711 2.80168 1.90937 2.97744 1.68923 3.19888C1.46909 3.42032 1.29488 3.68308 1.17661 3.97206C1.05833 4.26104 0.998329 4.57054 1.00004 4.88278V16.4708C0.998184 16.7825 1.05822 17.0916 1.17666 17.3799C1.29511 17.6683 1.46961 17.9303 1.69006 18.1508C1.9105 18.3712 2.17251 18.5457 2.46089 18.6642C2.74927 18.7826 3.05829 18.8426 3.37004 18.8408L4.5 18.8408" stroke="#03053D" stroke-width="1.5" stroke-linecap="round" stroke-linejoin="round"/>
<path d="M14.4649 5.40993C12.4425 5.40993 14.089 5.40993 13 5.40993C12.5 5.40993 12.6282 5.4102 12 5.40993H7.11904C6.8068 5.41006 6.49765 5.47189 6.20938 5.59186C5.9211 5.71184 5.65937 5.88759 5.43923 6.10904C5.21909 6.33048 5.04488 6.59324 4.92661 6.88221C4.80833 7.17119 4.74833 7.48069 4.75004 7.79293V19.3809C4.74818 19.6927 4.80822 20.0017 4.92666 20.2901C5.04511 20.5785 5.21961 20.8405 5.44006 21.0609C5.6605 21.2814 5.92251 21.4559 6.21089 21.5743C6.49927 21.6928 6.80829 21.7528 7.12004 21.7509L21 21.7509V12.6194" stroke="#03053D" stroke-width="1.5" stroke-linecap="round" stroke-linejoin="round"/>
<path d="M21.0909 9.4957L17.0059 5.4097M8.83594 16.3037V14.1387C8.83794 13.7817 8.97994 13.4387 9.23094 13.1857L18.7629 3.6537C18.8894 3.52581 19.04 3.42427 19.206 3.35498C19.372 3.28568 19.5501 3.25 19.7299 3.25C19.9098 3.25 20.0879 3.28568 20.2539 3.35498C20.4199 3.42427 20.5705 3.52581 20.6969 3.6537L22.8479 5.8047C22.9758 5.93118 23.0774 6.08177 23.1467 6.24776C23.216 6.41374 23.2516 6.59183 23.2516 6.7717C23.2516 6.95157 23.216 7.12965 23.1467 7.29564C23.0774 7.46163 22.9758 7.61222 22.8479 7.7387L13.3159 17.2707C13.0625 17.5224 12.7202 17.6643 12.3629 17.6657H10.1979C10.019 17.666 9.84178 17.6309 9.67641 17.5626C9.51105 17.4942 9.3608 17.3939 9.23427 17.2674C9.10775 17.1408 9.00743 16.9906 8.93908 16.8252C8.87073 16.6599 8.83568 16.4826 8.83594 16.3037Z" stroke="#03053D" stroke-width="1.5" stroke-linecap="round" stroke-linejoin="round"/>
</g>
<defs>
<clipPath id="clip0_1109_3994">
<rect width="24" height="24" fill="white" transform="translate(0 0.5)"/>
</clipPath>
</defs>
</svg>
