<svg width="37" height="37" viewBox="0 0 37 37" fill="none" xmlns="http://www.w3.org/2000/svg">
<g clip-path="url(#clip0_0_1259)">
<path d="M32.5 1.53846H28.75V0.269231C28.75 -0.0673902 28.6183 -0.390224 28.3839 -0.628251C28.1495 -0.866278 27.8315 -1 27.5 -1C27.1685 -1 26.8505 -0.866278 26.6161 -0.628251C26.3817 -0.390224 26.25 -0.0673902 26.25 0.269231V1.53846H13.75V0.269231C13.75 -0.0673902 13.6183 -0.390224 13.3839 -0.628251C13.1495 -0.866278 12.8315 -1 12.5 -1C12.1685 -1 11.8505 -0.866278 11.6161 -0.628251C11.3817 -0.390224 11.25 -0.0673902 11.25 0.269231V1.53846H7.5C6.83696 1.53846 6.20107 1.80591 5.73223 2.28196C5.26339 2.75801 5 3.40368 5 4.07692V29.4615C5 30.1348 5.26339 30.7804 5.73223 31.2565C6.20107 31.7326 6.83696 32 7.5 32H32.5C33.163 32 33.7989 31.7326 34.2678 31.2565C34.7366 30.7804 35 30.1348 35 29.4615V4.07692C35 3.40368 34.7366 2.75801 34.2678 2.28196C33.7989 1.80591 33.163 1.53846 32.5 1.53846ZM17.5 25.6538C17.5 25.9905 17.3683 26.3133 17.1339 26.5513C16.8995 26.7894 16.5815 26.9231 16.25 26.9231C15.9185 26.9231 15.6005 26.7894 15.3661 26.5513C15.1317 26.3133 15 25.9905 15 25.6538V17.553L14.3094 17.9052C14.0127 18.0558 13.6692 18.0806 13.3545 17.9741C13.0398 17.8676 12.7796 17.6385 12.6312 17.3372C12.4829 17.0359 12.4585 16.6872 12.5634 16.3676C12.6683 16.0481 12.8939 15.7839 13.1906 15.6333L15.6906 14.364C15.8813 14.2672 16.0931 14.2214 16.3061 14.2311C16.5191 14.2409 16.7261 14.3057 16.9074 14.4195C17.0887 14.5334 17.2383 14.6924 17.3421 14.8815C17.4458 15.0706 17.5002 15.2835 17.5 15.5V25.6538ZM26.25 24.3846C26.5815 24.3846 26.8995 24.5183 27.1339 24.7564C27.3683 24.9944 27.5 25.3172 27.5 25.6538C27.5 25.9905 27.3683 26.3133 27.1339 26.5513C26.8995 26.7894 26.5815 26.9231 26.25 26.9231H21.25C21.0179 26.9231 20.7903 26.8574 20.5928 26.7335C20.3954 26.6096 20.2358 26.4323 20.132 26.2215C20.0282 26.0106 19.9842 25.7746 20.005 25.5399C20.0259 25.3051 20.1107 25.0809 20.25 24.8923L24.7469 18.8048C24.8492 18.6665 24.9225 18.5085 24.9625 18.3404C25.0025 18.1723 25.0082 17.9977 24.9793 17.8272C24.9504 17.6568 24.8876 17.4942 24.7946 17.3493C24.7016 17.2045 24.5804 17.0804 24.4385 16.9848C24.2965 16.8892 24.1369 16.8241 23.9693 16.7934C23.8017 16.7627 23.6297 16.7671 23.4638 16.8063C23.2979 16.8456 23.1417 16.9188 23.0047 17.0216C22.8677 17.1243 22.7529 17.2544 22.6672 17.4038C22.5875 17.5528 22.4793 17.684 22.3489 17.7898C22.2185 17.8956 22.0685 17.9738 21.9078 18.0198C21.7472 18.0658 21.5791 18.0786 21.4135 18.0576C21.2478 18.0365 21.088 17.982 20.9435 17.8972C20.7989 17.8125 20.6726 17.6991 20.5719 17.564C20.4711 17.4288 20.3981 17.2745 20.3571 17.1103C20.316 16.946 20.3078 16.775 20.3329 16.6074C20.358 16.4399 20.4159 16.2791 20.5031 16.1346C20.916 15.4091 21.5531 14.8421 22.3156 14.5216C23.0782 14.2011 23.9235 14.1449 24.7207 14.3618C25.5178 14.5787 26.2222 15.0566 26.7247 15.7213C27.2272 16.386 27.4997 17.2005 27.5 18.0385C27.5027 18.8662 27.2369 19.6719 26.7438 20.331L23.75 24.3846H26.25ZM7.5 9.15385V4.07692H11.25V5.34615C11.25 5.68277 11.3817 6.00561 11.6161 6.24364C11.8505 6.48166 12.1685 6.61538 12.5 6.61538C12.8315 6.61538 13.1495 6.48166 13.3839 6.24364C13.6183 6.00561 13.75 5.68277 13.75 5.34615V4.07692H26.25V5.34615C26.25 5.68277 26.3817 6.00561 26.6161 6.24364C26.8505 6.48166 27.1685 6.61538 27.5 6.61538C27.8315 6.61538 28.1495 6.48166 28.3839 6.24364C28.6183 6.00561 28.75 5.68277 28.75 5.34615V4.07692H32.5V9.15385H7.5Z" fill="#E4E6F6"/>
</g>
<defs>
<clipPath id="clip0_0_1259">
<rect width="37" height="37" fill="white"/>
</clipPath>
</defs>
</svg>
