<svg width="81" height="81" viewBox="0 0 81 81" fill="none" xmlns="http://www.w3.org/2000/svg">
<g filter="url(#filter0_d_927_336)">
<path d="M40.5 73C60.6584 73 77 56.6584 77 36.5C77 16.3416 60.6584 0 40.5 0C20.3416 0 4 16.3416 4 36.5C4 56.6584 20.3416 73 40.5 73Z" fill="white"/>
</g>
<path d="M52.3465 20.1711H28.6535C26.1779 20.1711 24.1711 22.178 24.1711 24.6536V48.3466C24.1711 50.8222 26.1779 52.829 28.6535 52.829H52.3465C54.8221 52.829 56.829 50.8222 56.829 48.3466V24.6536C56.829 22.178 54.8221 20.1711 52.3465 20.1711Z" fill="#090E45"/>
<path fill-rule="evenodd" clip-rule="evenodd" d="M56.8749 40.7473V57.484L46.2632 52.6688L56.8749 40.7473Z" fill="#090E45"/>
<path d="M30.8947 45.1448C37.2982 48.56 43.7017 48.56 50.1052 45.1448" stroke="white" stroke-width="3" stroke-linecap="round" stroke-linejoin="round"/>
<defs>
<filter id="filter0_d_927_336" x="0" y="0" width="81" height="81" filterUnits="userSpaceOnUse" color-interpolation-filters="sRGB">
<feFlood flood-opacity="0" result="BackgroundImageFix"/>
<feColorMatrix in="SourceAlpha" type="matrix" values="0 0 0 0 0 0 0 0 0 0 0 0 0 0 0 0 0 0 127 0" result="hardAlpha"/>
<feOffset dy="4"/>
<feGaussianBlur stdDeviation="2"/>
<feColorMatrix type="matrix" values="0 0 0 0 0 0 0 0 0 0 0 0 0 0 0 0 0 0 0.25 0"/>
<feBlend mode="normal" in2="BackgroundImageFix" result="effect1_dropShadow_927_336"/>
<feBlend mode="normal" in="SourceGraphic" in2="effect1_dropShadow_927_336" result="shape"/>
</filter>
</defs>
</svg>
