<svg width="24" height="25" viewBox="0 0 24 25" fill="none" xmlns="http://www.w3.org/2000/svg">
<path fill-rule="evenodd" clip-rule="evenodd" d="M9 1.75H13.056C14.894 1.75 16.35 1.75 17.489 1.903C18.661 2.061 19.61 2.393 20.359 3.141C21.107 3.89 21.439 4.839 21.597 6.011C21.75 7.151 21.75 8.606 21.75 10.444V16.5C21.7502 17.3935 21.4313 18.2577 20.8509 18.9369C20.2705 19.6162 19.4666 20.0659 18.584 20.205C18.447 20.969 18.182 21.621 17.652 22.152C17.05 22.754 16.292 23.012 15.392 23.134C14.525 23.25 13.422 23.25 12.055 23.25H8.945C7.578 23.25 6.475 23.25 5.608 23.134C4.708 23.012 3.95 22.754 3.348 22.152C2.746 21.55 2.488 20.792 2.366 19.892C2.25 19.025 2.25 17.922 2.25 16.555V11.445C2.25 10.078 2.25 8.975 2.366 8.108C2.488 7.208 2.746 6.45 3.348 5.848C3.879 5.318 4.531 5.053 5.295 4.916C5.43414 4.03343 5.88384 3.22954 6.56309 2.6491C7.24235 2.06866 8.10653 1.74982 9 1.75ZM6.87 4.771C7.02206 4.327 7.30915 3.94166 7.69109 3.66893C8.07302 3.39619 8.53068 3.24971 9 3.25H13C14.907 3.25 16.261 3.252 17.29 3.39C18.295 3.525 18.875 3.779 19.298 4.202C19.721 4.625 19.975 5.205 20.11 6.21C20.248 7.239 20.25 8.593 20.25 10.5V16.5C20.2503 16.9693 20.1038 17.427 19.8311 17.8089C19.5583 18.1908 19.173 18.4779 18.729 18.63C18.75 18.02 18.75 17.33 18.75 16.555V11.445C18.75 10.078 18.75 8.975 18.633 8.108C18.513 7.208 18.253 6.45 17.652 5.848C17.05 5.246 16.292 4.988 15.392 4.867C14.525 4.75 13.422 4.75 12.055 4.75H8.945C8.17 4.75 7.48 4.75 6.87 4.771ZM16.592 6.91C16.315 6.633 15.927 6.453 15.192 6.354C14.438 6.253 13.436 6.251 12.001 6.251H9.001C7.566 6.251 6.565 6.253 5.809 6.354C5.075 6.453 4.687 6.634 4.41 6.91C4.133 7.187 3.953 7.575 3.854 8.31C3.753 9.064 3.751 10.066 3.751 11.501V16.501C3.751 17.936 3.753 18.937 3.854 19.693C3.953 20.427 4.134 20.815 4.41 21.092C4.687 21.369 5.075 21.549 5.81 21.648C6.565 21.749 7.566 21.751 9.001 21.751H12.001C13.436 21.751 14.438 21.749 15.193 21.648C15.927 21.549 16.315 21.368 16.592 21.092C16.869 20.815 17.049 20.427 17.148 19.692C17.249 18.937 17.251 17.936 17.251 16.501V11.501C17.251 10.066 17.249 9.064 17.148 8.309C17.049 7.575 16.868 7.187 16.592 6.91Z" fill="white"/>
</svg>
