<svg width="142" height="142" viewBox="0 0 142 142" fill="none" xmlns="http://www.w3.org/2000/svg">
<path d="M0 26.625C0 16.8348 7.95977 8.875 17.75 8.875H124.25C134.04 8.875 142 16.8348 142 26.625V115.375C142 125.165 134.04 133.125 124.25 133.125H17.75C7.95977 133.125 0 125.165 0 115.375V26.625ZM89.8039 56.1621C88.5559 54.3316 86.5035 53.25 84.3125 53.25C82.1215 53.25 80.0414 54.3316 78.8211 56.1621L54.6922 91.5512L47.3426 82.3711C46.0668 80.7902 44.1531 79.875 42.1562 79.875C40.1594 79.875 38.218 80.7902 36.9699 82.3711L19.2199 104.559C17.6113 106.555 17.3062 109.301 18.4156 111.603C19.525 113.905 21.8547 115.375 24.4062 115.375H117.594C120.062 115.375 122.336 114.016 123.473 111.825C124.611 109.634 124.472 106.999 123.085 104.975L89.8039 56.1621ZM31.0625 53.25C34.5932 53.25 37.9793 51.8474 40.4759 49.3509C42.9724 46.8543 44.375 43.4682 44.375 39.9375C44.375 36.4068 42.9724 33.0207 40.4759 30.5241C37.9793 28.0276 34.5932 26.625 31.0625 26.625C27.5318 26.625 24.1457 28.0276 21.6491 30.5241C19.1526 33.0207 17.75 36.4068 17.75 39.9375C17.75 43.4682 19.1526 46.8543 21.6491 49.3509C24.1457 51.8474 27.5318 53.25 31.0625 53.25Z" fill="#444670"/>
</svg>
