<svg width="74" height="66" viewBox="0 0 74 66" fill="none" xmlns="http://www.w3.org/2000/svg">
<path d="M0 9.875C0 4.77305 4.14805 0.625 9.25 0.625H64.75C69.852 0.625 74 4.77305 74 9.875V56.125C74 61.227 69.852 65.375 64.75 65.375H9.25C4.14805 65.375 0 61.227 0 56.125V9.875ZM46.7992 25.2676C46.1488 24.3137 45.0793 23.75 43.9375 23.75C42.7957 23.75 41.7117 24.3137 41.0758 25.2676L28.5016 43.7098L24.6715 38.9258C24.0066 38.102 23.0094 37.625 21.9688 37.625C20.9281 37.625 19.9164 38.102 19.266 38.9258L10.016 50.4883C9.17774 51.5289 9.01875 52.9598 9.59688 54.1594C10.175 55.359 11.3891 56.125 12.7188 56.125H61.2812C62.5676 56.125 63.7527 55.4168 64.3453 54.275C64.9379 53.1332 64.8656 51.7602 64.143 50.7051L46.7992 25.2676ZM16.1875 23.75C18.0274 23.75 19.792 23.0191 21.0931 21.7181C22.3941 20.417 23.125 18.6524 23.125 16.8125C23.125 14.9726 22.3941 13.208 21.0931 11.9069C19.792 10.6059 18.0274 9.875 16.1875 9.875C14.3476 9.875 12.583 10.6059 11.2819 11.9069C9.98091 13.208 9.25 14.9726 9.25 16.8125C9.25 18.6524 9.98091 20.417 11.2819 21.7181C12.583 23.0191 14.3476 23.75 16.1875 23.75Z" fill="#444670"/>
</svg>
