<svg width="20" height="20" viewBox="0 0 20 20" fill="none" xmlns="http://www.w3.org/2000/svg">
<path d="M9.72146 12.6964L10 12.8078L10.2785 12.6964L19.25 9.10777V16C19.25 16.3315 19.1183 16.6495 18.8839 16.8839C18.6495 17.1183 18.3315 17.25 18 17.25H2C1.66848 17.25 1.35054 17.1183 1.11612 16.8839C0.881696 16.6495 0.75 16.3315 0.75 16V9.10777L9.72146 12.6964Z" stroke="#E4E6F6" stroke-width="1.5"/>
<path d="M1.11612 4.11612C1.35054 3.8817 1.66848 3.75 2 3.75H18C18.3315 3.75 18.6495 3.8817 18.8839 4.11612C19.1183 4.35054 19.25 4.66848 19.25 5V6.49223L10 10.1922L0.75 6.49223V5C0.75 4.66848 0.881696 4.35054 1.11612 4.11612Z" stroke="#E4E6F6" stroke-width="1.5"/>
</svg>
