<svg width="24" height="24" viewBox="0 0 24 24" fill="none" xmlns="http://www.w3.org/2000/svg">
<path d="M22.7284 11.8994L22.7282 11.8988C22.7088 11.8551 21.945 10.1543 20.2396 8.44887C17.9793 6.18862 15.1348 5 12 5C8.86516 5 6.02067 6.18862 3.76042 8.44887C2.90935 9.29993 2.2909 10.1516 1.88237 10.7981C1.67833 11.1211 1.52736 11.3917 1.42653 11.584C1.33266 11.763 1.28522 11.8683 1.27846 11.8833C1.27779 11.8848 1.27752 11.8854 1.27765 11.8851L1.27471 11.8923L1.27156 11.8994C1.25734 11.9313 1.25 11.9659 1.25 12.0009C1.25 12.0359 1.25734 12.0705 1.27156 12.1025L1.27182 12.1031C1.29114 12.1467 2.05491 13.8465 3.76035 15.552C6.02062 17.8114 8.86515 19 12 19C15.1348 19 17.9793 17.8114 20.2396 15.5521C20.2396 15.552 20.2396 15.552 20.2396 15.552M22.7284 11.8994L23.1853 11.6962C23.2279 11.7922 23.25 11.896 23.25 12.0009C23.25 12.1059 23.2279 12.2097 23.1853 12.3056C23.1525 12.3797 22.3584 14.1403 20.5931 15.9056L20.2396 15.552M22.7284 11.8994C22.7426 11.9314 22.75 11.966 22.75 12.0009C22.75 12.0359 22.7426 12.0705 22.7284 12.1025L22.7282 12.1031C22.7088 12.1467 21.9451 13.8465 20.2396 15.552M22.7284 11.8994L20.2396 15.552M9.63882 15.5337C10.3377 16.0007 11.1594 16.25 12 16.25C13.1272 16.25 14.2082 15.8022 15.0052 15.0052C15.8022 14.2082 16.25 13.1272 16.25 12C16.25 11.1594 16.0007 10.3377 15.5337 9.63883C15.0667 8.93992 14.403 8.39518 13.6264 8.07351C12.8498 7.75184 11.9953 7.66768 11.1709 7.83166C10.3464 7.99565 9.58916 8.40042 8.99479 8.9948C8.40041 9.58917 7.99564 10.3464 7.83165 11.1709C7.66767 11.9953 7.75183 12.8498 8.0735 13.6264C8.39518 14.403 8.93991 15.0668 9.63882 15.5337Z" stroke="white"/>
</svg>
