<svg width="24" height="25" viewBox="0 0 24 25" fill="none" xmlns="http://www.w3.org/2000/svg">
<path d="M12.0046 7.85684C11.4092 7.85644 10.8189 7.95803 10.2592 8.15639L8.81077 6.7134C9.81365 6.4518 10.8808 6.30085 12.0043 6.30085C15.4473 6.30085 18.3413 7.65945 20.3785 9.23964C21.3969 10.0296 22.1917 10.8679 22.7273 11.6046C22.9952 11.9732 23.1932 12.3095 23.3224 12.5953C23.4551 12.889 23.5 13.0962 23.5 13.2164C23.5 13.3583 23.4384 13.6116 23.2591 13.9708C23.0852 14.3191 22.8203 14.728 22.4654 15.1693C21.8175 15.9749 20.8888 16.8647 19.7222 17.6661L17.0637 14.9643C17.2751 14.4186 17.3814 13.8245 17.3814 13.2164C17.3814 10.215 14.9814 7.85703 12.0046 7.85684ZM12.0046 7.85684L12.0043 8.35684M12.0046 7.85684C12.0045 7.85684 12.0044 7.85684 12.0043 7.85684V8.35684M12.0043 8.35684C14.7086 8.35684 16.8814 10.4946 16.8814 13.2164C16.8814 13.8794 16.7417 14.5163 16.4709 15.0747L10.1374 8.74085C10.7271 8.48708 11.3623 8.35641 12.0043 8.35684ZM19.1898 20.4273L19.189 20.4265L4.58462 5.84007L4.57874 5.8342L4.57266 5.82852C4.56356 5.82002 4.53929 5.78948 4.53929 5.71385C4.53929 5.6943 4.55018 5.6519 4.59472 5.60814C4.63939 5.56424 4.6858 5.55085 4.71086 5.55085V5.55089L4.71775 5.5508C4.74055 5.55048 4.76318 5.55468 4.78434 5.56314C4.80497 5.5714 4.8238 5.58354 4.83983 5.59892C4.84024 5.59932 4.84066 5.59972 4.84107 5.60012L19.4322 20.1818C19.4322 20.1819 19.4323 20.182 19.4324 20.1821C19.4695 20.2194 19.4869 20.2668 19.4869 20.3088C19.4869 20.3362 19.4732 20.381 19.4298 20.424C19.3858 20.4677 19.3401 20.4808 19.3153 20.4808C19.3008 20.4808 19.2775 20.4774 19.251 20.4666C19.225 20.456 19.2041 20.4416 19.1898 20.4273ZM6.61857 13.2164L6.61857 13.2181C6.6285 16.1419 9.00344 18.5749 12.003 18.5756C12.7062 18.5791 13.4012 18.4381 14.0453 18.1627L15.5269 19.6446C14.4382 19.9519 13.2568 20.132 12.0043 20.132C8.60171 20.132 5.70517 18.772 3.6544 17.1892C2.62945 16.3982 1.82591 15.5591 1.28335 14.8221C1.01191 14.4534 0.811026 14.1174 0.679907 13.8322C0.544951 13.5386 0.5 13.3335 0.5 13.2164C0.5 13.0719 0.566027 12.8088 0.758323 12.4342C0.944461 12.0716 1.22743 11.646 1.60477 11.1889C2.29787 10.3493 3.28926 9.42787 4.52632 8.61915L7.03393 11.1409C6.76456 11.7802 6.61857 12.482 6.61857 13.2164ZM13.9484 11.8532L13.1926 11.0975C13.3451 11.1903 13.4864 11.3011 13.6134 11.4277C13.742 11.5559 13.8544 11.6989 13.9484 11.8532ZM10.8822 14.9908C10.5196 14.7849 10.2178 14.4836 10.013 14.1215L10.8822 14.9908Z" stroke="white"/>
</svg>
