<svg width="24" height="28" viewBox="0 0 24 28" fill="none" xmlns="http://www.w3.org/2000/svg">
<path d="M9 5.89675C8.73478 5.89675 8.48043 6.01874 8.29289 6.23589C8.10536 6.45304 8 6.74755 8 7.05465C8 7.36174 8.10536 7.65625 8.29289 7.8734C8.48043 8.09055 8.73478 8.21254 9 8.21254C9.26522 8.21254 9.51957 8.09055 9.70711 7.8734C9.89464 7.65625 10 7.36174 10 7.05465C10 6.74755 9.89464 6.45304 9.70711 6.23589C9.51957 6.01874 9.26522 5.89675 9 5.89675ZM6.17 5.89675C6.3766 5.21877 6.75974 4.63167 7.2666 4.2164C7.77346 3.80113 8.37909 3.57812 9 3.57812C9.62091 3.57812 10.2265 3.80113 10.7334 4.2164C11.2403 4.63167 11.6234 5.21877 11.83 5.89675H19C19.2652 5.89675 19.5196 6.01874 19.7071 6.23589C19.8946 6.45304 20 6.74755 20 7.05465C20 7.36174 19.8946 7.65625 19.7071 7.8734C19.5196 8.09055 19.2652 8.21254 19 8.21254H11.83C11.6234 8.89053 11.2403 9.47762 10.7334 9.89289C10.2265 10.3082 9.62091 10.5312 9 10.5312C8.37909 10.5312 7.77346 10.3082 7.2666 9.89289C6.75974 9.47762 6.3766 8.89053 6.17 8.21254H5C4.73478 8.21254 4.48043 8.09055 4.29289 7.8734C4.10536 7.65625 4 7.36174 4 7.05465C4 6.74755 4.10536 6.45304 4.29289 6.23589C4.48043 6.01874 4.73478 5.89675 5 5.89675H6.17ZM15 12.8441C14.7348 12.8441 14.4804 12.9661 14.2929 13.1833C14.1054 13.4004 14 13.6949 14 14.002C14 14.3091 14.1054 14.6036 14.2929 14.8208C14.4804 15.0379 14.7348 15.1599 15 15.1599C15.2652 15.1599 15.5196 15.0379 15.7071 14.8208C15.8946 14.6036 16 14.3091 16 14.002C16 13.6949 15.8946 13.4004 15.7071 13.1833C15.5196 12.9661 15.2652 12.8441 15 12.8441ZM12.17 12.8441C12.3766 12.1661 12.7597 11.579 13.2666 11.1638C13.7735 10.7485 14.3791 10.5255 15 10.5255C15.6209 10.5255 16.2265 10.7485 16.7334 11.1638C17.2403 11.579 17.6234 12.1661 17.83 12.8441H19C19.2652 12.8441 19.5196 12.9661 19.7071 13.1833C19.8946 13.4004 20 13.6949 20 14.002C20 14.3091 19.8946 14.6036 19.7071 14.8208C19.5196 15.0379 19.2652 15.1599 19 15.1599H17.83C17.6234 15.8379 17.2403 16.425 16.7334 16.8403C16.2265 17.2555 15.6209 17.4785 15 17.4785C14.3791 17.4785 13.7735 17.2555 13.2666 16.8403C12.7597 16.425 12.3766 15.8379 12.17 15.1599H5C4.73478 15.1599 4.48043 15.0379 4.29289 14.8208C4.10536 14.6036 4 14.3091 4 14.002C4 13.6949 4.10536 13.4004 4.29289 13.1833C4.48043 12.9661 4.73478 12.8441 5 12.8441H12.17ZM9 19.7915C8.73478 19.7915 8.48043 19.9135 8.29289 20.1306C8.10536 20.3478 8 20.6423 8 20.9494C8 21.2565 8.10536 21.551 8.29289 21.7681C8.48043 21.9853 8.73478 22.1073 9 22.1073C9.26522 22.1073 9.51957 21.9853 9.70711 21.7681C9.89464 21.551 10 21.2565 10 20.9494C10 20.6423 9.89464 20.3478 9.70711 20.1306C9.51957 19.9135 9.26522 19.7915 9 19.7915ZM6.17 19.7915C6.3766 19.1135 6.75974 18.5264 7.2666 18.1111C7.77346 17.6959 8.37909 17.4729 9 17.4729C9.62091 17.4729 10.2265 17.6959 10.7334 18.1111C11.2403 18.5264 11.6234 19.1135 11.83 19.7915H19C19.2652 19.7915 19.5196 19.9135 19.7071 20.1306C19.8946 20.3478 20 20.6423 20 20.9494C20 21.2565 19.8946 21.551 19.7071 21.7681C19.5196 21.9853 19.2652 22.1073 19 22.1073H11.83C11.6234 22.7853 11.2403 23.3723 10.7334 23.7876C10.2265 24.2029 9.62091 24.4259 9 24.4259C8.37909 24.4259 7.77346 24.2029 7.2666 23.7876C6.75974 23.3723 6.3766 22.7853 6.17 22.1073H5C4.73478 22.1073 4.48043 21.9853 4.29289 21.7681C4.10536 21.551 4 21.2565 4 20.9494C4 20.6423 4.10536 20.3478 4.29289 20.1306C4.48043 19.9135 4.73478 19.7915 5 19.7915H6.17Z" fill="white"/>
</svg>
