<svg width="18" height="18" viewBox="0 0 18 18" fill="none" xmlns="http://www.w3.org/2000/svg">
<path d="M1.09961 14.8172V16.7596C1.09961 16.9033 1.15668 17.041 1.25826 17.1426C1.35984 17.2442 1.49762 17.3013 1.64128 17.3013H3.58369C3.72707 17.3012 3.8646 17.2444 3.96611 17.1431L13.1744 7.93477L10.4661 5.22644L1.25778 14.4348C1.15652 14.5363 1.09964 14.6738 1.09961 14.8172ZM12.5721 3.12044L15.2804 5.82877L16.5837 4.52552C16.7868 4.32236 16.9009 4.04686 16.9009 3.7596C16.9009 3.47234 16.7868 3.19684 16.5837 2.99369L15.4072 1.81718C15.204 1.61409 14.9285 1.5 14.6413 1.5C14.354 1.5 14.0785 1.61409 13.8754 1.81718L12.5721 3.12044Z" stroke="#4A4A4A" stroke-width="1.1"/>
</svg>
