<svg width="14" height="17" viewBox="0 0 14 17" fill="none" xmlns="http://www.w3.org/2000/svg">
<path d="M2.61551 16.0864C2.16751 16.0864 1.78618 15.9291 1.47151 15.6144C1.15685 15.2997 0.999512 14.9187 0.999512 14.4714V2.08641H-0.000488281V1.08641H3.99951V0.316406H9.99951V1.08641H13.9995V2.08641H12.9995V14.4714C12.9995 14.9314 12.8455 15.3157 12.5375 15.6244C12.2295 15.9331 11.8448 16.0871 11.3835 16.0864H2.61551ZM11.9995 2.08641H1.99951V14.4714C1.99951 14.6507 2.05718 14.7981 2.17251 14.9134C2.28784 15.0287 2.43551 15.0864 2.61551 15.0864H11.3845C11.5378 15.0864 11.6788 15.0224 11.8075 14.8944C11.9362 14.7664 12.0002 14.6251 11.9995 14.4704V2.08641ZM4.80751 13.0864H5.80751V4.08641H4.80751V13.0864ZM8.19151 13.0864H9.19151V4.08641H8.19151V13.0864Z" fill="#4A4A4A"/>
</svg>
