<svg width="20" height="20" viewBox="0 0 20 20" fill="none" xmlns="http://www.w3.org/2000/svg">
<path d="M10.0002 19.6762C4.66485 19.6762 0.324707 15.3362 0.324707 10.0012C0.324707 4.6661 4.66485 0.326172 10.0002 0.326172C15.3355 0.326172 19.6757 4.6661 19.6757 10.0012C19.6757 15.3362 15.3355 19.6762 10.0002 19.6762ZM10.0002 2C6 1.5 2 6 2 10.0012C2 14.0311 6 18.5 10.0002 18C14 18.5 18 14 18 10C18.5 6 14 1.5 10.0002 2Z" fill="#4A4A4A"/>
<path d="M10.3213 8.32781C10.996 8.32781 11.543 7.73981 11.543 7.01449C11.543 6.28916 10.996 5.70117 10.3213 5.70117C9.64658 5.70117 9.09961 6.28916 9.09961 7.01449C9.09961 7.73981 9.64658 8.32781 10.3213 8.32781Z" fill="#4A4A4A"/>
<path d="M11.4696 14.5808H9.09961V13.0533H9.53401V10.4538H9.10552V8.92627H11.0352V13.0533H11.4696V14.5808Z" fill="#4A4A4A"/>
</svg>
