<svg width="27" height="27" viewBox="0 0 27 27" fill="none" xmlns="http://www.w3.org/2000/svg">
<path d="M5.625 3.375H20.25C21.1451 3.375 22.0036 3.73058 22.6365 4.36351C23.2694 4.99645 23.625 5.85489 23.625 6.75V16.875C23.625 17.7701 23.2694 18.6286 22.6365 19.2615C22.0036 19.8944 21.1451 20.25 20.25 20.25H15.0863L10.9237 24.4237C10.7212 24.6262 10.44 24.75 10.125 24.75C9.82663 24.75 9.54048 24.6315 9.3295 24.4205C9.11853 24.2095 9 23.9234 9 23.625V20.25H5.625C4.72989 20.25 3.87145 19.8944 3.23851 19.2615C2.60558 18.6286 2.25 17.7701 2.25 16.875V6.75C2.25 5.85489 2.60558 4.99645 3.23851 4.36351C3.87145 3.73058 4.72989 3.375 5.625 3.375ZM20.25 4.5H5.625C5.02826 4.5 4.45597 4.73705 4.03401 5.15901C3.61205 5.58097 3.375 6.15326 3.375 6.75V16.875C3.375 17.4717 3.61205 18.044 4.03401 18.466C4.45597 18.8879 5.02826 19.125 5.625 19.125H10.125V23.625L14.625 19.125H20.25C20.8467 19.125 21.419 18.8879 21.841 18.466C22.2629 18.044 22.5 17.4717 22.5 16.875V6.75C22.5 6.15326 22.2629 5.58097 21.841 5.15901C21.419 4.73705 20.8467 4.5 20.25 4.5Z" fill="#B4B4B4"/>
</svg>
