<svg width="27" height="27" viewBox="0 0 27 27" fill="none" xmlns="http://www.w3.org/2000/svg">
<path d="M21.8645 4.57324H5.13574C4.38982 4.57324 3.67445 4.86956 3.147 5.397C2.61956 5.92445 2.32324 6.63982 2.32324 7.38574V19.6145C2.32324 20.3604 2.61956 21.0758 3.147 21.6032C3.67445 22.1307 4.38982 22.427 5.13574 22.427H21.8645C22.6104 22.427 23.3258 22.1307 23.8532 21.6032C24.3807 21.0758 24.677 20.3604 24.677 19.6145V7.38574C24.677 6.63982 24.3807 5.92445 23.8532 5.397C23.3258 4.86956 22.6104 4.57324 21.8645 4.57324ZM5.13574 5.69824H21.8645C22.2902 5.69728 22.7004 5.85836 23.0117 6.14878C23.323 6.4392 23.5122 6.8372 23.5407 7.26199C20.762 8.74699 17.972 10.2207 15.182 11.7057C14.8051 11.9434 14.4057 12.1431 13.9895 12.302C13.6631 12.3666 13.3268 12.3609 13.0028 12.2853C12.6788 12.2096 12.3747 12.0657 12.1107 11.8632C10.5132 11.0195 8.91574 10.1645 7.32949 9.32074C6.04699 8.64574 4.74199 7.95949 3.45949 7.27324C3.48532 6.84645 3.67326 6.44566 3.98486 6.15288C4.29647 5.8601 4.70817 5.69746 5.13574 5.69824ZM23.552 19.6145C23.552 20.062 23.3742 20.4913 23.0577 20.8077C22.7413 21.1242 22.312 21.302 21.8645 21.302H5.13574C4.68819 21.302 4.25897 21.1242 3.9425 20.8077C3.62603 20.4913 3.44824 20.062 3.44824 19.6145V8.55012C6.10324 9.94512 8.74699 11.3626 11.402 12.7689C11.8762 13.0599 12.3869 13.2869 12.9207 13.4439C13.7019 13.5711 14.5026 13.4069 15.1707 12.9826C16.802 12.1276 18.422 11.2614 20.0532 10.4064C21.2232 9.77637 22.382 9.16887 23.552 8.55012V19.6145Z" fill="#B4B4B4"/>
</svg>
