<svg width="27" height="27" viewBox="0 0 27 27" fill="none" xmlns="http://www.w3.org/2000/svg">
<path d="M5.0625 19.358V21.3751C5.0625 21.5243 5.12176 21.6673 5.22725 21.7728C5.33274 21.8783 5.47582 21.9376 5.625 21.9376H7.64213C7.79102 21.9375 7.93383 21.8785 8.03925 21.7733L17.6017 12.2108L14.7892 9.39832L5.22675 18.9608C5.1216 19.0662 5.06253 19.2091 5.0625 19.358ZM16.9763 7.21132L19.7888 10.0238L21.1421 8.67045C21.353 8.45948 21.4715 8.17338 21.4715 7.87507C21.4715 7.57676 21.353 7.29067 21.1421 7.0797L19.9204 5.85795C19.7094 5.64704 19.4233 5.52856 19.125 5.52856C18.8267 5.52856 18.5406 5.64704 18.3296 5.85795L16.9763 7.21132Z" stroke="#B4B4B4" stroke-width="1.1"/>
</svg>
