<svg width="246" height="90" viewBox="0 0 246 90" fill="none" xmlns="http://www.w3.org/2000/svg">
<g filter="url(#filter0_d_0_2486)">
<rect width="216" height="70" rx="16" fill="white"/>
<path d="M33.548 29.436H37.994C38.798 29.436 39.524 29.568 40.172 29.832C40.832 30.096 41.39 30.492 41.846 31.02C42.314 31.536 42.674 32.19 42.926 32.982C43.178 33.762 43.304 34.674 43.304 35.718C43.304 36.762 43.178 37.68 42.926 38.472C42.674 39.252 42.314 39.906 41.846 40.434C41.39 40.95 40.832 41.34 40.172 41.604C39.524 41.868 38.798 42 37.994 42H33.548V29.436ZM37.994 40.2C38.93 40.2 39.686 39.906 40.262 39.318C40.838 38.73 41.126 37.866 41.126 36.726V34.71C41.126 33.57 40.838 32.706 40.262 32.118C39.686 31.53 38.93 31.236 37.994 31.236H35.582V40.2H37.994ZM49.3631 42.216C48.7151 42.216 48.1211 42.102 47.5811 41.874C47.0531 41.646 46.6031 41.322 46.2311 40.902C45.8591 40.47 45.5711 39.954 45.3671 39.354C45.1631 38.742 45.0611 38.064 45.0611 37.32C45.0611 36.576 45.1631 35.904 45.3671 35.304C45.5711 34.692 45.8591 34.176 46.2311 33.756C46.6031 33.324 47.0531 32.994 47.5811 32.766C48.1211 32.538 48.7151 32.424 49.3631 32.424C50.0111 32.424 50.5991 32.538 51.1271 32.766C51.6671 32.994 52.1231 33.324 52.4951 33.756C52.8671 34.176 53.1551 34.692 53.3591 35.304C53.5631 35.904 53.6651 36.576 53.6651 37.32C53.6651 38.064 53.5631 38.742 53.3591 39.354C53.1551 39.954 52.8671 40.47 52.4951 40.902C52.1231 41.322 51.6671 41.646 51.1271 41.874C50.5991 42.102 50.0111 42.216 49.3631 42.216ZM49.3631 40.596C50.0351 40.596 50.5751 40.392 50.9831 39.984C51.3911 39.564 51.5951 38.94 51.5951 38.112V36.528C51.5951 35.7 51.3911 35.082 50.9831 34.674C50.5751 34.254 50.0351 34.044 49.3631 34.044C48.6911 34.044 48.1511 34.254 47.7431 34.674C47.3351 35.082 47.1311 35.7 47.1311 36.528V38.112C47.1311 38.94 47.3351 39.564 47.7431 39.984C48.1511 40.392 48.6911 40.596 49.3631 40.596ZM65.8472 32.64H67.7372L63.7952 43.854C63.6872 44.166 63.5612 44.43 63.4172 44.646C63.2852 44.874 63.1232 45.054 62.9312 45.186C62.7512 45.33 62.5292 45.432 62.2652 45.492C62.0012 45.564 61.6892 45.6 61.3292 45.6H60.1952V43.998H61.7792L62.3192 42.414L58.9172 32.64H60.8792L62.7512 38.148L63.2912 40.182H63.3812L63.9752 38.148L65.8472 32.64ZM72.9178 42.216C72.2698 42.216 71.6758 42.102 71.1358 41.874C70.6078 41.646 70.1578 41.322 69.7858 40.902C69.4138 40.47 69.1258 39.954 68.9218 39.354C68.7178 38.742 68.6158 38.064 68.6158 37.32C68.6158 36.576 68.7178 35.904 68.9218 35.304C69.1258 34.692 69.4138 34.176 69.7858 33.756C70.1578 33.324 70.6078 32.994 71.1358 32.766C71.6758 32.538 72.2698 32.424 72.9178 32.424C73.5658 32.424 74.1538 32.538 74.6818 32.766C75.2218 32.994 75.6778 33.324 76.0498 33.756C76.4218 34.176 76.7098 34.692 76.9138 35.304C77.1178 35.904 77.2198 36.576 77.2198 37.32C77.2198 38.064 77.1178 38.742 76.9138 39.354C76.7098 39.954 76.4218 40.47 76.0498 40.902C75.6778 41.322 75.2218 41.646 74.6818 41.874C74.1538 42.102 73.5658 42.216 72.9178 42.216ZM72.9178 40.596C73.5898 40.596 74.1298 40.392 74.5378 39.984C74.9458 39.564 75.1498 38.94 75.1498 38.112V36.528C75.1498 35.7 74.9458 35.082 74.5378 34.674C74.1298 34.254 73.5898 34.044 72.9178 34.044C72.2458 34.044 71.7058 34.254 71.2978 34.674C70.8898 35.082 70.6858 35.7 70.6858 36.528V38.112C70.6858 38.94 70.8898 39.564 71.2978 39.984C71.7058 40.392 72.2458 40.596 72.9178 40.596ZM85.076 40.452H85.004C84.92 40.68 84.806 40.902 84.662 41.118C84.53 41.334 84.356 41.526 84.14 41.694C83.936 41.85 83.684 41.976 83.384 42.072C83.096 42.168 82.76 42.216 82.376 42.216C81.404 42.216 80.648 41.904 80.108 41.28C79.58 40.656 79.316 39.762 79.316 38.598V32.64H81.278V38.346C81.278 39.798 81.878 40.524 83.078 40.524C83.33 40.524 83.576 40.494 83.816 40.434C84.056 40.362 84.266 40.26 84.446 40.128C84.638 39.996 84.788 39.828 84.896 39.624C85.016 39.42 85.076 39.18 85.076 38.904V32.64H87.038V42H85.076V40.452ZM94.1013 42V32.64H96.0633V34.188H96.1533C96.3573 33.684 96.6633 33.264 97.0713 32.928C97.4913 32.592 98.0613 32.424 98.7813 32.424C99.7413 32.424 100.485 32.742 101.013 33.378C101.553 34.002 101.823 34.896 101.823 36.06V42H99.8613V36.312C99.8613 34.848 99.2733 34.116 98.0973 34.116C97.8453 34.116 97.5933 34.152 97.3413 34.224C97.1013 34.284 96.8853 34.38 96.6933 34.512C96.5013 34.644 96.3453 34.812 96.2253 35.016C96.1173 35.22 96.0633 35.46 96.0633 35.736V42H94.1013ZM108.215 42.216C107.543 42.216 106.943 42.102 106.415 41.874C105.887 41.646 105.437 41.322 105.065 40.902C104.693 40.47 104.405 39.954 104.201 39.354C104.009 38.742 103.913 38.064 103.913 37.32C103.913 36.576 104.009 35.904 104.201 35.304C104.405 34.692 104.693 34.176 105.065 33.756C105.437 33.324 105.887 32.994 106.415 32.766C106.943 32.538 107.543 32.424 108.215 32.424C108.899 32.424 109.499 32.544 110.015 32.784C110.543 33.024 110.981 33.36 111.329 33.792C111.677 34.212 111.935 34.704 112.103 35.268C112.283 35.832 112.373 36.438 112.373 37.086V37.824H105.947V38.13C105.947 38.85 106.157 39.444 106.577 39.912C107.009 40.368 107.621 40.596 108.413 40.596C108.989 40.596 109.475 40.47 109.871 40.218C110.267 39.966 110.603 39.624 110.879 39.192L112.031 40.326C111.683 40.902 111.179 41.364 110.519 41.712C109.859 42.048 109.091 42.216 108.215 42.216ZM108.215 33.954C107.879 33.954 107.567 34.014 107.279 34.134C107.003 34.254 106.763 34.422 106.559 34.638C106.367 34.854 106.217 35.112 106.109 35.412C106.001 35.712 105.947 36.042 105.947 36.402V36.528H110.303V36.348C110.303 35.628 110.117 35.052 109.745 34.62C109.373 34.176 108.863 33.954 108.215 33.954ZM118.217 42.216C117.545 42.216 116.945 42.102 116.417 41.874C115.889 41.646 115.439 41.322 115.067 40.902C114.695 40.47 114.407 39.954 114.203 39.354C114.011 38.742 113.915 38.064 113.915 37.32C113.915 36.576 114.011 35.904 114.203 35.304C114.407 34.692 114.695 34.176 115.067 33.756C115.439 33.324 115.889 32.994 116.417 32.766C116.945 32.538 117.545 32.424 118.217 32.424C118.901 32.424 119.501 32.544 120.017 32.784C120.545 33.024 120.983 33.36 121.331 33.792C121.679 34.212 121.937 34.704 122.105 35.268C122.285 35.832 122.375 36.438 122.375 37.086V37.824H115.949V38.13C115.949 38.85 116.159 39.444 116.579 39.912C117.011 40.368 117.623 40.596 118.415 40.596C118.991 40.596 119.477 40.47 119.873 40.218C120.269 39.966 120.605 39.624 120.881 39.192L122.033 40.326C121.685 40.902 121.181 41.364 120.521 41.712C119.861 42.048 119.093 42.216 118.217 42.216ZM118.217 33.954C117.881 33.954 117.569 34.014 117.281 34.134C117.005 34.254 116.765 34.422 116.561 34.638C116.369 34.854 116.219 35.112 116.111 35.412C116.003 35.712 115.949 36.042 115.949 36.402V36.528H120.305V36.348C120.305 35.628 120.119 35.052 119.747 34.62C119.375 34.176 118.865 33.954 118.217 33.954ZM130.433 40.452H130.343C130.139 41.004 129.803 41.436 129.335 41.748C128.879 42.06 128.339 42.216 127.715 42.216C126.527 42.216 125.609 41.79 124.961 40.938C124.313 40.074 123.989 38.868 123.989 37.32C123.989 35.772 124.313 34.572 124.961 33.72C125.609 32.856 126.527 32.424 127.715 32.424C128.339 32.424 128.879 32.58 129.335 32.892C129.803 33.192 130.139 33.624 130.343 34.188H130.433V28.68H132.395V42H130.433V40.452ZM128.309 40.524C128.909 40.524 129.413 40.38 129.821 40.092C130.229 39.792 130.433 39.402 130.433 38.922V35.718C130.433 35.238 130.229 34.854 129.821 34.566C129.413 34.266 128.909 34.116 128.309 34.116C127.625 34.116 127.079 34.338 126.671 34.782C126.263 35.214 126.059 35.79 126.059 36.51V38.13C126.059 38.85 126.263 39.432 126.671 39.876C127.079 40.308 127.625 40.524 128.309 40.524ZM139.453 28.68H141.415V34.188H141.505C141.709 33.684 142.015 33.264 142.423 32.928C142.843 32.592 143.413 32.424 144.133 32.424C145.093 32.424 145.837 32.742 146.365 33.378C146.905 34.002 147.175 34.896 147.175 36.06V42H145.213V36.294C145.213 34.842 144.625 34.116 143.449 34.116C143.197 34.116 142.945 34.152 142.693 34.224C142.453 34.284 142.237 34.38 142.045 34.512C141.853 34.644 141.697 34.812 141.577 35.016C141.469 35.22 141.415 35.454 141.415 35.718V42H139.453V28.68ZM153.566 42.216C152.894 42.216 152.294 42.102 151.766 41.874C151.238 41.646 150.788 41.322 150.416 40.902C150.044 40.47 149.756 39.954 149.552 39.354C149.36 38.742 149.264 38.064 149.264 37.32C149.264 36.576 149.36 35.904 149.552 35.304C149.756 34.692 150.044 34.176 150.416 33.756C150.788 33.324 151.238 32.994 151.766 32.766C152.294 32.538 152.894 32.424 153.566 32.424C154.25 32.424 154.85 32.544 155.366 32.784C155.894 33.024 156.332 33.36 156.68 33.792C157.028 34.212 157.286 34.704 157.454 35.268C157.634 35.832 157.724 36.438 157.724 37.086V37.824H151.298V38.13C151.298 38.85 151.508 39.444 151.928 39.912C152.36 40.368 152.972 40.596 153.764 40.596C154.34 40.596 154.826 40.47 155.222 40.218C155.618 39.966 155.954 39.624 156.23 39.192L157.382 40.326C157.034 40.902 156.53 41.364 155.87 41.712C155.21 42.048 154.442 42.216 153.566 42.216ZM153.566 33.954C153.23 33.954 152.918 34.014 152.63 34.134C152.354 34.254 152.114 34.422 151.91 34.638C151.718 34.854 151.568 35.112 151.46 35.412C151.352 35.712 151.298 36.042 151.298 36.402V36.528H155.654V36.348C155.654 35.628 155.468 35.052 155.096 34.62C154.724 34.176 154.214 33.954 153.566 33.954ZM161.894 42C161.222 42 160.718 41.832 160.382 41.496C160.058 41.148 159.896 40.668 159.896 40.056V28.68H161.858V40.398H163.154V42H161.894ZM165.029 32.64H166.991V34.188H167.081C167.285 33.624 167.615 33.192 168.071 32.892C168.539 32.58 169.085 32.424 169.709 32.424C170.897 32.424 171.815 32.856 172.463 33.72C173.111 34.572 173.435 35.772 173.435 37.32C173.435 38.868 173.111 40.074 172.463 40.938C171.815 41.79 170.897 42.216 169.709 42.216C169.085 42.216 168.539 42.06 168.071 41.748C167.615 41.436 167.285 41.004 167.081 40.452H166.991V45.6H165.029V32.64ZM169.115 40.524C169.799 40.524 170.345 40.308 170.753 39.876C171.161 39.432 171.365 38.85 171.365 38.13V36.51C171.365 35.79 171.161 35.214 170.753 34.782C170.345 34.338 169.799 34.116 169.115 34.116C168.515 34.116 168.011 34.266 167.603 34.566C167.195 34.854 166.991 35.238 166.991 35.718V38.922C166.991 39.402 167.195 39.792 167.603 40.092C168.011 40.38 168.515 40.524 169.115 40.524ZM177.337 38.058V35.196C178.309 35.148 179.053 34.944 179.569 34.584C180.097 34.212 180.361 33.666 180.361 32.946V32.694C180.361 32.142 180.193 31.716 179.857 31.416C179.521 31.104 179.071 30.948 178.507 30.948C177.907 30.948 177.427 31.122 177.067 31.47C176.707 31.818 176.461 32.262 176.329 32.802L174.619 32.118C174.727 31.746 174.883 31.386 175.087 31.038C175.303 30.69 175.573 30.384 175.897 30.12C176.221 29.844 176.605 29.628 177.049 29.472C177.493 29.304 178.003 29.22 178.579 29.22C179.167 29.22 179.701 29.304 180.181 29.472C180.661 29.64 181.069 29.88 181.405 30.192C181.741 30.492 181.999 30.864 182.179 31.308C182.359 31.74 182.449 32.22 182.449 32.748C182.449 33.288 182.353 33.774 182.161 34.206C181.981 34.626 181.735 34.986 181.423 35.286C181.123 35.586 180.781 35.832 180.397 36.024C180.013 36.204 179.617 36.33 179.209 36.402V38.058H177.337ZM178.291 42.216C177.835 42.216 177.499 42.108 177.283 41.892C177.079 41.664 176.977 41.376 176.977 41.028V40.722C176.977 40.374 177.079 40.092 177.283 39.876C177.499 39.648 177.835 39.534 178.291 39.534C178.747 39.534 179.077 39.648 179.281 39.876C179.497 40.092 179.605 40.374 179.605 40.722V41.028C179.605 41.376 179.497 41.664 179.281 41.892C179.077 42.108 178.747 42.216 178.291 42.216Z" fill="#090E45"/>
<path d="M226 35L216 27L216 43L226 35Z" fill="white"/>
</g>
<defs>
<filter id="filter0_d_0_2486" x="0" y="0" width="246" height="90" filterUnits="userSpaceOnUse" color-interpolation-filters="sRGB">
<feFlood flood-opacity="0" result="BackgroundImageFix"/>
<feColorMatrix in="SourceAlpha" type="matrix" values="0 0 0 0 0 0 0 0 0 0 0 0 0 0 0 0 0 0 127 0" result="hardAlpha"/>
<feOffset dx="10" dy="10"/>
<feGaussianBlur stdDeviation="5"/>
<feColorMatrix type="matrix" values="0 0 0 0 1 0 0 0 0 1 0 0 0 0 1 0 0 0 0.1 0"/>
<feBlend mode="normal" in2="BackgroundImageFix" result="effect1_dropShadow_0_2486"/>
<feBlend mode="normal" in="SourceGraphic" in2="effect1_dropShadow_0_2486" result="shape"/>
</filter>
</defs>
</svg>
