<svg width="18" height="23" viewBox="0 0 18 23" fill="none" xmlns="http://www.w3.org/2000/svg">
<path fill-rule="evenodd" clip-rule="evenodd" d="M11.586 0.5C12.0556 0.500115 12.5101 0.665434 12.87 0.967L13 1.086L17.414 5.5C17.746 5.83202 17.9506 6.27028 17.992 6.738L18 6.914V18.5C18.0002 19.0046 17.8096 19.4906 17.4665 19.8605C17.1234 20.2305 16.6532 20.4572 16.15 20.495L16 20.5H10V18.5H16V8.5H11.5C11.1271 8.49998 10.7676 8.36108 10.4916 8.11038C10.2156 7.85968 10.0428 7.51516 10.007 7.144L10 7V2.5H4V10.5H2V2.5C1.99984 1.99542 2.19041 1.50943 2.5335 1.13945C2.87659 0.769471 3.34684 0.542843 3.85 0.505L4 0.5H11.586ZM5.707 12.965L8.536 15.793C8.72347 15.9805 8.82879 16.2348 8.82879 16.5C8.82879 16.7652 8.72347 17.0195 8.536 17.207L5.707 20.035C5.61475 20.1305 5.50441 20.2067 5.3824 20.2591C5.2604 20.3115 5.12918 20.3391 4.9964 20.3403C4.86362 20.3414 4.73194 20.3161 4.60905 20.2658C4.48615 20.2155 4.3745 20.1413 4.2806 20.0474C4.18671 19.9535 4.11246 19.8419 4.06218 19.719C4.0119 19.5961 3.9866 19.4644 3.98775 19.3316C3.9889 19.1988 4.01649 19.0676 4.0689 18.9456C4.12131 18.8236 4.19749 18.7132 4.293 18.621L5.414 17.5H1C0.734784 17.5 0.48043 17.3946 0.292893 17.2071C0.105357 17.0196 0 16.7652 0 16.5C0 16.2348 0.105357 15.9804 0.292893 15.7929C0.48043 15.6054 0.734784 15.5 1 15.5H5.414L4.293 14.379C4.20009 14.2862 4.12638 14.1759 4.07607 14.0546C4.02576 13.9333 3.99984 13.8032 3.9998 13.6719C3.9997 13.4066 4.10499 13.1521 4.2925 12.9645C4.48001 12.7769 4.73438 12.6714 4.99965 12.6713C5.131 12.6713 5.26107 12.6971 5.38243 12.7473C5.5038 12.7975 5.61409 12.8712 5.707 12.964V12.965ZM12 2.914V6.5H15.586L12 2.914Z" fill="white"/>
</svg>
