<svg width="102" height="110" viewBox="0 0 102 110" fill="none" xmlns="http://www.w3.org/2000/svg">
<rect width="102" height="110" rx="6" fill="#313F72"/>
<path d="M41.3068 61.9019C37.7129 66.0576 35.7556 71.1558 35.75 76.2284C35.7406 76.8224 35.7753 77.4145 35.8531 78H21.2774C21.2706 77.9997 21.2599 77.9991 21.2455 77.9981C21.1958 77.9945 21.1084 77.9862 20.9969 77.9676C20.7622 77.9285 20.4875 77.8549 20.243 77.7327C20.0084 77.6153 19.8497 77.4786 19.7442 77.3203C19.6491 77.1776 19.5 76.875 19.5 76.25C19.5 74.7232 20.3481 71.0499 23.1481 67.7832C25.8459 64.6359 30.4567 61.75 38.25 61.75H38.2653L38.2806 61.7498C39.293 61.7374 40.3037 61.7884 41.3068 61.9019ZM46.7774 78C46.7706 77.9997 46.7599 77.9991 46.7455 77.9981C46.6958 77.9945 46.6084 77.9862 46.4969 77.9676C46.2622 77.9285 45.9875 77.8549 45.743 77.7327C45.5084 77.6153 45.3497 77.4786 45.2442 77.3203C45.1491 77.1776 45 76.875 45 76.25C45 74.7232 45.8481 71.0499 48.6481 67.7832C51.3459 64.6359 55.9567 61.75 63.75 61.75C71.5433 61.75 76.1541 64.6359 78.8519 67.7832C81.6519 71.0499 82.5 74.7232 82.5 76.25C82.5 76.875 82.3509 77.1776 82.2558 77.3203C82.1503 77.4786 81.9916 77.6153 81.757 77.7327C81.5125 77.8549 81.2378 77.9285 81.0031 77.9676C80.8916 77.9862 80.8042 77.9945 80.7545 77.9981C80.7405 77.999 80.73 77.9996 80.7232 78C80.723 78 80.7228 78 80.7226 78H46.7774ZM80.7143 78.0004C80.7143 78.0004 80.7144 78.0003 80.7145 78.0003C80.7145 78.0003 80.7145 78.0004 80.7144 78.0004L80.7143 78.0004ZM70.9978 49.4978C69.0756 51.4201 66.4685 52.5 63.75 52.5C61.0315 52.5 58.4244 51.4201 56.5022 49.4978C54.5799 47.5756 53.5 44.9685 53.5 42.25C53.5 39.5315 54.5799 36.9244 56.5022 35.0022C58.4244 33.0799 61.0315 32 63.75 32C66.4685 32 69.0756 33.0799 70.9978 35.0022C72.9201 36.9244 74 39.5315 74 42.25C74 44.9685 72.9201 47.5756 70.9978 49.4978ZM41.8702 50.1202C40.3465 51.644 38.2799 52.5 36.125 52.5C33.9701 52.5 31.9035 51.644 30.3798 50.1202C28.856 48.5965 28 46.5299 28 44.375C28 42.2201 28.856 40.1535 30.3798 38.6298C31.9035 37.106 33.9701 36.25 36.125 36.25C38.2799 36.25 40.3465 37.106 41.8702 38.6298C43.394 40.1535 44.25 42.2201 44.25 44.375C44.25 46.5299 43.394 48.5965 41.8702 50.1202Z" stroke="#0055FF" stroke-width="5"/>
</svg>
