<svg width="18" height="19" viewBox="0 0 18 19" fill="none" xmlns="http://www.w3.org/2000/svg">
<path d="M9.0032 4.95248C9.0032 6.52732 7.72654 7.80398 6.1517 7.80398C4.57686 7.80398 3.3002 6.52732 3.3002 4.95248C3.3002 3.37764 4.57686 2.10098 6.1517 2.10098C7.72654 2.10098 9.0032 3.37764 9.0032 4.95248Z" stroke="#4A4A4A" stroke-width="1.2"/>
<path d="M11.7003 12.8262C11.7003 13.8102 11.668 14.3429 11.1714 14.7473C10.9 14.9684 10.442 15.1875 9.65 15.3478C8.86069 15.5076 7.77967 15.6012 6.30029 15.6012C4.82092 15.6012 3.73989 15.5076 2.95059 15.3478C2.15863 15.1875 1.7006 14.9684 1.42917 14.7473C0.93254 14.3429 0.900293 13.8102 0.900293 12.8262C0.900293 12.2074 1.35264 11.5248 2.35189 10.9627C3.33231 10.4112 4.72709 10.0512 6.30029 10.0512C7.87349 10.0512 9.26828 10.4112 10.2487 10.9627C11.2479 11.5248 11.7003 12.2074 11.7003 12.8262Z" stroke="#4A4A4A" stroke-width="1.2"/>
<path d="M12.8133 15.0009H15.7498C15.8396 15.0009 15.9892 15.0009 16.1648 15.0009C16.7313 15.0009 17.3158 14.6675 17.3158 14.1009V14.1009V13.2009C17.3158 12.4848 17.0312 11.798 16.5246 11.2917C16.0179 10.7853 15.3308 10.5009 14.6143 10.5009H12.8133M10.7998 6.90088C11.1646 7.30845 11.6445 7.59573 12.1762 7.7247C12.7079 7.85368 13.2662 7.81826 13.7773 7.62314C14.2884 7.42803 14.7282 7.08241 15.0385 6.63202C15.3487 6.18163 15.5149 5.6477 15.5149 5.10088C15.5149 4.55406 15.3487 4.02013 15.0385 3.56974C14.7282 3.11935 14.2884 2.77373 13.7773 2.57861C13.2662 2.3835 12.7079 2.34808 12.1762 2.47705C11.6445 2.60603 11.1646 2.89331 10.7998 3.30088" stroke="#4A4A4A" stroke-width="1.2" stroke-linecap="round"/>
</svg>
