<svg width="24" height="24" viewBox="0 0 24 24" fill="none" xmlns="http://www.w3.org/2000/svg">
<path d="M11 4C10.0717 4 9.1815 4.36875 8.52513 5.02513C7.86875 5.6815 7.5 6.57174 7.5 7.5C7.5 8.42826 7.86875 9.3185 8.52513 9.97487C9.1815 10.6313 10.0717 11 11 11C11.9283 11 12.8185 10.6313 13.4749 9.97487C14.1313 9.3185 14.5 8.42826 14.5 7.5C14.5 6.57174 14.1313 5.6815 13.4749 5.02513C12.8185 4.36875 11.9283 4 11 4ZM5.5 7.5C5.5 6.04131 6.07946 4.64236 7.11091 3.61091C8.14236 2.57946 9.54131 2 11 2C12.4587 2 13.8576 2.57946 14.8891 3.61091C15.9205 4.64236 16.5 6.04131 16.5 7.5C16.5 8.95869 15.9205 10.3576 14.8891 11.3891C13.8576 12.4205 12.4587 13 11 13C9.54131 13 8.14236 12.4205 7.11091 11.3891C6.07946 10.3576 5.5 8.95869 5.5 7.5ZM2 19C2 17.6739 2.52678 16.4021 3.46447 15.4645C4.40215 14.5268 5.67392 14 7 14H11C11 14 11 18.6739 11 20H12V22H2V19ZM7 16C6.20435 16 5.44129 16.3161 4.87868 16.8787C4.31607 17.4413 4 18.2044 4 19V20H11.5H11V16H7Z" fill="white"/>
<path d="M18.8752 15.191C18.8752 15.4734 18.763 15.7443 18.5633 15.944C18.3636 16.1438 18.0927 16.256 17.8102 16.256C17.5278 16.256 17.2569 16.1438 17.0572 15.944C16.8574 15.7443 16.7452 15.4734 16.7452 15.191C16.7452 14.9085 16.8574 14.6376 17.0572 14.4379C17.2569 14.2382 17.5278 14.126 17.8102 14.126C18.0927 14.126 18.3636 14.2382 18.5633 14.4379C18.763 14.6376 18.8752 14.9085 18.8752 15.191Z" stroke="white" stroke-linecap="round" stroke-linejoin="round"/>
<path d="M21 13.4999V16.0856C20.9999 16.3508 20.8946 16.6051 20.707 16.7925L16.8524 20.6472C16.6264 20.8731 16.32 21 16.0005 21C15.681 21 15.3745 20.8731 15.1486 20.6472L12.3528 17.8514C12.1269 17.6255 12 17.319 12 16.9995C12 16.68 12.1269 16.3736 12.3528 16.1476L16.2075 12.293C16.3949 12.1054 16.6492 12.0001 16.9144 12H19.5001C19.8979 12 20.2794 12.158 20.5607 12.4393C20.842 12.7206 21 13.1021 21 13.4999Z" stroke="white" stroke-width="1.5" stroke-linecap="round" stroke-linejoin="round"/>
</svg>
