<svg width="24" height="24" viewBox="0 0 24 24" fill="none" xmlns="http://www.w3.org/2000/svg">
<path fill-rule="evenodd" clip-rule="evenodd" d="M17.6796 10.9687C17.8392 10.9687 17.9689 11.0978 17.9689 11.2563V11.383C18.3106 11.4171 18.6172 11.4927 18.9004 11.6146C19.0469 11.6779 19.1139 11.8485 19.0503 11.9948C18.9867 12.141 18.8163 12.2092 18.6701 12.1459C18.3842 12.0216 18.0622 11.9558 17.6852 11.946H17.6828C17.4946 11.9485 17.3262 11.9777 17.1826 12.0362H17.1782C16.9111 12.1386 16.8806 12.2531 16.8753 12.3092C16.8858 12.4091 16.9894 12.4993 17.1839 12.5822C17.3296 12.6412 17.5248 12.6724 17.6983 12.6724C18.3298 12.6724 19.0428 12.9761 19.0793 13.5936C19.0801 13.6074 19.0799 13.6213 19.0788 13.6351C19.0388 14.1317 18.5785 14.4567 17.9689 14.5344V14.6636C17.9689 14.8244 17.8392 14.9536 17.6796 14.9536C17.5199 14.9536 17.3906 14.8244 17.3906 14.6636V14.5393C17.0662 14.5076 16.7535 14.432 16.4578 14.3077C16.3104 14.2468 16.2404 14.0787 16.3014 13.93C16.3628 13.7837 16.5319 13.713 16.6794 13.774C17.1029 13.949 17.7408 14.0655 18.1958 13.8861C18.4518 13.7838 18.4915 13.6716 18.5 13.6131C18.492 13.557 18.4518 13.445 18.1939 13.3402C18.0312 13.2765 17.8586 13.2508 17.6804 13.25C17.4286 13.2475 17.1907 13.2061 16.9723 13.1208C16.9694 13.1208 16.9662 13.1184 16.9636 13.1184C16.4274 12.8917 16.3048 12.5602 16.296 12.3189C16.296 12.3116 16.296 12.3019 16.2965 12.2921C16.3228 11.7986 16.7774 11.4779 17.3906 11.3879V11.2563C17.3906 11.0978 17.52 10.9687 17.6796 10.9687ZM13.6111 11.0101H8.54694C8.69732 13.674 10.9113 15.7944 13.6111 15.7944C14.2231 15.7944 14.8158 15.6872 15.3788 15.4775C14.6973 14.8536 14.2693 13.9567 14.2693 12.9598C14.2693 10.7038 16.4268 9.08219 18.5743 9.66952C18.1068 7.43942 16.1935 5.78454 13.9001 5.65534V10.72C13.9001 10.8809 13.7707 11.0101 13.6111 11.0101ZM20.5115 12.9599C20.5115 11.4 19.2412 10.1302 17.6796 10.1302C16.118 10.1302 14.8478 11.4 14.8478 12.9599C14.8478 14.5222 16.118 15.7944 17.6796 15.7944C19.2412 15.7944 20.5115 14.5222 20.5115 12.9599ZM7.96029 10.72C7.96029 13.8373 10.4953 16.3721 13.6111 16.3721C14.4163 16.3721 15.1914 16.2063 15.9184 15.8797C16.4329 16.1917 17.0356 16.3721 17.6795 16.3721C19.5601 16.3721 21.09 14.8415 21.09 12.9599C21.09 11.6291 20.3211 10.4714 19.2038 9.91085C18.807 7.1397 16.4304 5.07046 13.611 5.07046C13.4514 5.07046 13.3217 5.19962 13.3217 5.35807V10.4325H8.24958C8.08971 10.4324 7.96029 10.5616 7.96029 10.72ZM19.6696 20.6251C19.6696 20.6885 19.6165 20.7421 19.5532 20.7421H18.6033C18.5402 20.7421 18.4866 20.6885 18.4866 20.6251V17.3957C18.4866 17.3323 18.5402 17.2787 18.6033 17.2787H19.5532C19.6165 17.2787 19.6696 17.3323 19.6696 17.3957V20.6251ZM16.5955 20.3521C15.5743 20.4666 14.4776 20.5495 13.3781 20.3887C12.341 20.2351 11.7875 19.9646 10.8536 19.4235L7.30542 17.3762C7.09264 17.2543 7.0188 16.9789 7.14236 16.7669C7.26544 16.5524 7.53891 16.4793 7.75216 16.6036L10.7695 18.3462C11.1349 18.5553 11.3874 18.7316 11.9145 18.6485C12.012 18.7823 12.1397 18.8912 12.2873 18.9662C12.4349 19.0411 12.5981 19.0801 12.7637 19.0799H15.2667C15.3048 19.0799 15.3424 19.0723 15.3776 19.0578C15.4127 19.0432 15.4446 19.0218 15.4715 18.9948C15.4983 18.9679 15.5196 18.9359 15.5341 18.9007C15.5485 18.8656 15.5559 18.8279 15.5558 18.7898C15.5558 18.6314 15.4264 18.5022 15.2667 18.5022H12.7637C12.502 18.5022 12.2889 18.2866 12.2889 18.027C12.2889 17.7662 12.5022 17.5517 12.7637 17.5517H15.2667C15.2921 17.5517 15.3172 17.5493 15.3415 17.542C16.1621 17.3226 16.8127 17.4567 17.5663 17.6102C17.6779 17.6322 17.792 17.6565 17.908 17.6785V20.2303C17.4698 20.2627 17.0322 20.3033 16.5955 20.3521ZM19.5531 16.7011C19.9367 16.7011 20.2482 17.013 20.2482 17.3957V20.6251C20.2482 21.0101 19.9367 21.3221 19.5531 21.3221H18.6033C18.2833 21.3221 18.0137 21.1028 17.933 20.8079C17.5185 20.8396 17.1073 20.8761 16.66 20.9273C15.557 21.0522 14.4234 21.127 13.2934 20.959C12.1184 20.7859 11.4787 20.4545 10.5642 19.9256L7.01604 17.8783C6.52665 17.5956 6.35846 16.9668 6.64119 16.4769C6.92229 15.9895 7.54895 15.8173 8.04115 16.1016L11.0587 17.8442C11.321 17.9976 11.4226 18.0879 11.7124 18.0879C11.6748 17.4894 12.1574 16.9741 12.7636 16.9741H15.2291C16.164 16.7328 16.9018 16.8839 17.682 17.0423C17.7775 17.0618 17.8755 17.0838 17.9742 17.1033C18.0853 16.8668 18.3251 16.7011 18.6032 16.7011L19.5531 16.7011ZM4.33049 8.22428C4.33636 8.19016 4.33998 8.15359 4.33998 8.11461V4.88523C4.33998 4.81701 4.32976 4.74874 4.31122 4.6878L5.19595 4.28078C6.04243 3.88108 6.55352 3.63979 7.12602 3.58373C7.54986 3.54474 8.03266 3.72022 8.7636 3.98588L10.1806 4.48796C9.81258 4.65607 9.4634 4.86276 9.13897 5.10457C8.22841 5.10457 7.21624 5.12894 6.48016 5.88205C6.1631 6.20623 6.16771 6.73021 6.49064 7.04952C6.69609 7.25183 6.9881 7.38099 7.35782 7.43459L8.85744 7.43705C9.1187 7.43705 9.33196 7.6491 9.33196 7.9123C9.33196 8.17309 9.1187 8.38514 8.85744 8.38514H5.33831C4.99889 8.35624 4.66204 8.30248 4.33049 8.22428ZM3.76162 8.11461C3.76162 8.17796 3.70848 8.23161 3.64513 8.23161H2.69485C2.63171 8.23161 2.57836 8.178 2.57836 8.11461V4.88523C2.57836 4.82188 2.63175 4.76823 2.69485 4.76823H3.64513C3.70848 4.76823 3.76162 4.82184 3.76162 4.88523V8.11461ZM7.41949 6.85942C7.18501 6.82285 7.00932 6.74975 6.89693 6.63762C6.79994 6.54257 6.79869 6.38417 6.894 6.28666C7.29589 5.87476 7.81332 5.74073 8.46336 5.7017C8.12643 6.04853 7.836 6.43768 7.59937 6.85938L7.41949 6.85942ZM12.2338 9.34297H7.45895C7.46628 9.21622 7.4787 9.08952 7.49479 8.96518H8.85744C9.43822 8.96518 9.91058 8.49235 9.91058 7.9123C9.91058 7.33221 9.43827 6.85942 8.85744 6.85942H8.27567C9.15575 5.50918 10.6186 4.65856 12.2338 4.56839V9.34297ZM6.8723 9.63299C6.8723 9.40878 6.88598 9.18698 6.91155 8.96518L5.302 8.96273C4.84865 8.92615 4.40019 8.84572 3.96685 8.73118C3.86724 8.78212 3.75701 8.80883 3.64513 8.80915H2.69485C2.31193 8.80915 2 8.49718 2 8.11452V4.88523C2 4.50258 2.31197 4.1906 2.69485 4.1906H3.64513C3.73238 4.1906 3.81527 4.20522 3.89203 4.23692C4.17623 4.1175 4.41386 4.01025 4.59468 3.92494C5.50697 3.49424 6.27695 3.08429 7.07094 3.00856C7.6252 2.95495 8.18601 3.15967 8.96177 3.44241L9.76361 3.72756C10.1796 3.8738 10.5428 4.0005 11.0127 4.18577C11.5046 4.04974 12.0127 3.98088 12.5231 3.98105C12.6827 3.98105 12.8124 4.11267 12.8124 4.27107V9.63299C12.8125 9.67104 12.805 9.70874 12.7905 9.74392C12.7761 9.7791 12.7548 9.81107 12.7279 9.83801C12.701 9.86495 12.6691 9.88633 12.6339 9.90091C12.5988 9.9155 12.5611 9.92301 12.5231 9.92302H7.16159C7.12354 9.92302 7.08586 9.91552 7.05071 9.90094C7.01556 9.88635 6.98364 9.86498 6.95676 9.83804C6.92989 9.8111 6.9086 9.77912 6.8941 9.74393C6.87961 9.70875 6.8722 9.67105 6.8723 9.63299Z" fill="#FF8C01"/>
</svg>
