<svg width="38" height="38" viewBox="0 0 38 38" fill="none" xmlns="http://www.w3.org/2000/svg">
<g clip-path="url(#clip0_0_914)">
<path d="M0 15.2002V30.4002C0 31.408 0.400356 32.3746 1.11299 33.0872C1.82563 33.7998 2.79218 34.2002 3.8 34.2002H34.2C35.2078 34.2002 36.1744 33.7998 36.887 33.0872C37.5996 32.3746 38 31.408 38 30.4002V15.2002L19 22.8002L0 15.2002Z" fill="#E4E6F6"/>
<path d="M3.8 3.7998C2.79218 3.7998 1.82563 4.20016 1.11299 4.9128C0.400356 5.62544 0 6.59198 0 7.5998L0 11.3998L19 18.9998L38 11.3998V7.5998C38 6.59198 37.5996 5.62544 36.887 4.9128C36.1744 4.20016 35.2078 3.7998 34.2 3.7998H3.8Z" fill="#E4E6F6"/>
</g>
<defs>
<clipPath id="clip0_0_914">
<rect width="38" height="38" fill="white"/>
</clipPath>
</defs>
</svg>
