<svg width="35" height="35" viewBox="0 0 35 35" fill="none" xmlns="http://www.w3.org/2000/svg">
<g clip-path="url(#clip0_0_949)">
<path d="M31.9376 27.3485L31.607 27.0568C30.6692 26.2213 29.8484 25.2631 29.1667 24.2082C28.4222 22.7524 27.976 21.1625 27.8542 19.5318V14.7291C27.8607 12.1678 26.9316 9.69244 25.2416 7.76792C23.5516 5.8434 21.217 4.60226 18.6764 4.27767V3.0235C18.6764 2.67927 18.5397 2.34914 18.2963 2.10574C18.0529 1.86233 17.7228 1.72559 17.3785 1.72559C17.0343 1.72559 16.7042 1.86233 16.4608 2.10574C16.2174 2.34914 16.0806 2.67927 16.0806 3.0235V4.29711C13.5628 4.6451 11.2564 5.89375 9.58862 7.8118C7.92083 9.72985 7.00465 12.1873 7.00978 14.7291V19.5318C6.88801 21.1625 6.44178 22.7524 5.69728 24.2082C5.0273 25.2605 4.21969 26.2185 3.29589 27.0568L2.96533 27.3485V30.0902H31.9376V27.3485Z" fill="#E4E6F6"/>
<path d="M14.8945 31.1113C14.9798 31.7276 15.2852 32.2922 15.7543 32.7009C16.2233 33.1095 16.8245 33.3347 17.4466 33.3347C18.0688 33.3347 18.6699 33.1095 19.139 32.7009C19.6081 32.2922 19.9134 31.7276 19.9987 31.1113H14.8945Z" fill="#E4E6F6"/>
</g>
<defs>
<clipPath id="clip0_0_949">
<rect width="35" height="35" fill="white"/>
</clipPath>
</defs>
</svg>
