<svg width="24" height="24" viewBox="0 0 24 24" fill="none" xmlns="http://www.w3.org/2000/svg">
<path d="M4 17.3172V19.2596C4 19.4033 4.05707 19.541 4.15865 19.6426C4.26023 19.7442 4.39801 19.8013 4.54167 19.8013H6.48408C6.62747 19.8012 6.76499 19.7444 6.8665 19.6431L16.0748 10.4348L13.3665 7.72644L4.15817 16.9348C4.05691 17.0363 4.00003 17.1738 4 17.3172ZM15.4725 5.62044L18.1808 8.32877L19.4841 7.02552C19.6872 6.82236 19.8013 6.54686 19.8013 6.2596C19.8013 5.97234 19.6872 5.69684 19.4841 5.49369L18.3076 4.31718C18.1044 4.11409 17.8289 4 17.5417 4C17.2544 4 16.9789 4.11409 16.7757 4.31718L15.4725 5.62044Z" stroke="#FF8C01" stroke-width="1.5"/>
</svg>
