<svg width="102" height="110" viewBox="0 0 102 110" fill="none" xmlns="http://www.w3.org/2000/svg">
<rect width="102" height="110" rx="6" fill="#FFB016" fill-opacity="0.2"/>
<path d="M49.9167 40.917L49.9167 56.5603L57.5 61.5003" stroke="#FF8C01" stroke-width="4.33333" stroke-linecap="round"/>
<path d="M64.3943 74.8726C65.0224 75.8045 64.7795 77.0769 63.8013 77.6302C59.3293 80.16 54.1926 81.3158 49.0389 80.9259C43.2068 80.4848 37.6938 78.0901 33.3907 74.1288C29.0876 70.1675 26.2458 64.8711 25.3246 59.0953C24.4033 53.3195 25.4564 47.4018 28.3136 42.2985C31.1709 37.1951 35.6654 33.2042 41.0709 30.9706C46.4764 28.737 52.4771 28.3912 58.1034 29.9892C63.7297 31.5871 68.6528 35.0354 72.0773 39.7768C75.1034 43.9666 76.8031 48.9499 76.9839 54.0847C77.0235 55.2078 76.0657 56.0799 74.9429 56.0315C73.8201 55.9832 72.959 55.0322 72.9031 53.9097C72.6932 49.6912 71.268 45.607 68.7781 42.1597C65.8896 38.1604 61.7371 35.2519 56.9915 33.9041C52.2459 32.5563 47.1845 32.848 42.6251 34.7319C38.0657 36.6159 34.2747 39.9821 31.8647 44.2866C29.4547 48.5912 28.5665 53.5826 29.3435 58.4543C30.1206 63.326 32.5175 67.7934 36.1471 71.1346C39.7766 74.4758 44.4267 76.4956 49.3459 76.8677C53.5863 77.1885 57.8131 76.2687 61.5192 74.2427C62.5053 73.7037 63.7661 73.9407 64.3943 74.8726Z" fill="#FF8C01"/>
<line x1="70.5007" y1="60.4167" x2="70.5006" y2="69.0833" stroke="#FF8C01" stroke-width="4.33333" stroke-linecap="round"/>
<circle cx="69.959" cy="76.125" r="1.625" fill="#FF8C01"/>
</svg>
