<svg width="20" height="20" viewBox="0 0 20 20" fill="none" xmlns="http://www.w3.org/2000/svg">
<path fill-rule="evenodd" clip-rule="evenodd" d="M4.16663 6.25C4.16663 5.75754 4.26362 5.26991 4.45208 4.81494C4.64053 4.35997 4.91676 3.94657 5.26498 3.59835C5.6132 3.25013 6.02659 2.97391 6.48156 2.78545C6.93653 2.597 7.42417 2.5 7.91663 2.5C8.40908 2.5 8.89672 2.597 9.35169 2.78545C9.80666 2.97391 10.2201 3.25013 10.5683 3.59835C10.9165 3.94657 11.1927 4.35997 11.3812 4.81494C11.5696 5.26991 11.6666 5.75754 11.6666 6.25C11.6666 7.24456 11.2715 8.19839 10.5683 8.90165C9.86501 9.60491 8.91119 10 7.91663 10C6.92206 10 5.96824 9.60491 5.26498 8.90165C4.56171 8.19839 4.16663 7.24456 4.16663 6.25ZM7.91663 4.16667C7.36409 4.16667 6.83419 4.38616 6.44349 4.77686C6.05279 5.16756 5.83329 5.69747 5.83329 6.25C5.83329 6.80253 6.05279 7.33244 6.44349 7.72314C6.83419 8.11384 7.36409 8.33333 7.91663 8.33333C8.46916 8.33333 8.99906 8.11384 9.38976 7.72314C9.78047 7.33244 9.99996 6.80253 9.99996 6.25C9.99996 5.69747 9.78047 5.16756 9.38976 4.77686C8.99906 4.38616 8.46916 4.16667 7.91663 4.16667ZM7.91663 10.8333C9.57746 10.8333 11.0875 11.34 12.1975 12.055C12.7533 12.4133 13.2291 12.8358 13.575 13.2967C13.9141 13.7508 14.1666 14.2967 14.1666 14.8808C14.1666 15.51 13.875 16.0142 13.4466 16.3783C13.0425 16.72 12.5158 16.9417 11.9716 17.0942C10.8775 17.4 9.42996 17.5 7.91663 17.5C6.40329 17.5 4.95579 17.4 3.86246 17.0942C3.31746 16.9417 2.79079 16.72 2.38746 16.3783C1.95746 16.015 1.66663 15.51 1.66663 14.8808C1.66663 14.2958 1.91913 13.7508 2.25829 13.2975C2.60413 12.8358 3.07996 12.4125 3.63579 12.0558C4.74579 11.3392 6.25579 10.8333 7.91663 10.8333ZM7.91663 12.5C6.58579 12.5 5.38746 12.91 4.53746 13.4567C4.11246 13.73 3.79579 14.025 3.59246 14.2958C3.38413 14.5742 3.33329 14.7758 3.33329 14.8808C3.33329 14.9425 3.34579 15.0058 3.46413 15.1058C3.60829 15.2292 3.87579 15.3675 4.31079 15.4892C5.17746 15.7308 6.43829 15.8333 7.91663 15.8333C9.39496 15.8333 10.6558 15.7308 11.5225 15.4892C11.9575 15.3675 12.225 15.2292 12.3691 15.1058C12.4875 15.0058 12.5 14.9425 12.5 14.8808C12.5 14.7758 12.4491 14.5742 12.2408 14.2958C12.0375 14.025 11.7208 13.73 11.2958 13.4567C10.4458 12.91 9.24746 12.5 7.91663 12.5ZM15 10.8333C16.1 10.8333 17.0983 11.1967 17.8333 11.7092C18.5183 12.1867 19.1666 12.94 19.1666 13.8092C19.1666 14.2983 18.9558 14.7033 18.635 14.9975C18.3375 15.2708 17.9608 15.4375 17.5983 15.5475C16.8733 15.7667 15.94 15.8333 15 15.8333H14.8308C14.9391 15.5433 15 15.225 15 14.8808C14.9988 14.6942 14.9822 14.5136 14.95 14.3392L14.9108 14.1667H15C15.9008 14.1667 16.6333 14.0983 17.1158 13.9525C17.3341 13.8858 17.4466 13.8192 17.495 13.7808C17.4708 13.6825 17.3408 13.3975 16.88 13.0767C16.4784 12.8031 16.0219 12.6206 15.5424 12.542C15.0629 12.4634 14.572 12.4906 14.1041 12.6217C13.7008 12.1426 13.2277 11.7268 12.7008 11.3883C13.4124 11.0239 14.2004 10.8337 15 10.8333ZM12.5 7.5C12.5 6.83696 12.7634 6.20107 13.2322 5.73223C13.701 5.26339 14.3369 5 15 5C15.663 5 16.2989 5.26339 16.7677 5.73223C17.2366 6.20107 17.5 6.83696 17.5 7.5C17.5 8.16304 17.2366 8.79893 16.7677 9.26777C16.2989 9.73661 15.663 10 15 10C14.3369 10 13.701 9.73661 13.2322 9.26777C12.7634 8.79893 12.5 8.16304 12.5 7.5ZM15 6.66667C14.7789 6.66667 14.567 6.75446 14.4107 6.91074C14.2544 7.06702 14.1666 7.27899 14.1666 7.5C14.1666 7.72101 14.2544 7.93297 14.4107 8.08926C14.567 8.24554 14.7789 8.33333 15 8.33333C15.221 8.33333 15.4329 8.24554 15.5892 8.08926C15.7455 7.93297 15.8333 7.72101 15.8333 7.5C15.8333 7.27899 15.7455 7.06702 15.5892 6.91074C15.4329 6.75446 15.221 6.66667 15 6.66667Z" fill="#E4E6F6"/>
</svg>
