<svg width="18" height="18" viewBox="0 0 18 18" fill="none" xmlns="http://www.w3.org/2000/svg">
<path d="M11.25 4.5C11.25 5.74264 10.2426 6.75 9 6.75C7.75736 6.75 6.75 5.74264 6.75 4.5C6.75 3.25736 7.75736 2.25 9 2.25C10.2426 2.25 11.25 3.25736 11.25 4.5Z" stroke="#4A4A4A" stroke-width="1.5"/>
<path d="M14.25 13.125C14.25 14.122 14.2097 14.577 13.7764 14.9299C13.5309 15.1298 13.099 15.342 12.3199 15.4997C11.5443 15.6567 10.4742 15.75 9 15.75C7.52578 15.75 6.45575 15.6567 5.68005 15.4997C4.90104 15.342 4.46914 15.1298 4.2236 14.9299C3.79031 14.577 3.75 14.122 3.75 13.125C3.75 12.5845 4.14753 11.9422 5.12514 11.3923C6.07921 10.8556 7.44769 10.5 9 10.5C10.5523 10.5 11.9208 10.8556 12.8749 11.3923C13.8525 11.9422 14.25 12.5845 14.25 13.125Z" stroke="#4A4A4A" stroke-width="1.5"/>
</svg>
