<svg xmlns="http://www.w3.org/2000/svg" version="1.1" viewBox="-5.0 -10.0 110.0 135.0">
 <path d="m56.789 80.758h0.003907 0.011719 24.043c0.82031 0 1.5273-0.56641 1.7109-1.3633l4.1719-18.219c0.11719-0.51953-0.003907-1.0703-0.33984-1.4883-0.33203-0.41797-0.83984-0.66016-1.375-0.66016h-14.121v-45.348c0-0.96875-0.78516-1.7578-1.7578-1.7578h-20.891v-0.73438c0-3.4141-2.7734-6.1875-6.1875-6.1875-3.4141 0-6.1914 2.7734-6.1914 6.1875v0.73438h-20.891c-0.96875 0-1.7578 0.78516-1.7578 1.7578v68.488c0 0.96875 0.78516 1.7578 1.7578 1.7578l36.223-0.003906c0.47266 2.6641 2.8008 4.6953 5.5938 4.6953h0.066406c-0.13672 0.45312-0.21484 0.93359-0.21484 1.4336 0 2.7305 2.2227 4.9492 4.9492 4.9492s4.9453-2.2227 4.9453-4.9492c0-0.49609-0.074218-0.98047-0.21094-1.4336h3.5273c-0.13672 0.45312-0.21094 0.93359-0.21094 1.4336 0 2.7305 2.2188 4.9492 4.9453 4.9492 2.7305 0 4.9492-2.2227 4.9492-4.9492 0-0.49609-0.074218-0.98047-0.21484-1.4336h1.5195c0.96875 0 1.7578-0.78516 1.7578-1.7578 0-0.96875-0.78516-1.7578-1.7578-1.7578l-24.051 0.003907c-1.1953 0-2.1719-0.97656-2.1719-2.1758 0.003906-1.1953 0.97266-2.168 2.168-2.1719zm6.2422 9.293c0 0.79297-0.64453 1.4375-1.4336 1.4375-0.79297 0-1.4375-0.64453-1.4375-1.4375 0-0.78906 0.64453-1.4336 1.4375-1.4336 0.78906 0 1.4336 0.64062 1.4336 1.4336zm13 0c0 0.79297-0.64453 1.4375-1.4375 1.4375-0.78906 0-1.4336-0.64453-1.4336-1.4375 0-0.78906 0.64453-1.4336 1.4336-1.4336 0.79297 0 1.4375 0.64062 1.4375 1.4336zm3.418-12.805h-21.359l-4.5391-14.703h29.27zm-40.066-58.301v-7.7578c0-1.4727 1.1992-2.6719 2.6797-2.6719 1.4727 0 2.6719 1.1992 2.6719 2.6719v7.7578c0 0.96875 0.78516 1.7578 1.7578 1.7578h9.3516c0.65625 0 1.2148 0.55469 1.2148 1.207v1.2148l-30-0.003906v-1.2148c0-0.65625 0.55469-1.207 1.2148-1.207h9.3516c0.96875 0 1.7578-0.78516 1.7578-1.7539zm-22.648-3.5117h19.133v1.7539h-7.5977c-2.6055 0-4.7266 2.1172-4.7266 4.7227v2.9688c0 0.96875 0.78516 1.7578 1.7578 1.7578h33.508c0.96875 0 1.7578-0.78516 1.7578-1.7578v-2.9688c0-2.6016-2.1211-4.7227-4.7266-4.7227h-7.5977v-1.7539h19.137v43.594h-14.914l-0.92578-3.0039c-0.22656-0.73438-0.90625-1.2383-1.6797-1.2383h-7.3633c-0.96875 0-1.7578 0.78516-1.7578 1.7578 0 0.96875 0.78516 1.7578 1.7578 1.7578h6.0703l5.9922 19.406c-1.2422 0.53516-2.2539 1.4961-2.8555 2.7031h-34.969zm3.957 34.523c-0.67188-0.69922-0.64453-1.8125 0.054688-2.4844 0.69922-0.67188 1.8125-0.64453 2.4844 0.054688l1.1719 1.2227 3.6797-4.2305c0.63672-0.73047 1.7461-0.80859 2.4766-0.17188 0.73047 0.63672 0.80859 1.7461 0.17188 2.4766l-4.9414 5.6836c-0.32422 0.37109-0.78906 0.59375-1.2852 0.60547h-0.042968c-0.48047 0-0.9375-0.19531-1.2695-0.54297zm12.02-0.38672c0-0.96875 0.78516-1.7578 1.7578-1.7578h25.527c0.96875 0 1.7578 0.78516 1.7578 1.7578 0 0.96875-0.78516 1.7578-1.7578 1.7578l-25.531-0.003906c-0.96875 0-1.7539-0.78516-1.7539-1.7539zm-12.02-11.012c-0.67188-0.69922-0.64453-1.8125 0.054688-2.4844 0.69922-0.67188 1.8125-0.64453 2.4844 0.054687l1.1719 1.2227 3.6797-4.2305c0.63672-0.73047 1.7461-0.80859 2.4766-0.17188 0.73047 0.63672 0.80859 1.7461 0.17188 2.4766l-4.9414 5.6836c-0.32422 0.37109-0.78906 0.59375-1.2852 0.60547h-0.042968c-0.48047 0-0.9375-0.19531-1.2695-0.54297zm12.02-0.37891c0-0.96875 0.78516-1.7578 1.7578-1.7578h25.527c0.96875 0 1.7578 0.78516 1.7578 1.7578 0 0.96875-0.78516 1.7578-1.7578 1.7578l-25.531-0.003906c-0.96875 0-1.7539-0.78516-1.7539-1.7539zm5.5273 20.637h-16.277c-0.96875 0-1.7578 0.78516-1.7578 1.7578v15.945c0 0.96875 0.78516 1.7578 1.7578 1.7578h16.277c0.96875 0 1.7578-0.78516 1.7578-1.7578l-0.003906-15.949c0.003906-0.96875-0.78516-1.7539-1.7539-1.7539zm-1.7578 15.941h-12.766v-12.43h4.625v3.2422c0 0.96875 0.78516 1.7578 1.7578 1.7578 0.96875 0 1.7578-0.78516 1.7578-1.7578v-3.2422h4.6289z"/>
<text x="0.0" y="117.5" font-size="5.0" font-weight="bold" font-family="Arbeit Regular, Helvetica, Arial-Unicode, Arial, Sans-serif" fill="#000000">Created by kakhim</text><text x="0.0" y="122.5" font-size="5.0" font-weight="bold" font-family="Arbeit Regular, Helvetica, Arial-Unicode, Arial, Sans-serif" fill="#000000">from Noun Project</text></svg>