<svg width="116" height="116" viewBox="0 0 116 116" fill="none" xmlns="http://www.w3.org/2000/svg">
<circle cx="58" cy="58" r="58" fill="#FBD9D8"/>
<path d="M39.608 54.5955C47.6325 40.3642 51.6448 33.25 58 33.25C64.3553 33.25 68.3675 40.3642 76.392 54.5955L77.393 56.3665C84.0618 68.1915 87.3975 74.104 84.3835 78.427C81.3695 82.75 73.9115 82.75 59.001 82.75H56.999C42.0885 82.75 34.6306 82.75 31.6166 78.427C28.6026 74.104 31.9383 68.1915 38.6071 56.3665L39.608 54.5955Z" stroke="#EA4040" stroke-width="6"/>
<path d="M58.0001 48V62.0735" stroke="#EA4040" stroke-width="6" stroke-linecap="round"/>
<path d="M58.4854 74.7206C60.2722 74.7206 61.7207 73.2721 61.7207 71.4853C61.7207 69.6985 60.2722 68.25 58.4854 68.25C56.6986 68.25 55.2501 69.6985 55.2501 71.4853C55.2501 73.2721 56.6986 74.7206 58.4854 74.7206Z" fill="#EA4040"/>
</svg>
