<svg width="71" height="71" viewBox="0 0 71 71" fill="none" xmlns="http://www.w3.org/2000/svg">
<path d="M35.4982 71C55.092 71 71 55.092 71 35.4982C71 15.9044 55.092 0 35.4982 0C15.908 0 0 15.9044 0 35.4982C0 55.092 15.908 71 35.4982 71ZM35.4982 65.6737C18.8446 65.6737 5.32633 52.1519 5.32633 35.4982C5.32633 18.8446 18.8446 5.32633 35.4982 5.32633C52.1519 5.32633 65.6737 18.8446 65.6737 35.4982C65.6737 52.1519 52.1519 65.6737 35.4982 65.6737ZM35.4982 42.5929C34.0282 42.5929 32.8351 41.3998 32.8351 39.9297V20.3998C32.8351 18.9298 34.0282 17.7367 35.4982 17.7367C36.9683 17.7367 38.1614 18.9298 38.1614 20.3998V39.9297C38.1614 41.3998 36.9683 42.5929 35.4982 42.5929ZM35.4911 53.2456C37.4512 53.2456 39.042 51.6548 39.042 49.6947C39.042 47.7346 37.4512 46.1438 35.4911 46.1438C33.531 46.1438 31.9402 47.7346 31.9402 49.6947C31.9402 51.6548 33.531 53.2456 35.4911 53.2456Z" fill="#FF7076"/>
</svg>
