<svg width="18" height="19" viewBox="0 0 18 19" fill="none" xmlns="http://www.w3.org/2000/svg">
<path d="M1 5.05556V3.27778C1 2.80628 1.1873 2.3541 1.5207 2.0207C1.8541 1.6873 2.30628 1.5 2.77778 1.5H4.55556M13.4444 1.5H15.2222C15.6937 1.5 16.1459 1.6873 16.4793 2.0207C16.8127 2.3541 17 2.80628 17 3.27778V5.05556M17 13.9444V15.7222C17 16.1937 16.8127 16.6459 16.4793 16.9793C16.1459 17.3127 15.6937 17.5 15.2222 17.5H13.4444M4.55556 17.5H2.77778C2.30628 17.5 1.8541 17.3127 1.5207 16.9793C1.1873 16.6459 1 16.1937 1 15.7222V13.9444M4.55556 9.5H13.4444" stroke="#03053D" stroke-width="2" stroke-linecap="round" stroke-linejoin="round"/>
</svg>
