<svg width="20" height="22" viewBox="0 0 20 22" fill="none" xmlns="http://www.w3.org/2000/svg">
<path fill-rule="evenodd" clip-rule="evenodd" d="M11.026 0.269985C11.2409 0.19844 11.4693 0.176504 11.6939 0.205825C11.9185 0.235146 12.1336 0.314961 12.323 0.439281C12.5123 0.563601 12.6711 0.729197 12.7873 0.923641C12.9035 1.11808 12.9742 1.33633 12.994 1.56199L13 1.69399V7.17999L16.794 7.93998C17.1102 8.00299 17.3976 8.16619 17.6138 8.40539C17.8299 8.64459 17.9632 8.94707 17.994 9.26799L18 9.40999V17H19C19.2549 17.0003 19.5 17.0979 19.6854 17.2728C19.8707 17.4478 19.9822 17.6869 19.9972 17.9414C20.0121 18.1958 19.9293 18.4464 19.7657 18.6418C19.6021 18.8373 19.3701 18.9629 19.117 18.993L19 19H0.999998C0.745119 18.9997 0.499966 18.9021 0.31463 18.7271C0.129294 18.5522 0.0177634 18.313 0.0028263 18.0586C-0.0121108 17.8041 0.070673 17.5536 0.234263 17.3582C0.397854 17.1627 0.629902 17.0371 0.882998 17.007L0.999998 17H2V4.35999C2 3.75999 2.356 3.22399 2.898 2.98599L3.026 2.93699L11.026 0.269985ZM11 2.38799L4 4.72099V17H11V2.38799ZM13 9.22099V17H16V9.81999L13 9.22099Z" fill="white"/>
</svg>
