<svg width="14" height="18" viewBox="0 0 14 18" fill="none" xmlns="http://www.w3.org/2000/svg">
<path d="M1.16663 7.33333V5.595C1.16667 5.374 1.2545 5.16208 1.41079 5.00583L4.67246 1.74417C4.8287 1.58788 5.04063 1.50005 5.26163 1.5H12C12.221 1.5 12.4329 1.5878 12.5892 1.74408C12.7455 1.90036 12.8333 2.11232 12.8333 2.33333V7.33333M1.16663 14.8333V15.6667C1.16663 15.8877 1.25442 16.0996 1.4107 16.2559C1.56698 16.4122 1.77895 16.5 1.99996 16.5H12C12.221 16.5 12.4329 16.4122 12.5892 16.2559C12.7455 16.0996 12.8333 15.8877 12.8333 15.6667V14.8333M5.33329 1.5V4.83333C5.33329 5.05435 5.2455 5.26631 5.08921 5.42259C4.93293 5.57887 4.72097 5.66667 4.49996 5.66667H1.16663M3.38746 13.1667H2.53913C2.17512 13.1667 1.82602 13.0221 1.56862 12.7647C1.31123 12.5073 1.16663 12.1582 1.16663 11.7942V10.3725C1.16663 10.0085 1.31123 9.65939 1.56862 9.402C1.82602 9.1446 2.17512 9 2.53913 9H3.38746M10.3333 9L11.5358 12.9775L12.8333 9M7.78579 8.87333L6.99996 8.85667C6.71762 8.85153 6.44382 8.95356 6.23369 9.1422C6.02356 9.33083 5.8927 9.59208 5.86746 9.87333C5.84382 10.1591 5.93268 10.4427 6.11511 10.6639C6.29754 10.8851 6.55911 11.0263 6.84413 11.0575L7.29079 11.1067C7.46439 11.1021 7.63645 11.1402 7.79187 11.2177C7.94729 11.2951 8.08132 11.4096 8.1822 11.5509C8.28307 11.6923 8.3477 11.8562 8.37041 12.0284C8.39312 12.2006 8.37322 12.3757 8.31246 12.5383C8.14579 13.0142 7.78246 13.1667 7.19829 13.1667H6.25663" stroke="#E4E6F6" stroke-width="1.5" stroke-linecap="round" stroke-linejoin="round"/>
</svg>
