<svg width="22" height="22" viewBox="0 0 22 22" fill="none" xmlns="http://www.w3.org/2000/svg">
<path d="M6.0489 3.02539C5.90116 3.02547 5.75615 3.06522 5.62903 3.14049C5.5019 3.21576 5.39732 3.32379 5.3262 3.45329L2.3012 8.95329C2.22148 9.09836 2.18724 9.26405 2.20294 9.42884C2.21863 9.59363 2.28353 9.74988 2.3892 9.87729L10.3642 19.5023C10.4416 19.5957 10.5387 19.6709 10.6485 19.7225C10.7583 19.7741 10.8781 19.8009 10.9995 19.8009C11.1208 19.8009 11.2406 19.7741 11.3504 19.7225C11.4602 19.6709 11.5573 19.5957 11.6347 19.5023L19.6097 9.87729C19.7154 9.74988 19.7803 9.59363 19.796 9.42884C19.8117 9.26405 19.7774 9.09836 19.6977 8.95329L16.6727 3.45329C16.6015 3.32363 16.4967 3.21549 16.3694 3.14021C16.2421 3.06493 16.0968 3.02527 15.9489 3.02539H6.0489ZM4.5705 8.25039L6.5362 4.67539H8.1862L6.9344 8.25039H4.5705ZM6.7573 9.90039L8.8792 15.1232L4.5507 9.90039H6.7573ZM10.9868 15.9295L8.5382 9.90039H13.3628L10.9868 15.9295ZM8.6834 8.25039L9.9341 4.67539H12.0736L13.3903 8.25039H8.6834ZM15.1492 8.25039L13.8325 4.67539H15.4605L17.4273 8.25039H15.1492ZM15.136 9.90039H17.446L13.0405 15.2178L15.136 9.90039Z" fill="#AAB8FF"/>
</svg>
