<svg width="18" height="23" viewBox="0 0 18 23" fill="none" xmlns="http://www.w3.org/2000/svg">
<path d="M5 7.49976V9.49976H2V18.4998H16V9.49976H13V7.49976H16C16.5304 7.49976 17.0391 7.71047 17.4142 8.08555C17.7893 8.46062 18 8.96933 18 9.49976V18.4998C18 19.0302 17.7893 19.5389 17.4142 19.914C17.0391 20.289 16.5304 20.4998 16 20.4998H2C1.46957 20.4998 0.960859 20.289 0.585786 19.914C0.210714 19.5389 0 19.0302 0 18.4998V9.49976C0 8.96933 0.210714 8.46062 0.585786 8.08555C0.960859 7.71047 1.46957 7.49976 2 7.49976H5ZM9.884 0.968761L13.243 4.32676C13.4306 4.5144 13.5361 4.7689 13.5361 5.03426C13.5361 5.29962 13.4306 5.55412 13.243 5.74176C13.0554 5.9294 12.8009 6.03482 12.5355 6.03482C12.2701 6.03482 12.0156 5.9294 11.828 5.74176L10 3.91276V13.4998C10 13.765 9.89464 14.0193 9.70711 14.2069C9.51957 14.3944 9.26522 14.4998 9 14.4998C8.73478 14.4998 8.48043 14.3944 8.29289 14.2069C8.10536 14.0193 8 13.765 8 13.4998V3.91276L6.172 5.74176C6.07909 5.83467 5.96879 5.90837 5.8474 5.95865C5.726 6.00894 5.5959 6.03482 5.4645 6.03482C5.33311 6.03482 5.203 6.00894 5.0816 5.95865C4.96021 5.90837 4.84991 5.83467 4.757 5.74176C4.66409 5.64885 4.59039 5.53855 4.54011 5.41716C4.48982 5.29576 4.46394 5.16566 4.46394 5.03426C4.46394 4.90287 4.48982 4.77276 4.54011 4.65136C4.59039 4.52997 4.66409 4.41967 4.757 4.32676L8.117 0.968761C8.35139 0.734575 8.66917 0.603027 9.0005 0.603027C9.33183 0.603027 9.64961 0.734575 9.884 0.968761Z" fill="#E4E6F6"/>
</svg>
