<svg width="50" height="50" viewBox="0 0 50 50" fill="none" xmlns="http://www.w3.org/2000/svg">
<path d="M39.5837 27.0834C39.0311 27.0834 38.5012 27.3028 38.1105 27.6935C37.7198 28.0842 37.5003 28.6142 37.5003 29.1667V29.9584L34.417 26.875C33.3283 25.7949 31.8568 25.1888 30.3232 25.1888C28.7896 25.1888 27.3182 25.7949 26.2295 26.875L24.7712 28.3334L19.6045 23.1667C18.5006 22.1159 17.0348 21.5298 15.5107 21.5298C13.9866 21.5298 12.5209 22.1159 11.417 23.1667L8.33366 26.25V14.5834C8.33366 14.0308 8.55315 13.5009 8.94385 13.1102C9.33455 12.7195 9.86446 12.5 10.417 12.5H25.0003C25.5529 12.5 26.0828 12.2805 26.4735 11.8898C26.8642 11.4991 27.0837 10.9692 27.0837 10.4167C27.0837 9.86416 26.8642 9.33425 26.4735 8.94355C26.0828 8.55285 25.5529 8.33336 25.0003 8.33336H10.417C8.75939 8.33336 7.16968 8.99184 5.99757 10.1639C4.82547 11.336 4.16699 12.9258 4.16699 14.5834V39.5834C4.16699 41.241 4.82547 42.8307 5.99757 44.0028C7.16968 45.1749 8.75939 45.8334 10.417 45.8334H35.417C37.0746 45.8334 38.6643 45.1749 39.8364 44.0028C41.0085 42.8307 41.667 41.241 41.667 39.5834V29.1667C41.667 28.6142 41.4475 28.0842 41.0568 27.6935C40.6661 27.3028 40.1362 27.0834 39.5837 27.0834ZM10.417 41.6667C9.86446 41.6667 9.33455 41.4472 8.94385 41.0565C8.55315 40.6658 8.33366 40.1359 8.33366 39.5834V32.1459L14.3753 26.1042C14.6814 25.8125 15.088 25.6498 15.5107 25.6498C15.9335 25.6498 16.3401 25.8125 16.6462 26.1042L23.2503 32.7084L32.2087 41.6667H10.417ZM37.5003 39.5834C37.4959 39.9819 37.3645 40.3687 37.1253 40.6875L27.7295 31.25L29.1878 29.7917C29.3372 29.6392 29.5155 29.5181 29.7122 29.4355C29.909 29.3528 30.1202 29.3102 30.3337 29.3102C30.5471 29.3102 30.7583 29.3528 30.9551 29.4355C31.1518 29.5181 31.3301 29.6392 31.4795 29.7917L37.5003 35.8542V39.5834ZM47.3128 8.93753L41.0628 2.68753C40.8647 2.49786 40.631 2.34918 40.3753 2.25003C39.8681 2.04166 39.2992 2.04166 38.792 2.25003C38.5363 2.34918 38.3026 2.49786 38.1045 2.68753L31.8545 8.93753C31.4622 9.32983 31.2418 9.8619 31.2418 10.4167C31.2418 10.9715 31.4622 11.5036 31.8545 11.8959C32.2468 12.2882 32.7789 12.5085 33.3337 12.5085C33.8885 12.5085 34.4205 12.2882 34.8128 11.8959L37.5003 9.18753V20.8334C37.5003 21.3859 37.7198 21.9158 38.1105 22.3065C38.5012 22.6972 39.0311 22.9167 39.5837 22.9167C40.1362 22.9167 40.6661 22.6972 41.0568 22.3065C41.4475 21.9158 41.667 21.3859 41.667 20.8334V9.18753L44.3545 11.8959C44.5482 12.0911 44.7786 12.2461 45.0325 12.3519C45.2863 12.4576 45.5586 12.5121 45.8337 12.5121C46.1087 12.5121 46.381 12.4576 46.6349 12.3519C46.8887 12.2461 47.1191 12.0911 47.3128 11.8959C47.5081 11.7022 47.6631 11.4718 47.7688 11.2179C47.8746 10.964 47.9291 10.6917 47.9291 10.4167C47.9291 10.1417 47.8746 9.86936 47.7688 9.61549C47.6631 9.36162 47.5081 9.1312 47.3128 8.93753Z" fill="black"/>
</svg>
