<svg width="24" height="24" viewBox="0 0 24 24" fill="none" xmlns="http://www.w3.org/2000/svg">
<path d="M19.1459 5.76382C18.2751 4.88445 17.2379 4.1872 16.0949 3.71271C14.9518 3.23821 13.7258 2.99595 12.4882 3.00005C7.30254 3.00005 3.07616 7.22643 3.07616 12.4121C3.07616 14.0741 3.51305 15.6887 4.32983 17.1133L3.00018 21.995L7.98636 20.6844C9.3635 21.4347 10.9116 21.8336 12.4882 21.8336C17.6738 21.8336 21.9002 17.6072 21.9002 12.4216C21.9002 9.90472 20.9219 7.53985 19.1459 5.76382ZM12.4882 20.238C11.0825 20.238 9.70541 19.8581 8.49923 19.1458L8.2143 18.9748L5.25109 19.7536L6.03938 16.8664L5.84943 16.572C5.06831 15.325 4.65362 13.8835 4.65275 12.4121C4.65275 8.1002 8.16682 4.58613 12.4787 4.58613C14.5681 4.58613 16.5341 5.40292 18.0062 6.88452C18.7353 7.61 19.313 8.47302 19.7059 9.42351C20.0988 10.374 20.2991 11.3931 20.2951 12.4216C20.3141 16.7334 16.8 20.238 12.4882 20.238ZM16.781 14.3875C16.5436 14.2736 15.3849 13.7037 15.176 13.6182C14.9575 13.5423 14.8056 13.5043 14.6441 13.7322C14.4826 13.9696 14.0363 14.5015 13.9033 14.6535C13.7703 14.8149 13.6279 14.8339 13.3904 14.7105C13.153 14.5965 12.3932 14.3401 11.5004 13.5423C10.7976 12.9154 10.3322 12.1461 10.1898 11.9087C10.0568 11.6713 10.1708 11.5478 10.2943 11.4243C10.3987 11.3198 10.5317 11.1489 10.6457 11.0159C10.7596 10.883 10.8071 10.7785 10.8831 10.6265C10.9591 10.4651 10.9211 10.3321 10.8641 10.2181C10.8071 10.1042 10.3322 8.94548 10.1423 8.4706C9.95234 8.01472 9.7529 8.07171 9.61043 8.06221H9.15455C8.9931 8.06221 8.74616 8.1192 8.52772 8.35663C8.31878 8.59407 7.71094 9.16392 7.71094 10.3226C7.71094 11.4813 8.55621 12.602 8.67018 12.754C8.78415 12.9154 10.3322 15.2898 12.6876 16.306C13.248 16.553 13.6849 16.6954 14.0268 16.7999C14.5871 16.9804 15.1 16.9519 15.5084 16.8949C15.9643 16.8284 16.9045 16.325 17.0945 15.7742C17.2939 15.2233 17.2939 14.7579 17.2274 14.6535C17.1609 14.549 17.0185 14.5015 16.781 14.3875Z" fill="#FF8C01"/>
</svg>
