<svg width="18" height="18" viewBox="0 0 18 18" fill="none" xmlns="http://www.w3.org/2000/svg">
<path d="M1 14.3172V16.2596C1 16.4033 1.05707 16.541 1.15865 16.6426C1.26023 16.7442 1.39801 16.8013 1.54167 16.8013H3.48408C3.62747 16.8012 3.76499 16.7444 3.8665 16.6431L13.0748 7.43477L10.3665 4.72644L1.15817 13.9348C1.05691 14.0363 1.00003 14.1738 1 14.3172ZM12.4725 2.62044L15.1808 5.32877L16.4841 4.02552C16.6872 3.82236 16.8013 3.54686 16.8013 3.2596C16.8013 2.97234 16.6872 2.69684 16.4841 2.49369L15.3076 1.31718C15.1044 1.11409 14.8289 1 14.5417 1C14.2544 1 13.9789 1.11409 13.7757 1.31718L12.4725 2.62044Z" stroke="white" stroke-width="1.1"/>
</svg>
