<svg width="24" height="24" viewBox="0 0 24 24" fill="none" xmlns="http://www.w3.org/2000/svg">
<path d="M3 7.27778V5.38889C3 4.88792 3.19901 4.40748 3.55324 4.05324C3.90748 3.69901 4.38792 3.5 4.88889 3.5H6.77778M16.2222 3.5H18.1111C18.6121 3.5 19.0925 3.69901 19.4468 4.05324C19.801 4.40748 20 4.88792 20 5.38889V7.27778M20 16.7222V18.6111C20 19.1121 19.801 19.5925 19.4468 19.9468C19.0925 20.301 18.6121 20.5 18.1111 20.5H16.2222M6.77778 20.5H4.88889C4.38792 20.5 3.90748 20.301 3.55324 19.9468C3.19901 19.5925 3 19.1121 3 18.6111V16.7222M6.77778 12H16.2222" stroke="white" stroke-width="2" stroke-linecap="round" stroke-linejoin="round"/>
</svg>
