<svg width="18" height="19" viewBox="0 0 18 19" fill="none" xmlns="http://www.w3.org/2000/svg">
<path d="M9.0032 4.95296C9.0032 6.5278 7.72654 7.80446 6.1517 7.80446C4.57686 7.80446 3.3002 6.5278 3.3002 4.95296C3.3002 3.37812 4.57686 2.10146 6.1517 2.10146C7.72654 2.10146 9.0032 3.37812 9.0032 4.95296Z" stroke="white" stroke-width="1.2"/>
<path d="M11.7003 12.8267C11.7003 13.8106 11.668 14.3434 11.1714 14.7478C10.9 14.9689 10.442 15.188 9.65 15.3483C8.86069 15.5081 7.77967 15.6017 6.30029 15.6017C4.82092 15.6017 3.73989 15.5081 2.95059 15.3483C2.15863 15.188 1.7006 14.9689 1.42917 14.7478C0.93254 14.3434 0.900293 13.8106 0.900293 12.8267C0.900293 12.2079 1.35264 11.5253 2.35189 10.9632C3.33231 10.4117 4.72709 10.0517 6.30029 10.0517C7.87349 10.0517 9.26828 10.4117 10.2487 10.9632C11.2479 11.5253 11.7003 12.2079 11.7003 12.8267Z" stroke="white" stroke-width="1.2"/>
<path d="M12.8133 15.0014H15.7498C15.8396 15.0014 15.9892 15.0014 16.1648 15.0014C16.7313 15.0014 17.3158 14.6679 17.3158 14.1014V14.1014V13.2014C17.3158 12.4853 17.0312 11.7985 16.5246 11.2922C16.0179 10.7858 15.3308 10.5014 14.6143 10.5014H12.8133M10.7998 6.90137C11.1646 7.30894 11.6445 7.59622 12.1762 7.72519C12.7079 7.85416 13.2662 7.81875 13.7773 7.62363C14.2884 7.42852 14.7282 7.0829 15.0385 6.63251C15.3487 6.18212 15.5149 5.64819 15.5149 5.10137C15.5149 4.55455 15.3487 4.02062 15.0385 3.57023C14.7282 3.11984 14.2884 2.77422 13.7773 2.5791C13.2662 2.38399 12.7079 2.34857 12.1762 2.47754C11.6445 2.60651 11.1646 2.89379 10.7998 3.30137" stroke="white" stroke-width="1.2" stroke-linecap="round"/>
</svg>
