<svg width="26" height="26" viewBox="0 0 26 26" fill="none" xmlns="http://www.w3.org/2000/svg">
<path d="M8.25002 21.6667C7.76468 21.6667 7.35157 21.4962 7.01068 21.1554C6.66979 20.8145 6.49935 20.4017 6.49935 19.9171V6.50002H5.41602V5.41669H9.74935V4.58252H16.2493V5.41669H20.5827V6.50002H19.4993V19.9171C19.4993 20.4154 19.3325 20.8318 18.9988 21.1662C18.6652 21.5006 18.2485 21.6674 17.7487 21.6667H8.25002ZM18.416 6.50002H7.58268V19.9171C7.58268 20.1114 7.64515 20.271 7.7701 20.3959C7.89504 20.5209 8.05502 20.5834 8.25002 20.5834H17.7498C17.9159 20.5834 18.0686 20.514 18.208 20.3754C18.3474 20.2367 18.4167 20.0836 18.416 19.916V6.50002ZM10.6247 18.4167H11.708V8.66669H10.6247V18.4167ZM14.2907 18.4167H15.374V8.66669H14.2907V18.4167Z" fill="#F4F4F4"/>
</svg>
