<svg width="21" height="20" viewBox="0 0 21 20" fill="none" xmlns="http://www.w3.org/2000/svg">
<mask id="path-1-inside-1_1357_4680" fill="white">
<path d="M0 0H20V20H0V0Z"/>
</mask>
<path d="M20 18.5H0V21.5H20V18.5Z" fill="#03053D" mask="url(#path-1-inside-1_1357_4680)"/>
<path d="M5.056 16.112C4.23467 16.112 3.49867 15.9787 2.848 15.712C2.19733 15.4453 1.67467 15.0507 1.28 14.528C0.896 14.0053 0.693333 13.376 0.672 12.64H3.584C3.62667 13.056 3.77067 13.376 4.016 13.6C4.26133 13.8133 4.58133 13.92 4.976 13.92C5.38133 13.92 5.70133 13.8293 5.936 13.648C6.17067 13.456 6.288 13.1947 6.288 12.864C6.288 12.5867 6.192 12.3573 6 12.176C5.81867 11.9947 5.58933 11.8453 5.312 11.728C5.04533 11.6107 4.66133 11.4773 4.16 11.328C3.43467 11.104 2.84267 10.88 2.384 10.656C1.92533 10.432 1.53067 10.1013 1.2 9.664C0.869333 9.22667 0.704 8.656 0.704 7.952C0.704 6.90667 1.08267 6.09067 1.84 5.504C2.59733 4.90667 3.584 4.608 4.8 4.608C6.03733 4.608 7.03467 4.90667 7.792 5.504C8.54933 6.09067 8.95467 6.912 9.008 7.968H6.048C6.02667 7.60533 5.89333 7.32267 5.648 7.12C5.40267 6.90667 5.088 6.8 4.704 6.8C4.37333 6.8 4.10667 6.89067 3.904 7.072C3.70133 7.24267 3.6 7.49333 3.6 7.824C3.6 8.18667 3.77067 8.46933 4.112 8.672C4.45333 8.87467 4.98667 9.09333 5.712 9.328C6.43733 9.57333 7.024 9.808 7.472 10.032C7.93067 10.256 8.32533 10.5813 8.656 11.008C8.98667 11.4347 9.152 11.984 9.152 12.656C9.152 13.296 8.98667 13.8773 8.656 14.4C8.336 14.9227 7.86667 15.3387 7.248 15.648C6.62933 15.9573 5.89867 16.112 5.056 16.112ZM17.9557 10.24C18.6064 10.3787 19.1291 10.704 19.5238 11.216C19.9184 11.7173 20.1158 12.2933 20.1158 12.944C20.1158 13.8827 19.7851 14.6293 19.1237 15.184C18.4731 15.728 17.5611 16 16.3878 16H11.1557V4.768H16.2118C17.3531 4.768 18.2437 5.02933 18.8837 5.552C19.5344 6.07467 19.8597 6.784 19.8597 7.68C19.8597 8.34133 19.6837 8.89067 19.3317 9.328C18.9904 9.76533 18.5317 10.0693 17.9557 10.24ZM13.8917 9.312H15.6838C16.1318 9.312 16.4731 9.216 16.7077 9.024C16.9531 8.82133 17.0757 8.528 17.0757 8.144C17.0757 7.76 16.9531 7.46667 16.7077 7.264C16.4731 7.06133 16.1318 6.96 15.6838 6.96H13.8917V9.312ZM15.9078 13.792C16.3664 13.792 16.7184 13.6907 16.9637 13.488C17.2198 13.2747 17.3478 12.9707 17.3478 12.576C17.3478 12.1813 17.2144 11.872 16.9478 11.648C16.6917 11.424 16.3344 11.312 15.8758 11.312H13.8917V13.792H15.9078Z" fill="#03053D"/>
</svg>
