<svg width="24" height="24" viewBox="0 0 24 24" fill="none" xmlns="http://www.w3.org/2000/svg">
<path d="M6.65625 8.71875H7.278C7.39196 9.16071 7.56743 9.58447 7.79925 9.97763L7.3605 10.4164C7.23814 10.5398 7.1695 10.7066 7.1695 10.8804C7.1695 11.0543 7.23814 11.221 7.3605 11.3445L8.1555 12.1395C8.28041 12.2589 8.44656 12.3256 8.61938 12.3256C8.79219 12.3256 8.95834 12.2589 9.08325 12.1395L9.522 11.7007C9.91527 11.9326 10.3392 12.1081 10.7812 12.222V12.8438C10.7814 13.0177 10.8507 13.1845 10.9737 13.3076C11.0967 13.4306 11.2635 13.4998 11.4375 13.5H12.5625C12.7365 13.4998 12.9033 13.4306 13.0263 13.3076C13.1493 13.1845 13.2186 13.0177 13.2188 12.8438V12.222C13.6607 12.108 14.0845 11.9326 14.4776 11.7007L14.9164 12.1395C15.0413 12.259 15.2075 12.3258 15.3804 12.3258C15.5533 12.3258 15.7196 12.259 15.8445 12.1395L16.6395 11.3445C16.7617 11.2211 16.8303 11.0544 16.8303 10.8806C16.8303 10.7069 16.7617 10.5402 16.6395 10.4167L16.2007 9.978C16.4326 9.58473 16.6081 9.16084 16.722 8.71875H17.3438C17.5177 8.71855 17.6845 8.64935 17.8076 8.52632C17.9306 8.40329 17.9998 8.23649 18 8.0625V6.9375C17.9998 6.76351 17.9306 6.59671 17.8076 6.47368C17.6845 6.35065 17.5177 6.28145 17.3438 6.28125H16.722C16.608 5.83929 16.4326 5.41553 16.2007 5.02237L16.6395 4.58362C16.7619 4.46017 16.8305 4.29338 16.8305 4.11956C16.8305 3.94574 16.7619 3.77896 16.6395 3.6555L15.8445 2.8605C15.7195 2.74125 15.5534 2.67471 15.3806 2.67471C15.2079 2.67471 15.0417 2.74125 14.9167 2.8605L14.478 3.29925C14.0847 3.06739 13.6608 2.89193 13.2188 2.778V2.15625C13.2186 1.98226 13.1493 1.81546 13.0263 1.69243C12.9033 1.5694 12.7365 1.5002 12.5625 1.5H11.4375C11.2635 1.5002 11.0967 1.5694 10.9737 1.69243C10.8507 1.81546 10.7814 1.98226 10.7812 2.15625V2.778C10.3393 2.89196 9.91553 3.06743 9.52237 3.29925L9.08362 2.8605C8.95861 2.74114 8.79241 2.67454 8.61956 2.67454C8.44672 2.67454 8.28051 2.74114 8.1555 2.8605L7.3605 3.6555C7.23826 3.77894 7.16968 3.94565 7.16968 4.11937C7.16968 4.2931 7.23826 4.45981 7.3605 4.58325L7.79925 5.022C7.56739 5.41527 7.39193 5.83916 7.278 6.28125H6.65625C6.48226 6.28145 6.31546 6.35065 6.19243 6.47368C6.0694 6.59671 6.0002 6.76351 6 6.9375V8.0625C6.0002 8.23649 6.0694 8.40329 6.19243 8.52632C6.31546 8.64935 6.48226 8.71855 6.65625 8.71875ZM6.75 7.03125H7.35225C7.50036 7.03083 7.644 6.98043 7.7599 6.88821C7.8758 6.79599 7.95718 6.66735 7.99088 6.52313C8.09116 6.1105 8.25458 5.71585 8.47537 5.35312C8.55296 5.22742 8.58594 5.07924 8.569 4.93249C8.55206 4.78574 8.48618 4.64898 8.382 4.54425L7.95712 4.11937L8.61938 3.45712L9.04388 3.882C9.14859 3.98618 9.28533 4.05209 9.43206 4.06909C9.57879 4.0861 9.72698 4.05322 9.85275 3.97575C10.2155 3.75485 10.6101 3.59129 11.0227 3.49088C11.167 3.45726 11.2958 3.3759 11.3881 3.25999C11.4804 3.14409 11.5308 3.00041 11.5312 2.85225V2.25H12.4688V2.85225C12.4692 3.00036 12.5196 3.144 12.6118 3.2599C12.704 3.3758 12.8326 3.45718 12.9769 3.49088C13.3895 3.59116 13.7842 3.75458 14.1469 3.97537C14.2726 4.05296 14.4208 4.08594 14.5675 4.069C14.7143 4.05206 14.851 3.98618 14.9557 3.882L15.3806 3.45712L16.0429 4.11937L15.618 4.54387C15.5138 4.64859 15.4479 4.78533 15.4309 4.93206C15.4139 5.07879 15.4468 5.22698 15.5242 5.35275C15.7452 5.71546 15.9087 6.11011 16.0091 6.52275C16.0427 6.66705 16.1241 6.79577 16.24 6.88806C16.3559 6.98035 16.4996 7.03081 16.6478 7.03125H17.25V7.96875H16.6478C16.4996 7.96917 16.356 8.01957 16.2401 8.11179C16.1242 8.20401 16.0428 8.33265 16.0091 8.47687C15.9088 8.8895 15.7454 9.28415 15.5246 9.64688C15.447 9.77258 15.4141 9.92076 15.431 10.0675C15.4479 10.2143 15.5138 10.351 15.618 10.4557L16.0429 10.8806L15.3806 11.5429L14.9561 11.118C14.8514 11.0138 14.7147 10.9478 14.568 10.9308C14.4212 10.9138 14.273 10.9467 14.1473 11.0243C13.7845 11.2452 13.3899 11.4087 12.9772 11.5091C12.833 11.5427 12.7042 11.6241 12.6119 11.74C12.5196 11.8559 12.4692 11.9996 12.4688 12.1478V12.75H11.5312V12.1478C11.5308 11.9996 11.4804 11.856 11.3882 11.7401C11.296 11.6242 11.1674 11.5428 11.0231 11.5091C10.6105 11.4088 10.2158 11.2454 9.85312 11.0246C9.72737 10.9472 9.57923 10.9143 9.43251 10.9312C9.2858 10.9481 9.14905 11.0139 9.04425 11.118L8.61938 11.5429L7.95712 10.8806L8.382 10.4561C8.48618 10.3514 8.55209 10.2147 8.56909 10.0679C8.5861 9.92121 8.55322 9.77302 8.47575 9.64725C8.25484 9.28454 8.09129 8.88989 7.99088 8.47725C7.95726 8.33295 7.8759 8.20423 7.75999 8.11194C7.64409 8.01965 7.50041 7.96919 7.35225 7.96875H6.75V7.03125Z" fill="white"/>
<path d="M12 10.5001C12.7953 10.4991 13.5578 10.1827 14.1202 9.62033C14.6826 9.05794 14.999 8.29545 15 7.50011C14.835 3.52023 9.16425 3.52136 9 7.50011C9.00099 8.29545 9.31738 9.05794 9.87978 9.62033C10.4422 10.1827 11.2047 10.4991 12 10.5001ZM12 5.25011C12.5965 5.2508 13.1684 5.48808 13.5902 5.90989C14.012 6.33169 14.2493 6.90359 14.25 7.50011C14.1446 10.478 9.855 10.4776 9.75 7.50011C9.75069 6.90359 9.98797 6.33169 10.4098 5.90989C10.8316 5.48808 11.4035 5.2508 12 5.25011ZM18.8914 18.2487C19.17 17.9935 19.3651 17.6601 19.4509 17.2921C19.5368 16.9242 19.5095 16.5388 19.3726 16.1867C19.2357 15.8345 18.9956 15.5319 18.6837 15.3185C18.3719 15.1052 18.0029 14.991 17.625 14.991C17.2471 14.991 16.8781 15.1052 16.5663 15.3185C16.2544 15.5319 16.0143 15.8345 15.8774 16.1867C15.7405 16.5388 15.7132 16.9242 15.7991 17.2921C15.8849 17.6601 16.08 17.9935 16.3586 18.2487C15.8528 18.4549 15.4043 18.7802 15.0514 19.1971C14.6953 18.4241 14.0577 17.8161 13.2686 17.4972C13.5467 17.2418 13.7411 16.9083 13.8265 16.5405C13.9118 16.1727 13.8841 15.7876 13.747 15.4358C13.61 15.084 13.3698 14.7817 13.0581 14.5687C12.7464 14.3556 12.3776 14.2416 12 14.2416C11.6224 14.2416 11.2536 14.3556 10.9419 14.5687C10.6302 14.7817 10.39 15.084 10.253 15.4358C10.1159 15.7876 10.0882 16.1727 10.1735 16.5405C10.2589 16.9083 10.4533 17.2418 10.7314 17.4972C9.9423 17.8161 9.30467 18.4241 8.94863 19.1971C8.59568 18.7802 8.14719 18.4549 7.64138 18.2487C7.92002 17.9935 8.11506 17.6601 8.20094 17.2921C8.28681 16.9242 8.2595 16.5388 8.1226 16.1867C7.9857 15.8345 7.74559 15.5319 7.43374 15.3185C7.12189 15.1052 6.75285 14.991 6.375 14.991C5.99715 14.991 5.62811 15.1052 5.31626 15.3185C5.00441 15.5319 4.7643 15.8345 4.6274 16.1867C4.4905 16.5388 4.46319 16.9242 4.54906 17.2921C4.63494 17.6601 4.82998 17.9935 5.10863 18.2487C4.4862 18.5012 3.95316 18.9335 3.57758 19.4904C3.20199 20.0472 3.00091 20.7034 3 21.3751C3.0003 21.6734 3.11892 21.9594 3.32983 22.1703C3.54075 22.3812 3.82672 22.4998 4.125 22.5001H8.625C8.85842 22.4994 9.08582 22.4259 9.27555 22.29C9.46528 22.154 9.60792 21.9623 9.68362 21.7415C9.70612 21.743 9.7275 21.7501 9.75 21.7501H14.25C14.2725 21.7501 14.2939 21.7426 14.3164 21.7415C14.3921 21.9623 14.5347 22.154 14.7245 22.29C14.9142 22.4259 15.1416 22.4994 15.375 22.5001H19.875C20.1733 22.4998 20.4593 22.3812 20.6702 22.1703C20.8811 21.9594 20.9997 21.6734 21 21.3751C20.9991 20.7034 20.798 20.0472 20.4224 19.4904C20.0468 18.9335 19.5138 18.5012 18.8914 18.2487ZM16.5 16.8751C16.5 16.5767 16.6185 16.2906 16.8295 16.0796C17.0405 15.8686 17.3266 15.7501 17.625 15.7501C17.9234 15.7501 18.2095 15.8686 18.4205 16.0796C18.6315 16.2906 18.75 16.5767 18.75 16.8751C18.75 17.1735 18.6315 17.4596 18.4205 17.6706C18.2095 17.8816 17.9234 18.0001 17.625 18.0001C17.3266 18.0001 17.0405 17.8816 16.8295 17.6706C16.6185 17.4596 16.5 17.1735 16.5 16.8751ZM10.875 16.1251C10.875 15.8267 10.9935 15.5406 11.2045 15.3296C11.4155 15.1186 11.7016 15.0001 12 15.0001C12.2984 15.0001 12.5845 15.1186 12.7955 15.3296C13.0065 15.5406 13.125 15.8267 13.125 16.1251C13.125 16.4235 13.0065 16.7096 12.7955 16.9206C12.5845 17.1316 12.2984 17.2501 12 17.2501C11.7016 17.2501 11.4155 17.1316 11.2045 16.9206C10.9935 16.7096 10.875 16.4235 10.875 16.1251ZM5.25 16.8751C5.25 16.5767 5.36853 16.2906 5.5795 16.0796C5.79048 15.8686 6.07663 15.7501 6.375 15.7501C6.67337 15.7501 6.95952 15.8686 7.1705 16.0796C7.38147 16.2906 7.5 16.5767 7.5 16.8751C7.5 17.1735 7.38147 17.4596 7.1705 17.6706C6.95952 17.8816 6.67337 18.0001 6.375 18.0001C6.07663 18.0001 5.79048 17.8816 5.5795 17.6706C5.36853 17.4596 5.25 17.1735 5.25 16.8751ZM8.625 21.7501H4.125C4.02557 21.75 3.93025 21.7105 3.85994 21.6402C3.78964 21.5699 3.7501 21.4745 3.75 21.3751C3.75 20.6789 4.02656 20.0112 4.51884 19.519C5.01113 19.0267 5.67881 18.7501 6.375 18.7501C7.07119 18.7501 7.73887 19.0267 8.23116 19.519C8.72344 20.0112 9 20.6789 9 21.3751C8.9999 21.4745 8.96036 21.5699 8.89006 21.6402C8.81975 21.7105 8.72443 21.75 8.625 21.7501ZM9.75 21.0001C9.68276 20.6581 9.58358 20.3231 9.45375 19.9996C9.59167 19.4282 9.91778 18.9198 10.3796 18.5562C10.8415 18.1926 11.4122 17.9948 12 17.9948C12.5878 17.9948 13.1585 18.1926 13.6204 18.5562C14.0822 18.9198 14.4083 19.4282 14.5463 19.9996C14.4166 20.3232 14.3174 20.6581 14.25 21.0001H9.75ZM19.875 21.7501H15.375C15.2756 21.75 15.1802 21.7105 15.1099 21.6402C15.0396 21.5699 15.0001 21.4745 15 21.3751C15 20.6789 15.2766 20.0112 15.7688 19.519C16.2611 19.0267 16.9288 18.7501 17.625 18.7501C18.3212 18.7501 18.9889 19.0267 19.4812 19.519C19.9734 20.0112 20.25 20.6789 20.25 21.3751C20.2499 21.4745 20.2104 21.5699 20.1401 21.6402C20.0698 21.7105 19.9744 21.75 19.875 21.7501Z" fill="white"/>
</svg>
