<svg width="24" height="24" viewBox="0 0 24 24" fill="none" xmlns="http://www.w3.org/2000/svg">
<path d="M10.5 12H13.5M12.1071 13.5V10.5M5.5 4H8.125C8.32198 4 8.51704 4.0388 8.69903 4.11418C8.88101 4.18956 9.04637 4.30005 9.18566 4.43934C9.32495 4.57863 9.43544 4.74399 9.51082 4.92597C9.5862 5.10796 9.625 5.30302 9.625 5.5V8.125C9.625 8.32198 9.5862 8.51704 9.51082 8.69903C9.43544 8.88101 9.32495 9.04637 9.18566 9.18566C9.04637 9.32495 8.88101 9.43544 8.69903 9.51082C8.51704 9.5862 8.32198 9.625 8.125 9.625H5.5C5.10218 9.625 4.72064 9.46696 4.43934 9.18566C4.15804 8.90436 4 8.52282 4 8.125V5.5C4 5.10218 4.15804 4.72064 4.43934 4.43934C4.72064 4.15804 5.10218 4 5.5 4ZM5.5 13.375H8.125C8.52282 13.375 8.90436 13.533 9.18566 13.8143C9.46696 14.0956 9.625 14.4772 9.625 14.875V17.5C9.625 17.8978 9.46696 18.2794 9.18566 18.5607C8.90436 18.842 8.52282 19 8.125 19H5.5C5.10218 19 4.72064 18.842 4.43934 18.5607C4.15804 18.2794 4 17.8978 4 17.5V14.875C4 14.4772 4.15804 14.0956 4.43934 13.8143C4.72064 13.533 5.10218 13.375 5.5 13.375ZM14.875 4H17.5C17.8978 4 18.2794 4.15804 18.5607 4.43934C18.842 4.72064 19 5.10218 19 5.5V8.125C19 8.52282 18.842 8.90436 18.5607 9.18566C18.2794 9.46696 17.8978 9.625 17.5 9.625H14.875C14.4772 9.625 14.0956 9.46696 13.8143 9.18566C13.533 8.90436 13.375 8.52282 13.375 8.125V5.5C13.375 5.10218 13.533 4.72064 13.8143 4.43934C14.0956 4.15804 14.4772 4 14.875 4Z" stroke="white" stroke-miterlimit="10" stroke-linecap="round" stroke-linejoin="round"/>
<g clip-path="url(#clip0_1687_3766)">
<path d="M18.51 17.0274L18.157 16.7256C18.1737 16.6233 18.1824 16.5187 18.1824 16.4142C18.1824 16.3097 18.1737 16.2051 18.157 16.1028L18.51 15.801C18.5366 15.7782 18.5556 15.7479 18.5646 15.714C18.5735 15.6801 18.572 15.6443 18.5601 15.6114L18.5552 15.5973C18.4581 15.3258 18.3126 15.0741 18.1258 14.8543L18.1161 14.843C18.0934 14.8163 18.0632 14.7972 18.0295 14.7881C17.9957 14.7789 17.96 14.7802 17.927 14.7918L17.4889 14.9475C17.3272 14.815 17.1467 14.7104 16.9517 14.6372L16.8671 14.1792C16.8607 14.1447 16.844 14.113 16.8192 14.0883C16.7943 14.0635 16.7626 14.0469 16.7281 14.0407L16.7135 14.038C16.4328 13.9873 16.1375 13.9873 15.8568 14.038L15.8422 14.0407C15.8078 14.0469 15.776 14.0635 15.7512 14.0883C15.7263 14.113 15.7096 14.1447 15.7032 14.1792L15.6181 14.6393C15.4246 14.7126 15.2444 14.8171 15.0847 14.9486L14.6434 14.7918C14.6104 14.7801 14.5746 14.7788 14.5408 14.7879C14.507 14.7971 14.4768 14.8163 14.4542 14.843L14.4445 14.8543C14.258 15.0742 14.1125 15.3259 14.0151 15.5973L14.0102 15.6114C13.986 15.6787 14.0059 15.7541 14.0603 15.801L14.4176 16.106C14.4009 16.2073 14.3928 16.3108 14.3928 16.4137C14.3928 16.5171 14.4009 16.6206 14.4176 16.7213L14.0603 17.0263C14.0337 17.0491 14.0147 17.0795 14.0057 17.1133C13.9968 17.1472 13.9983 17.183 14.0102 17.216L14.0151 17.23C14.1126 17.5016 14.257 17.7521 14.4445 17.973L14.4542 17.9843C14.4769 18.011 14.5071 18.0301 14.5409 18.0393C14.5746 18.0484 14.6104 18.0471 14.6434 18.0355L15.0847 17.8787C15.2452 18.0107 15.4247 18.1153 15.6181 18.188L15.7032 18.6482C15.7096 18.6826 15.7263 18.7143 15.7512 18.7391C15.776 18.7638 15.8078 18.7804 15.8422 18.7867L15.8568 18.7893C16.1401 18.8403 16.4302 18.8403 16.7135 18.7893L16.7281 18.7867C16.7626 18.7804 16.7943 18.7638 16.8192 18.7391C16.844 18.7143 16.8607 18.6826 16.8671 18.6482L16.9517 18.1902C17.1467 18.1171 17.3282 18.0122 17.4889 17.8798L17.927 18.0355C17.96 18.0472 17.9957 18.0486 18.0295 18.0394C18.0633 18.0303 18.0935 18.0111 18.1161 17.9843L18.1258 17.973C18.3133 17.7516 18.4577 17.5016 18.5552 17.23L18.5601 17.216C18.5843 17.1497 18.5644 17.0743 18.51 17.0274ZM17.7745 16.1663C17.7879 16.2477 17.7949 16.3312 17.7949 16.4147C17.7949 16.4983 17.7879 16.5818 17.7745 16.6631L17.7389 16.8792L18.1414 17.2235C18.0804 17.3641 18.0034 17.4972 17.9119 17.6201L17.4118 17.4428L17.2426 17.5818C17.1139 17.6874 16.9705 17.7704 16.8154 17.8286L16.6101 17.9057L16.5136 18.4283C16.3614 18.4456 16.2078 18.4456 16.0556 18.4283L15.9592 17.9046L15.7555 17.8265C15.6019 17.7683 15.4591 17.6853 15.3314 17.5802L15.1622 17.4407L14.659 17.6196C14.5674 17.4962 14.4909 17.3631 14.4294 17.223L14.8363 16.8754L14.8012 16.6599C14.7883 16.5796 14.7813 16.4966 14.7813 16.4147C14.7813 16.3323 14.7878 16.2499 14.8012 16.1696L14.8363 15.954L14.4294 15.6065C14.4903 15.4659 14.5674 15.3333 14.659 15.2099L15.1622 15.3888L15.3314 15.2493C15.4591 15.1442 15.6019 15.0612 15.7555 15.003L15.9597 14.926L16.0562 14.4022C16.2076 14.385 16.3622 14.385 16.5142 14.4022L16.6106 14.9249L16.8159 15.0019C16.9705 15.0601 17.1144 15.1431 17.2432 15.2487L17.4124 15.3877L17.9124 15.2105C18.004 15.3339 18.0805 15.467 18.1419 15.607L17.7394 15.9514L17.7745 16.1663ZM16.2857 15.4125C15.762 15.4125 15.3374 15.8371 15.3374 16.3609C15.3374 16.8846 15.762 17.3092 16.2857 17.3092C16.8094 17.3092 17.234 16.8846 17.234 16.3609C17.234 15.8371 16.8094 15.4125 16.2857 15.4125ZM16.7124 16.7876C16.6565 16.8437 16.59 16.8883 16.5167 16.9186C16.4435 16.9489 16.365 16.9645 16.2857 16.9643C16.1246 16.9643 15.9732 16.9013 15.8589 16.7876C15.8028 16.7316 15.7583 16.6651 15.728 16.5919C15.6976 16.5186 15.6821 16.4401 15.6822 16.3609C15.6822 16.1998 15.7453 16.0483 15.8589 15.9341C15.9732 15.8199 16.1246 15.7574 16.2857 15.7574C16.4468 15.7574 16.5982 15.8199 16.7124 15.9341C16.7686 15.9901 16.8131 16.0566 16.8434 16.1298C16.8738 16.2031 16.8893 16.2816 16.8892 16.3609C16.8892 16.522 16.8261 16.6734 16.7124 16.7876Z" fill="white"/>
</g>
<defs>
<clipPath id="clip0_1687_3766">
<rect width="5" height="5" fill="white" transform="translate(14 14)"/>
</clipPath>
</defs>
</svg>
