<svg width="24" height="24" viewBox="0 0 24 24" fill="none" xmlns="http://www.w3.org/2000/svg">
<g clip-path="url(#clip0_647_4978)">
<path d="M15.5781 5.60767C15.5781 7.58381 13.9761 9.18579 12 9.18579C10.0239 9.18579 8.42188 7.58381 8.42188 5.60767C8.42188 3.63152 10.0239 2.02954 12 2.02954C13.9761 2.02954 15.5781 3.63152 15.5781 5.60767Z" stroke="white"/>
<path d="M22.3281 7.10767C22.3281 8.25538 21.3977 9.18579 20.25 9.18579C19.1023 9.18579 18.1719 8.25538 18.1719 7.10767C18.1719 5.95995 19.1023 5.02954 20.25 5.02954C21.3977 5.02954 22.3281 5.95995 22.3281 7.10767Z" stroke="white"/>
<path d="M5.82812 7.10767C5.82812 8.25538 4.89772 9.18579 3.75 9.18579C2.60228 9.18579 1.67188 8.25538 1.67188 7.10767C1.67188 5.95995 2.60228 5.02954 3.75 5.02954C4.89772 5.02954 5.82812 5.95995 5.82812 7.10767Z" stroke="white"/>
<path d="M3.18281 11.7795C3.31128 11.7795 3.4341 11.7785 3.552 11.7776C4.36391 11.7713 4.94306 11.7668 5.53352 12.088C3.65736 14.2943 3.70008 16.6736 3.74931 19.4158C3.75536 19.7529 3.76152 20.0955 3.76421 20.444C3.6134 20.4442 3.41667 20.4431 3.15927 20.4415C2.74414 20.4391 2.17121 20.4357 1.37859 20.4357C0.892648 20.4357 0.5 20.0419 0.5 19.5623V14.4431C0.5 12.9778 1.70111 11.7795 3.18281 11.7795Z" stroke="white"/>
<path d="M13.0747 11.7965L13.0954 11.7982H13.1162C14.1216 11.7982 15.3041 12.3072 16.2421 13.2297C17.1721 14.1444 17.8283 15.4338 17.8283 16.9523C17.8283 17.8681 17.8307 18.5749 17.8327 19.1259C17.8352 19.8462 17.8368 20.3 17.8307 20.6055C17.8253 20.8763 17.814 20.994 17.8007 21.0628C17.7905 21.1154 17.7799 21.1423 17.7317 21.2523C17.5958 21.5529 17.5168 21.6493 17.3897 21.7202C17.2239 21.8127 16.9127 21.8927 16.2122 21.9338C15.3689 21.9832 14.1046 21.9734 12.1287 21.958C10.8486 21.948 9.26993 21.9357 7.31357 21.9357C6.68117 21.9357 6.17201 21.4183 6.17201 20.7942C6.17201 20.2804 6.16155 19.792 6.15155 19.3248C6.12737 18.1963 6.10586 17.1919 6.24092 16.2527C6.42454 14.9758 6.89436 13.8934 8.06116 12.9588L8.06119 12.9588L8.06686 12.9542C9.45247 11.8104 11.071 11.6294 13.0747 11.7965ZM18.4673 12.0875C19.0564 11.7671 19.634 11.7715 20.4494 11.7777C20.5669 11.7786 20.6893 11.7795 20.8173 11.7795C22.299 11.7795 23.5001 12.9778 23.5001 14.4431V19.5135C23.5001 20.0198 23.0855 20.4357 22.5723 20.4357C21.8018 20.4357 21.2437 20.4392 20.8381 20.4418C20.5812 20.4434 20.3855 20.4446 20.2357 20.4443C20.2382 20.0787 20.244 19.7226 20.2496 19.3751C20.2957 16.5347 20.3324 14.2691 18.4673 12.0875Z" stroke="white"/>
</g>
<defs>
<clipPath id="clip0_647_4978">
<rect width="24" height="24" fill="white"/>
</clipPath>
</defs>
</svg>
