<svg width="24" height="24" viewBox="0 0 24 24" fill="none" xmlns="http://www.w3.org/2000/svg">
<path fill-rule="evenodd" clip-rule="evenodd" d="M3.8534 0.733398H3.76673C3.3698 0.733398 3.02833 0.733398 2.72673 0.804465C2.25983 0.916031 1.83294 1.15468 1.49334 1.49397C1.15375 1.83325 0.914718 2.25994 0.802732 2.72673C0.733398 3.02833 0.733398 3.36806 0.733398 3.76673V8.10006C0.733398 8.497 0.733398 8.83846 0.804465 9.14006C0.916031 9.60696 1.15468 10.0339 1.49397 10.3735C1.83325 10.713 2.25994 10.9521 2.72673 11.0641C3.02833 11.1334 3.36807 11.1334 3.76673 11.1334H8.10007C8.497 11.1334 8.83846 11.1334 9.14007 11.0623C9.60696 10.9508 10.0339 10.7121 10.3735 10.3728C10.713 10.0335 10.9521 9.60686 11.0641 9.14006C11.1334 8.83846 11.1334 8.49873 11.1334 8.10006V3.76673C11.1334 3.3698 11.1334 3.02833 11.0623 2.72673C10.9508 2.25983 10.7121 1.83294 10.3728 1.49334C10.0335 1.15375 9.60686 0.914718 9.14007 0.802732C8.83846 0.733398 8.49873 0.733398 8.10007 0.733398H8.0134H3.8534ZM3.1306 2.491C3.20513 2.47366 3.32126 2.46673 3.8534 2.46673H8.0134C8.54727 2.46673 8.66167 2.47193 8.7362 2.491C8.8919 2.52823 9.03425 2.60787 9.14746 2.72107C9.26066 2.83428 9.3403 2.97663 9.37753 3.13233C9.39487 3.20513 9.40007 3.31953 9.40007 3.8534V8.0134C9.40007 8.54726 9.39487 8.66166 9.3758 8.7362C9.33856 8.8919 9.25893 9.03425 9.14572 9.14746C9.03252 9.26066 8.89017 9.3403 8.73447 9.37753C8.6634 9.39313 8.549 9.40006 8.0134 9.40006H3.8534C3.31953 9.40006 3.20513 9.39487 3.1306 9.3758C2.97489 9.33856 2.83254 9.25893 2.71934 9.14572C2.60614 9.03252 2.5265 8.89017 2.48927 8.73446C2.47367 8.6634 2.46673 8.549 2.46673 8.0134V3.8534C2.46673 3.31953 2.47193 3.20513 2.491 3.1306C2.52823 2.97489 2.60787 2.83254 2.72107 2.71934C2.83428 2.60614 2.97663 2.5265 3.13233 2.48926M15.9867 0.733398H15.9001C15.5031 0.733398 15.1617 0.733398 14.8601 0.804465C14.3932 0.916031 13.9663 1.15468 13.6267 1.49397C13.2871 1.83325 13.0481 2.25994 12.9361 2.72673C12.8667 3.02833 12.8667 3.36806 12.8667 3.76673V8.10006C12.8667 8.497 12.8667 8.83846 12.9378 9.14006C13.0494 9.60696 13.288 10.0339 13.6273 10.3735C13.9666 10.713 14.3933 10.9521 14.8601 11.0641C15.1617 11.1334 15.5014 11.1334 15.9001 11.1334H20.2334C20.6303 11.1334 20.9718 11.1334 21.2734 11.0623C21.7403 10.9508 22.1672 10.7121 22.5068 10.3728C22.8464 10.0335 23.0854 9.60686 23.1974 9.14006C23.2667 8.83846 23.2667 8.49873 23.2667 8.10006V3.76673C23.2667 3.3698 23.2667 3.02833 23.1957 2.72673C23.0841 2.25983 22.8455 1.83294 22.5062 1.49334C22.1669 1.15375 21.7402 0.914718 21.2734 0.802732C20.9718 0.733398 20.6321 0.733398 20.2334 0.733398H20.1467H15.9867ZM15.2639 2.491C15.3385 2.47366 15.4546 2.46673 15.9867 2.46673H20.1467C20.6806 2.46673 20.795 2.47193 20.8695 2.491C21.0252 2.52823 21.1676 2.60787 21.2808 2.72107C21.394 2.83428 21.4736 2.97663 21.5109 3.13233C21.5282 3.20513 21.5334 3.31953 21.5334 3.8534V8.0134C21.5334 8.54726 21.5265 8.66166 21.5091 8.7362C21.4719 8.8919 21.3923 9.03425 21.2791 9.14746C21.1659 9.26066 21.0235 9.3403 20.8678 9.37753C20.795 9.39487 20.6806 9.40006 20.1467 9.40006H15.9867C15.4529 9.40006 15.3385 9.39487 15.2639 9.3758C15.1082 9.33856 14.9659 9.25893 14.8527 9.14572C14.7395 9.03252 14.6598 8.89017 14.6226 8.73446C14.607 8.6634 14.6001 8.549 14.6001 8.0134V3.8534C14.6001 3.31953 14.6053 3.20513 14.6243 3.1306C14.6616 2.97489 14.7412 2.83254 14.8544 2.71934C14.9676 2.60614 15.11 2.5265 15.2657 2.48926M3.76673 12.8667H8.10007C8.497 12.8667 8.83846 12.8667 9.14007 12.9378C9.60696 13.0494 10.0339 13.288 10.3735 13.6273C10.713 13.9666 10.9521 14.3933 11.0641 14.8601C11.1334 15.1617 11.1334 15.5014 11.1334 15.9001V20.2334C11.1334 20.6303 11.1334 20.9718 11.0623 21.2734C10.9508 21.7403 10.7121 22.1672 10.3728 22.5068C10.0335 22.8464 9.60686 23.0854 9.14007 23.1974C8.83846 23.2667 8.49873 23.2667 8.10007 23.2667H3.76673C3.3698 23.2667 3.02833 23.2667 2.72673 23.1957C2.25983 23.0841 1.83294 22.8454 1.49334 22.5062C1.15375 22.1669 0.914718 21.7402 0.802732 21.2734C0.733398 20.9718 0.733398 20.6321 0.733398 20.2334V15.9001C0.733398 15.5031 0.733398 15.1617 0.804465 14.8601C0.916031 14.3932 1.15468 13.9663 1.49397 13.6267C1.83325 13.2871 2.25994 13.0481 2.72673 12.9361C3.02833 12.8667 3.36807 12.8667 3.76673 12.8667ZM3.8534 14.6001C3.31953 14.6001 3.20513 14.6053 3.1306 14.6243C2.97489 14.6616 2.83254 14.7412 2.71934 14.8544C2.60614 14.9676 2.5265 15.11 2.48927 15.2657C2.47367 15.3367 2.46673 15.4511 2.46673 15.9867V20.1467C2.46673 20.6806 2.47193 20.795 2.491 20.8695C2.52823 21.0252 2.60787 21.1676 2.72107 21.2808C2.83428 21.394 2.97663 21.4736 3.13233 21.5109C3.20513 21.5282 3.31953 21.5334 3.8534 21.5334H8.0134C8.54727 21.5334 8.66167 21.5265 8.7362 21.5091C8.8919 21.4719 9.03425 21.3923 9.14746 21.2791C9.26066 21.1659 9.3403 21.0235 9.37753 20.8678C9.39487 20.795 9.40007 20.6806 9.40007 20.1467V15.9867C9.40007 15.4529 9.39487 15.3385 9.3758 15.2639C9.33856 15.1082 9.25893 14.9659 9.14572 14.8527C9.03252 14.7395 8.89017 14.6598 8.73447 14.6226C8.6634 14.607 8.549 14.6001 8.0134 14.6001H3.8534ZM15.9867 12.8667H15.9001C15.5031 12.8667 15.1617 12.8667 14.8601 12.9378C14.3932 13.0494 13.9663 13.288 13.6267 13.6273C13.2871 13.9666 13.0481 14.3933 12.9361 14.8601C12.8667 15.1617 12.8667 15.5014 12.8667 15.9001V20.2334C12.8667 20.6303 12.8667 20.9718 12.9378 21.2734C13.0494 21.7403 13.288 22.1672 13.6273 22.5068C13.9666 22.8464 14.3933 23.0854 14.8601 23.1974C15.1617 23.2685 15.5031 23.2685 15.9001 23.2685H20.2334C20.6303 23.2685 20.9718 23.2685 21.2734 23.1974C21.74 23.0855 22.1665 22.8468 22.5058 22.5075C22.845 22.1682 23.0838 21.7417 23.1957 21.2751C23.2667 20.9735 23.2667 20.6321 23.2667 20.2351V15.9001C23.2667 15.5031 23.2667 15.1617 23.1957 14.8601C23.0841 14.3932 22.8455 13.9663 22.5062 13.6267C22.1669 13.2871 21.7402 13.0481 21.2734 12.9361C20.9718 12.8667 20.6321 12.8667 20.2334 12.8667H20.1467H15.9867ZM15.2639 14.6243C15.3385 14.607 15.4546 14.6001 15.9867 14.6001H20.1467C20.6806 14.6001 20.795 14.6053 20.8695 14.6243C21.0252 14.6616 21.1676 14.7412 21.2808 14.8544C21.394 14.9676 21.4736 15.11 21.5109 15.2657C21.5282 15.3385 21.5334 15.4529 21.5334 15.9867V20.1467C21.5334 20.6806 21.5265 20.795 21.5091 20.8695C21.4719 21.0252 21.3923 21.1676 21.2791 21.2808C21.1659 21.394 21.0235 21.4736 20.8678 21.5109C20.795 21.5282 20.6806 21.5334 20.1467 21.5334H15.9867C15.4529 21.5334 15.3385 21.5265 15.2639 21.5091C15.1082 21.4719 14.9659 21.3923 14.8527 21.2791C14.7395 21.1659 14.6598 21.0235 14.6226 20.8678C14.607 20.7967 14.6001 20.6823 14.6001 20.1467V15.9867C14.6001 15.4529 14.6053 15.3385 14.6243 15.2639C14.6616 15.1082 14.7412 14.9659 14.8544 14.8527C14.9676 14.7395 15.11 14.6598 15.2657 14.6226" fill="white"/>
</svg>
