<svg width="23" height="23" viewBox="0 0 23 23" fill="none" xmlns="http://www.w3.org/2000/svg">
<path fill-rule="evenodd" clip-rule="evenodd" d="M6.574 1.19798H6.69571C7.03209 1.19798 7.24867 1.19798 7.46046 1.21715C8.32411 1.29792 9.1467 1.62376 9.83138 2.15631H15.8679C16.2599 2.15631 16.5263 2.15631 16.7601 2.18698C17.5768 2.29477 18.3316 2.67983 18.8982 3.2777C19.4649 3.87556 19.8089 4.64994 19.8728 5.47119C20.1421 5.59298 20.391 5.75558 20.6107 5.95323C20.7065 6.03756 20.7957 6.12765 20.88 6.22156C21.387 6.78506 21.6026 7.47027 21.7042 8.27623C21.8019 9.0544 21.8019 10.0376 21.8019 11.2576V13.4714C21.8019 15.2318 21.8019 16.6271 21.6553 17.7187C21.5039 18.8419 21.1857 19.7513 20.4689 20.4691C19.7511 21.1859 18.8416 21.5041 17.7185 21.6555C16.626 21.8021 15.2316 21.8021 13.4702 21.8021H9.5295C7.76809 21.8021 6.37275 21.8021 5.28121 21.6555C4.15805 21.5041 3.24859 21.1859 2.5308 20.4691C1.81396 19.7513 1.4958 18.8419 1.34438 17.7187C1.19775 16.6262 1.19775 15.2318 1.19775 13.4704V6.57423C1.19775 5.81044 1.19775 5.32552 1.27634 4.90673C1.44581 4.00649 1.88295 3.17833 2.53061 2.5305C3.17827 1.88267 4.00631 1.44532 4.9065 1.2756C5.32625 1.19702 5.81117 1.19702 6.574 1.19702M18.349 5.10511C18.2263 4.71268 17.9939 4.36352 17.6793 4.09881C17.3647 3.8341 16.9809 3.66487 16.5733 3.61106C16.4448 3.59477 16.28 3.59285 15.8123 3.59285H11.3187C11.9349 4.20619 12.2148 4.46111 12.532 4.63744C12.7409 4.7534 12.9623 4.8454 13.1923 4.91152C13.588 5.02365 14.0222 5.03035 15.1683 5.03035H15.5756C16.6892 5.03035 17.6063 5.03035 18.349 5.10511ZM6.66025 2.63548C5.78146 2.63548 5.44221 2.63835 5.17196 2.68915C4.55655 2.80548 3.9905 3.10465 3.54772 3.54761C3.10493 3.99057 2.80598 4.55673 2.68988 5.17219C2.63813 5.44244 2.63525 5.78169 2.63525 6.66048V13.4167C2.63525 15.2443 2.63717 16.5428 2.76942 17.528C2.8988 18.4911 3.14221 19.0469 3.54759 19.4523C3.95296 19.8577 4.5088 20.1011 5.47288 20.2305C6.45805 20.3627 7.75563 20.3646 9.58317 20.3646H13.4165C15.244 20.3646 16.5426 20.3627 17.5278 20.2305C18.4909 20.1011 19.0467 19.8577 19.4521 19.4523C19.8575 19.0469 20.1009 18.4911 20.2303 17.527C20.3625 16.5428 20.3644 15.2443 20.3644 13.4167V11.3065C20.3644 10.0261 20.3635 9.13394 20.2782 8.45544C20.1948 7.79515 20.0424 7.4396 19.8115 7.18277C19.7607 7.12629 19.7069 7.07255 19.6505 7.02177C19.3936 6.79081 19.0371 6.63844 18.3778 6.55506C17.7003 6.46977 16.8071 6.46881 15.5268 6.46881H15.0629C14.0586 6.46881 13.4108 6.46881 12.7984 6.2944C12.463 6.19856 12.1381 6.0644 11.8324 5.89477C11.2765 5.58427 10.8185 5.12715 10.1074 4.41606L10.0336 4.34131L9.5065 3.81423C9.35258 3.65336 9.19175 3.49924 9.02446 3.35231C8.54232 2.95252 7.95085 2.70738 7.32725 2.6489C7.10522 2.63478 6.88268 2.63031 6.66025 2.63548ZM11.7394 9.5834C11.7394 9.39277 11.8151 9.20996 11.9499 9.07516C12.0847 8.94037 12.2675 8.86465 12.4582 8.86465H17.2498C17.4405 8.86465 17.6233 8.94037 17.7581 9.07516C17.8929 9.20996 17.9686 9.39277 17.9686 9.5834C17.9686 9.77402 17.8929 9.95684 17.7581 10.0916C17.6233 10.2264 17.4405 10.3021 17.2498 10.3021H12.4582C12.2675 10.3021 12.0847 10.2264 11.9499 10.0916C11.8151 9.95684 11.7394 9.77402 11.7394 9.5834Z" fill="white"/>
</svg>
