<svg width="24" height="24" viewBox="0 0 24 24" fill="none" xmlns="http://www.w3.org/2000/svg">
<g clip-path="url(#clip0_647_4799)">
<path d="M18.874 21H3.2109C3.49402 20.6781 3.70508 20.2963 3.82649 19.88C3.8265 19.88 3.8265 19.88 3.8265 19.88L6.63999 10.235L6.64001 10.235C6.74387 9.87875 6.96045 9.56583 7.25725 9.34316C7.55402 9.12051 7.91499 9.0001 8.286 9C8.28603 9 8.28607 9 8.2861 9L22.5 9.00001L22.5012 9C22.6789 8.99959 22.8536 9.0469 23.0069 9.137C23.159 9.22641 23.2845 9.35469 23.3706 9.50865C23.4366 9.63386 23.4773 9.77021 23.4902 9.90966C23.5032 10.0513 23.4879 10.194 23.4451 10.3296L23.445 10.3296L23.442 10.34L20.741 19.5999C20.6231 20.0038 20.3774 20.3586 20.0408 20.6111C19.7042 20.8635 19.2948 21 18.874 21Z" stroke="white"/>
<path d="M20.0607 5.93934C20.342 6.22064 20.5 6.60218 20.5 7L8.285 7L8.28361 7C7.48084 7.00223 6.70027 7.26374 6.05818 7.74557C5.41609 8.2274 4.94683 8.90376 4.72032 9.67392L4.72003 9.67491L1.90522 19.3192C1.90521 19.3193 1.9052 19.3193 1.90519 19.3194C1.84766 19.5154 1.72832 19.6875 1.56498 19.8102C1.4018 19.9327 1.20342 19.9993 0.999371 20C0.866989 19.9998 0.740066 19.9472 0.646447 19.8536C0.552679 19.7598 0.5 19.6326 0.5 19.5V4.5C0.5 4.10218 0.658035 3.72064 0.93934 3.43934C1.22064 3.15804 1.60218 3 2 3H7.67996C7.67997 3 7.67999 3 7.68 3C7.97673 3.00003 8.26973 3.06619 8.53769 3.19367C8.80566 3.32115 9.04185 3.50675 9.22909 3.73698L9.22911 3.73701L10.2121 4.94546C10.2121 4.94548 10.2121 4.94549 10.2121 4.94551C10.353 5.11878 10.5308 5.25845 10.7325 5.35437C10.9342 5.45028 11.1547 5.50003 11.378 5.5C11.378 5.5 11.3781 5.5 11.3781 5.5H19C19.3978 5.5 19.7794 5.65804 20.0607 5.93934Z" stroke="white"/>
</g>
<defs>
<clipPath id="clip0_647_4799">
<rect width="24" height="24" fill="white"/>
</clipPath>
</defs>
</svg>
