<svg width="24" height="24" viewBox="0 0 24 24" fill="none" xmlns="http://www.w3.org/2000/svg">
<g clip-path="url(#clip0_817_3658)">
<path d="M21.3856 13.6001H21.604C21.7101 13.6001 21.8118 13.558 21.8868 13.483C21.9619 13.408 22.004 13.3062 22.004 13.2001C22.004 13.094 21.9619 12.9923 21.8868 12.9173C21.8118 12.8423 21.7101 12.8001 21.604 12.8001H20.8168L21.5392 11.1149C21.5913 10.9932 21.6124 10.8605 21.6005 10.7287C21.5887 10.5968 21.5444 10.47 21.4715 10.3595C21.3986 10.249 21.2994 10.1584 21.1828 10.0956C21.0663 10.0329 20.936 10.0001 20.8036 10.0001H18.96L18.8752 9.74613C18.8219 9.58705 18.72 9.44874 18.5838 9.35076C18.4477 9.25278 18.2842 9.20009 18.1164 9.20013H17.2048C17.0715 9.20008 16.9402 9.23336 16.823 9.29695C16.7058 9.36053 16.6064 9.4524 16.5337 9.56421C16.4611 9.67602 16.4175 9.80421 16.407 9.93713C16.3965 10.0701 16.4194 10.2035 16.4736 10.3253L17.5736 12.8001H16.804C16.6979 12.8001 16.5962 12.8423 16.5212 12.9173C16.4461 12.9923 16.404 13.094 16.404 13.2001C16.404 13.3062 16.4461 13.408 16.5212 13.483C16.5962 13.558 16.6979 13.6001 16.804 13.6001H17.0356C16.1423 14.4081 15.4479 15.4117 15.0068 16.5325C14.3295 16.1828 13.5783 16.0002 12.816 16.0001H12.616C12.2482 15.5896 11.7462 15.3234 11.2 15.2493V14.5789C11.9322 14.1784 12.552 13.6002 13.0022 12.8974C13.4524 12.1946 13.7186 11.3899 13.7764 10.5573C13.9985 10.4928 14.2048 10.3827 14.382 10.234C14.5592 10.0853 14.7035 9.90129 14.8056 9.69373C15.2 8.90573 15.2 8.30373 15.2 7.39253V5.14773C15.2 3.62773 13.96 2.35533 12.32 2.06293L12.8032 1.36013C12.8869 1.22616 12.9328 1.07208 12.9362 0.914166C12.9396 0.756249 12.9003 0.600348 12.8224 0.462925C12.7426 0.321987 12.6268 0.20483 12.4867 0.123493C12.3467 0.042157 12.1875 -0.000424416 12.0256 0.000125112H8.05C6.70431 -0.00884412 5.39996 0.464702 4.37345 1.3349C3.34695 2.20509 2.66626 3.41432 2.4548 4.74333C2.43974 4.84835 2.46701 4.95506 2.53062 5.03998C2.59423 5.12489 2.68897 5.18106 2.794 5.19613C2.89903 5.21119 3.00573 5.18392 3.09065 5.1203C3.17557 5.05669 3.23174 4.96195 3.2468 4.85693C3.43012 3.71813 4.01545 2.68273 4.89665 1.93847C5.77786 1.1942 6.89659 0.790342 8.05 0.800125H12.0256C12.0454 0.799146 12.0652 0.803718 12.0825 0.813328C12.0999 0.822938 12.1143 0.837205 12.124 0.854525C12.158 0.913725 12.132 0.925725 12.1332 0.924125L11.39 2.00013H10.8C10.6939 2.00013 10.5922 2.04227 10.5172 2.11728C10.4421 2.1923 10.4 2.29404 10.4 2.40013C10.4 2.50621 10.4421 2.60795 10.5172 2.68297C10.5922 2.75798 10.6939 2.80013 10.8 2.80013H11.6C12.9464 2.80013 14.4 3.69773 14.4 5.14773V6.07373C14.2387 6.01291 14.0657 5.98931 13.894 6.00469C13.7223 6.02007 13.5563 6.07402 13.4084 6.16253C13.311 6.01951 13.1826 5.90032 13.0327 5.81382C12.8828 5.72732 12.7154 5.67574 12.5428 5.66293C11.1916 5.55493 10.1936 5.22533 9.5776 4.68493C9.36657 4.49828 9.0939 4.39639 8.81219 4.3989C8.53048 4.40141 8.25967 4.50815 8.052 4.69853C7.2484 5.43613 5.9948 5.55733 5.1656 5.63733L5.0228 5.65133C4.85373 5.66735 4.69044 5.72123 4.54502 5.80896C4.39961 5.8967 4.27581 6.01603 4.1828 6.15813C4.00539 6.05613 3.80464 6.0017 3.6 6.00013C3.28174 6.00013 2.97652 6.12655 2.75147 6.3516C2.52643 6.57664 2.4 6.88187 2.4 7.20013C2.4 7.37493 2.4108 8.92773 2.7956 9.69573C2.8976 9.90294 3.04172 10.0866 3.21873 10.235C3.39573 10.3833 3.60175 10.4931 3.8236 10.5573C3.8803 11.391 4.14605 12.197 4.59633 12.9009C5.0466 13.6048 5.6669 14.1839 6.4 14.5849V15.2493C5.85351 15.3233 5.35122 15.5894 4.9832 16.0001H4.7832C3.51497 16.0017 2.29914 16.5063 1.40244 17.4031C0.505735 18.3 0.00137603 19.5159 0 20.7841L0 23.2361C0.000105986 23.4387 0.0806326 23.633 0.223887 23.7762C0.367142 23.9195 0.561407 24 0.764 24.0001H16.836C16.9591 24 17.0803 23.9701 17.1893 23.913C17.2983 23.8558 17.3918 23.7732 17.462 23.6721C18.0091 23.8845 18.5903 23.9956 19.1772 24.0001H19.208C20.4662 24.0046 21.6756 23.5141 22.5752 22.6345C23.0238 22.2009 23.3809 21.6819 23.6256 21.1081C23.8703 20.5342 23.9976 19.9172 24 19.2933C23.9123 17.1253 22.9728 15.0795 21.3856 13.6001ZM17.2048 10.0001H18.1164L18.292 10.5241L18.556 11.3241C18.5892 11.4249 18.6611 11.5084 18.7558 11.5562C18.8506 11.6039 18.9604 11.6121 19.0612 11.5789C19.162 11.5457 19.2454 11.4738 19.2932 11.3791C19.341 11.2844 19.3492 11.1745 19.316 11.0737L19.2252 10.8001H20.8044L19.9464 12.8001H18.4488L17.2048 10.0001ZM8.8 17.2873C9.00797 17.2946 9.21228 17.3442 9.40049 17.433C9.5887 17.5217 9.75688 17.6479 9.8948 17.8037L9.41 18.4001H8.19L7.7052 17.8061C7.84444 17.6517 8.01286 17.5264 8.20076 17.4373C8.38865 17.3483 8.59231 17.2973 8.8 17.2873ZM6.894 18.7337C6.92804 18.7429 6.96314 18.7476 6.9984 18.7477C7.05925 18.748 7.11933 18.7341 7.1739 18.7072C7.22846 18.6803 7.27602 18.641 7.3128 18.5925L7.574 18.9125L6.9052 22.9357C6.1168 22.1333 5.7416 19.9889 5.6316 18.0725C6.00634 18.3724 6.43556 18.5969 6.8956 18.7337H6.894ZM8.3388 19.2001H9.2612L9.928 23.2001H7.672L8.3388 19.2001ZM10.0244 18.9129L10.2856 18.5929C10.3335 18.6554 10.3989 18.7022 10.4735 18.7274C10.5481 18.7525 10.6285 18.7549 10.7044 18.7341C11.1609 18.5984 11.5871 18.3764 11.96 18.0801C11.8524 19.7573 11.5176 21.9005 10.68 22.8617L10.0244 18.9129ZM11.996 16.5017C11.938 17.2217 11.2696 17.6361 10.8448 17.8285C10.6778 17.446 10.4044 17.1195 10.0572 16.8877C10.4592 16.7019 10.8003 16.4061 11.0412 16.0345C11.4037 16.076 11.7409 16.2409 11.996 16.5017ZM4.62 10.4801C4.60973 10.3232 4.55121 10.1733 4.45247 10.051C4.35373 9.92859 4.21959 9.83972 4.0684 9.79653C3.94702 9.76604 3.83387 9.70911 3.73706 9.62979C3.64025 9.55047 3.56217 9.45074 3.5084 9.33773C3.2564 8.82893 3.2 7.62253 3.2 7.20013C3.2 7.09404 3.24214 6.9923 3.31716 6.91728C3.39217 6.84227 3.49391 6.80013 3.6 6.80013C3.70609 6.80013 3.80783 6.84227 3.88284 6.91728C3.95786 6.9923 4 7.09404 4 7.20013V7.60013C4 7.70621 4.04214 7.80795 4.11716 7.88297C4.19217 7.95798 4.29391 8.00013 4.4 8.00013C4.50609 8.00013 4.60783 7.95798 4.68284 7.88297C4.75786 7.80795 4.8 7.70621 4.8 7.60013V6.77133C4.80072 6.68948 4.83203 6.61085 4.88776 6.55091C4.94349 6.49096 5.01962 6.45401 5.1012 6.44733L5.2424 6.43373C6.178 6.34293 7.5916 6.20653 8.5924 5.28813C8.65529 5.23217 8.73644 5.20109 8.82062 5.20072C8.9048 5.20035 8.98622 5.23072 9.0496 5.28613C9.8096 5.95213 10.9296 6.33653 12.4784 6.46053C12.5629 6.46432 12.6428 6.4999 12.7021 6.56014C12.7615 6.62037 12.7959 6.70081 12.7984 6.78533V7.60013C12.7984 7.70621 12.8405 7.80795 12.9156 7.88297C12.9906 7.95798 13.0923 8.00013 13.1984 8.00013C13.3045 8.00013 13.4062 7.95798 13.4812 7.88297C13.5563 7.80795 13.5984 7.70621 13.5984 7.60013V7.20013C13.5984 7.09404 13.6405 6.9923 13.7156 6.91728C13.7906 6.84227 13.8923 6.80013 13.9984 6.80013C14.1045 6.80013 14.2062 6.84227 14.2812 6.91728C14.3563 6.9923 14.3984 7.09404 14.3984 7.20013V7.39253C14.3984 8.27253 14.3984 8.71653 14.0896 9.33413C14.0355 9.44811 13.9567 9.54866 13.8591 9.62855C13.7614 9.70844 13.6472 9.76567 13.5248 9.79613C13.3741 9.84042 13.2408 9.9301 13.1429 10.0529C13.0451 10.1758 12.9875 10.3258 12.978 10.4825C12.9101 11.5453 12.4399 12.5423 11.663 13.2707C10.8862 13.9991 9.86106 14.4043 8.79612 14.4038C7.73119 14.4033 6.70643 13.9971 5.93029 13.268C5.15414 12.5388 4.6849 11.5414 4.618 10.4785L4.62 10.4801ZM8.8 15.2001C9.34451 15.199 9.88509 15.108 10.4 14.9309V15.5341C10.3412 15.6677 10.0284 16.2069 8.8 16.4765C7.5492 16.2021 7.2492 15.6497 7.2 15.5373V14.9337C7.71525 15.1092 8.25571 15.1991 8.8 15.2001ZM6.56 16.0345C6.80087 16.4061 7.14203 16.7019 7.544 16.8877C7.19681 17.1195 6.92345 17.446 6.7564 17.8285C6.3312 17.6357 5.6632 17.2213 5.6052 16.5017C5.86017 16.2407 6.19743 16.0757 6.56 16.0345ZM0.8 20.7841C0.801165 19.7279 1.22128 18.7152 1.96817 17.9683C2.71507 17.2214 3.72774 16.8013 4.784 16.8001H4.7956C4.7956 18.0677 4.906 21.5637 6.0916 23.2001H0.8V20.7841ZM11.4324 23.2001C12.6836 21.5041 12.8044 18.0541 12.8044 16.8001H12.816C13.4848 16.8025 14.1422 16.9738 14.7272 17.2981C14.5245 17.9262 14.4143 18.5804 14.4 19.2401C14.3981 20.0263 14.5928 20.8004 14.9665 21.4921C15.3402 22.1837 15.881 22.7709 16.5396 23.2001H11.4324ZM22.0168 22.0617C21.2663 22.7953 20.2574 23.2042 19.208 23.2001H19.182C18.13 23.2019 17.1202 22.7867 16.3738 22.0453C15.6274 21.3039 15.2053 20.2969 15.2 19.2449C15.2096 17.1537 16.7684 14.1649 18.5848 13.6049L19.8248 13.6013C21.6596 14.1565 23.21 17.1725 23.2004 19.2905C23.1981 19.8081 23.0921 20.3199 22.8889 20.7958C22.6856 21.2718 22.3891 21.7022 22.0168 22.0617Z" fill="white"/>
<path d="M19.2046 18C19.1344 17.9999 19.0654 17.9814 19.0047 17.9462C18.9439 17.9111 18.8935 17.8606 18.8584 17.7997C18.8234 17.7389 18.8049 17.67 18.805 17.5998C18.805 17.5296 18.8235 17.4606 18.8587 17.3998C18.8938 17.3391 18.9443 17.2886 19.0051 17.2535C19.0659 17.2184 19.1349 17.2 19.2051 17.2C19.2753 17.2 19.3442 17.2185 19.405 17.2536C19.4658 17.2887 19.5163 17.3392 19.5514 17.4C19.6067 17.4871 19.6936 17.5494 19.7938 17.5739C19.894 17.5985 19.9998 17.5833 20.0891 17.5317C20.1784 17.4801 20.2444 17.3959 20.2731 17.2969C20.3018 17.1978 20.2912 17.0914 20.2434 17C20.0984 16.7563 19.8716 16.572 19.6034 16.48V16.4C19.6034 16.2939 19.5612 16.1922 19.4862 16.1172C19.4112 16.0421 19.3095 16 19.2034 16C19.0973 16 18.9955 16.0421 18.9205 16.1172C18.8455 16.1922 18.8034 16.2939 18.8034 16.4V16.4736C18.5367 16.5675 18.3119 16.7528 18.1687 16.9966C18.0256 17.2404 17.9733 17.527 18.0212 17.8057C18.0691 18.0843 18.2141 18.337 18.4305 18.519C18.6468 18.701 18.9206 18.8005 19.2034 18.8C19.2736 18.8 19.3426 18.8185 19.4034 18.8536C19.4642 18.8887 19.5147 18.9392 19.5498 19C19.5849 19.0608 19.6034 19.1298 19.6034 19.2C19.6034 19.2702 19.5849 19.3392 19.5498 19.4C19.5147 19.4608 19.4642 19.5113 19.4034 19.5464C19.3426 19.5815 19.2736 19.6 19.2034 19.6C19.1332 19.6 19.0642 19.5815 19.0034 19.5464C18.9426 19.5113 18.8921 19.4608 18.857 19.4C18.8023 19.3116 18.7153 19.2479 18.6144 19.2225C18.5135 19.1972 18.4068 19.2121 18.3167 19.2641C18.2267 19.3161 18.1604 19.4012 18.132 19.5012C18.1036 19.6012 18.1153 19.7084 18.1646 19.8C18.3095 20.0437 18.5364 20.228 18.8046 20.32V20.4C18.8046 20.5061 18.8467 20.6078 18.9217 20.6828C18.9967 20.7579 19.0985 20.8 19.2046 20.8C19.3107 20.8 19.4124 20.7579 19.4874 20.6828C19.5624 20.6078 19.6046 20.5061 19.6046 20.4V20.3264C19.8712 20.2325 20.0961 20.0472 20.2392 19.8034C20.3824 19.5596 20.4346 19.273 20.3867 18.9943C20.3388 18.7157 20.1938 18.463 19.9775 18.281C19.7611 18.099 19.4873 17.9995 19.2046 18Z" fill="white"/>
</g>
<defs>
<clipPath id="clip0_817_3658">
<rect width="24" height="24" fill="white"/>
</clipPath>
</defs>
</svg>
