<svg width="24" height="25" viewBox="0 0 24 25" fill="none" xmlns="http://www.w3.org/2000/svg">
<path fill-rule="evenodd" clip-rule="evenodd" d="M4 4.5C4 3.96957 4.21071 3.46086 4.58579 3.08579C4.96086 2.71071 5.46957 2.5 6 2.5H18C18.5304 2.5 19.0391 2.71071 19.4142 3.08579C19.7893 3.46086 20 3.96957 20 4.5V20.5C20 21.0304 19.7893 21.5391 19.4142 21.9142C19.0391 22.2893 18.5304 22.5 18 22.5H6C5.46957 22.5 4.96086 22.2893 4.58579 21.9142C4.21071 21.5391 4 21.0304 4 20.5V4.5ZM19 3.5H12H5V12.5V21.5H12H19V12.5V3.5Z" fill="white"/>
<rect x="13" y="9.5" width="4" height="1" rx="0.5" fill="white"/>
<rect x="13" y="14.5" width="4" height="1" rx="0.5" fill="white"/>
<rect x="7.5" y="13" width="4" height="4" rx="0.5" stroke="white"/>
<path d="M11.131 7.81437C11.3353 7.64075 11.6417 7.66566 11.8153 7.87002C11.989 8.07437 11.9641 8.38078 11.7597 8.5544L9.77281 10.2425C9.36411 10.5898 8.75128 10.5399 8.40404 10.1312L11.131 7.81437Z" fill="white"/>
<path d="M7.32555 9.4495C7.14575 9.24601 7.16496 8.9353 7.36845 8.75551C7.57193 8.57571 7.88264 8.59492 8.06244 8.7984L9.49132 10.4156C9.08435 10.7752 8.46293 10.7367 8.10334 10.3298L7.32555 9.4495Z" fill="white"/>
</svg>
