<svg width="20" height="20" viewBox="0 0 20 20" fill="none" xmlns="http://www.w3.org/2000/svg">
<path d="M9.16667 9.16667C8.67221 9.16667 8.18886 9.02005 7.77774 8.74535C7.36662 8.47064 7.04619 8.0802 6.85697 7.62338C6.66775 7.16657 6.61824 6.6639 6.7147 6.17895C6.81117 5.69399 7.04927 5.24854 7.3989 4.89891C7.74853 4.54927 8.19399 4.31117 8.67894 4.21471C9.16389 4.11825 9.66656 4.16775 10.1234 4.35697C10.5802 4.54619 10.9706 4.86662 11.2453 5.27775C11.52 5.68887 11.6667 6.17222 11.6667 6.66667C11.6667 7.32971 11.4033 7.9656 10.9344 8.43444C10.4656 8.90328 9.82971 9.16667 9.16667 9.16667ZM9.16667 5.83334C9.00185 5.83334 8.84073 5.88221 8.70369 5.97378C8.56665 6.06535 8.45984 6.1955 8.39677 6.34777C8.33369 6.50004 8.31719 6.6676 8.34935 6.82925C8.3815 6.9909 8.46087 7.13938 8.57741 7.25593C8.69396 7.37247 8.84244 7.45184 9.00409 7.48399C9.16574 7.51615 9.3333 7.49965 9.48557 7.43657C9.63784 7.3735 9.76799 7.26669 9.85956 7.12965C9.95113 6.99261 10 6.83149 10 6.66667C10 6.44566 9.9122 6.2337 9.75592 6.07742C9.59964 5.92114 9.38768 5.83334 9.16667 5.83334ZM5.74167 9.05001C5.25412 8.35086 4.99272 7.51902 4.99272 6.66667C4.99272 5.81433 5.25412 4.98248 5.74167 4.28334C5.50203 4.20605 5.25179 4.16669 5 4.16667C4.33696 4.16667 3.70107 4.43006 3.23223 4.89891C2.76339 5.36775 2.5 6.00363 2.5 6.66667C2.5 7.32971 2.76339 7.9656 3.23223 8.43444C3.70107 8.90328 4.33696 9.16667 5 9.16667C5.25179 9.16666 5.50203 9.12729 5.74167 9.05001ZM9.16667 10.8333C14.1667 10.8333 14.1667 14.1667 14.1667 14.1667V15.8333H4.16667V14.1667C4.16667 14.1667 4.16667 10.8333 9.16667 10.8333ZM12.5 14.1667C12.5 13.925 12.2333 12.5 9.16667 12.5C6.25 12.5 5.88333 13.8 5.83333 14.1667M0 14.1667V15.8333H2.5V14.1667C2.51947 13.5472 2.66214 12.9378 2.91968 12.3741C3.17723 11.8104 3.54447 11.3036 4 10.8833C0 11.2917 0 14.1667 0 14.1667ZM13.3333 10H15.8333V12.5H17.5V10H20V8.33334H17.5V5.83334H15.8333V8.33334H13.3333V10Z" fill="white"/>
</svg>
