<svg width="24" height="24" viewBox="0 0 24 24" fill="none" xmlns="http://www.w3.org/2000/svg">
<g clip-path="url(#clip0_647_4909)">
<path d="M11.0971 4.62132C11.0971 3.07172 9.83644 1.81104 8.28684 1.81104C6.73725 1.81104 5.47656 3.07172 5.47656 4.62132C5.47656 6.17091 6.73725 7.4316 8.28684 7.4316C9.83644 7.4316 11.0971 6.17091 11.0971 4.62132ZM6.17991 4.62132C6.17991 3.45956 7.12509 2.51433 8.28689 2.51433C9.44869 2.51433 10.3939 3.45952 10.3939 4.62132C10.3939 5.78311 9.44864 6.7283 8.28684 6.7283C7.12504 6.7283 6.17991 5.78311 6.17991 4.62132Z" fill="white"/>
<path d="M9.07361 3.46045L7.94604 4.79685L7.51754 4.2036L6.9474 4.6154L7.903 5.9384L9.61112 3.91398L9.07361 3.46045ZM3.01855 8.50984H9.34236V9.21314H3.01855V8.50984ZM3.01855 10.2915H9.34236V10.9948H3.01855V10.2915ZM3.01855 12.0234H9.34236V12.7267H3.01855V12.0234ZM3.01855 13.7625H6.52918V14.4658H3.01855V13.7625Z" fill="white"/>
<mask id="path-3-inside-1_647_4909" fill="white">
<path d="M22.6457 19.9091L20.9854 18.9322L20.6288 19.5384L22.2891 20.5153C22.7307 20.7751 22.8785 21.3458 22.6187 21.7873C22.3589 22.2289 21.7883 22.3766 21.3467 22.1169L16.6319 19.3427L17.5743 17.7411L20.0252 19.1832L20.3818 18.5771L17.9237 17.1307C18.0325 16.8849 18.0555 16.6116 17.9871 16.3475C17.9068 16.0377 17.7107 15.7778 17.4349 15.6155C17.159 15.4532 16.8365 15.408 16.5267 15.4883C16.3394 15.5365 16.1667 15.6295 16.0233 15.7593V13.4357C16.2629 13.0109 16.2473 12.5085 16.0233 12.1093V0H4.2731L0.550781 3.7285V12.7062H1.25408V4.22564H4.77056V0.703297H15.32V11.483L12.4419 9.78956C11.7997 9.41161 10.9699 9.62677 10.5921 10.2689C10.4091 10.58 10.3582 10.9438 10.4487 11.2931C10.5188 11.5637 10.6675 11.8002 10.8753 11.9783L8.34092 16.2856C8.08431 16.1904 7.80529 16.1753 7.53475 16.2455C7.18535 16.336 6.89213 16.5572 6.70908 16.8683C6.45069 17.3075 6.46977 17.8344 6.71297 18.2445H1.25408V13.433H0.550781V18.9478H7.57887L9.40205 20.0205H5.47972V21.6381H4.3017V24H15.0856V21.6381H13.9134V20.0205H12.1484C12.3146 19.7176 12.3588 19.3686 12.2717 19.0327C12.2642 19.0041 12.2557 18.9758 12.2464 18.9478H14.1469C14.031 19.4447 14.2436 19.9811 14.706 20.2532C14.8926 20.363 15.1006 20.4192 15.3116 20.4192C15.4124 20.4192 15.5139 20.4064 15.6142 20.3804C15.8752 20.3134 16.1057 20.1598 16.268 19.9447L20.99 22.723C21.24 22.8706 21.5249 22.9483 21.8151 22.9482C22.375 22.9482 22.921 22.6604 23.2248 22.144C23.6813 21.3682 23.4215 20.3656 22.6457 19.9091ZM1.75037 3.52234L4.06727 1.20161V3.52234H1.75037ZM13.2101 21.6381H10.9889V22.3414H14.3823V23.2967H5.00499V22.3414H10.2797V21.6381H6.18302V20.7238H13.2101V21.6381ZM14.7925 17.7436L12.867 16.6106L13.3578 15.7765L15.2848 16.9071L14.7925 17.7436ZM14.3798 14.0396C14.5285 14.0947 14.6858 14.123 14.8444 14.1232C15.0071 14.1232 15.1683 14.0932 15.32 14.0365V16.1123L13.7144 15.1704L14.3798 14.0396ZM14.2571 18.2445H11.9056L12.5104 17.2168L14.2571 18.2445ZM11.1983 10.6255C11.2413 10.5521 11.2984 10.4878 11.3663 10.4366C11.4343 10.3853 11.5117 10.3481 11.5942 10.3269C11.6765 10.3054 11.7623 10.3004 11.8466 10.3122C11.9309 10.324 12.012 10.3524 12.0853 10.3957L15.1752 12.2138C15.4831 12.3949 15.5862 12.7929 15.4051 13.1008C15.2239 13.4087 14.826 13.5117 14.5181 13.3307L11.4275 11.5122C11.3542 11.4692 11.2901 11.4121 11.2389 11.3442C11.1878 11.2763 11.1506 11.199 11.1295 11.1166C11.1079 11.0343 11.1029 10.9485 11.1147 10.8642C11.1265 10.7799 11.1549 10.6988 11.1983 10.6255ZM11.4705 12.3535L13.7624 13.702L11.2498 17.9722L8.95804 16.6237L11.4705 12.3535ZM7.31528 17.2249C7.35824 17.1514 7.41536 17.0872 7.48332 17.0359C7.55128 16.9847 7.62873 16.9474 7.71119 16.9263C7.79348 16.9047 7.87923 16.8997 7.96348 16.9115C8.04774 16.9233 8.12882 16.9516 8.20204 16.9949L11.2923 18.8132C11.4414 18.901 11.5475 19.0416 11.5909 19.2091C11.6343 19.3766 11.6099 19.551 11.5221 19.7002V19.7002C11.4792 19.7737 11.422 19.8379 11.3541 19.8892C11.2861 19.9404 11.2087 19.9777 11.1263 19.9989C11.0439 20.0204 10.9581 20.0255 10.8738 20.0137C10.7895 20.0018 10.7084 19.9734 10.6351 19.9301L7.54516 18.112C7.23721 17.9308 7.13411 17.5328 7.31528 17.2249ZM15.4377 19.6996C15.3097 19.7327 15.1766 19.7141 15.0627 19.6471C14.8275 19.5087 14.7488 19.2048 14.8871 18.9697L16.4008 16.3972C16.4336 16.3411 16.4772 16.292 16.5291 16.2529C16.581 16.2137 16.6402 16.1853 16.7031 16.1691C16.766 16.1527 16.8315 16.1488 16.8959 16.1578C16.9603 16.1669 17.0222 16.1885 17.0782 16.2216C17.1343 16.2544 17.1833 16.2981 17.2225 16.35C17.2616 16.4018 17.2901 16.461 17.3062 16.524C17.3394 16.6517 17.3208 16.7847 17.2539 16.8986L15.7401 19.4715C15.7073 19.5276 15.6636 19.5767 15.6117 19.6158C15.5598 19.655 15.5007 19.6835 15.4377 19.6996Z"/>
</mask>
<path d="M22.6457 19.9091L20.9854 18.9322L20.6288 19.5384L22.2891 20.5153C22.7307 20.7751 22.8785 21.3458 22.6187 21.7873C22.3589 22.2289 21.7883 22.3766 21.3467 22.1169L16.6319 19.3427L17.5743 17.7411L20.0252 19.1832L20.3818 18.5771L17.9237 17.1307C18.0325 16.8849 18.0555 16.6116 17.9871 16.3475C17.9068 16.0377 17.7107 15.7778 17.4349 15.6155C17.159 15.4532 16.8365 15.408 16.5267 15.4883C16.3394 15.5365 16.1667 15.6295 16.0233 15.7593V13.4357C16.2629 13.0109 16.2473 12.5085 16.0233 12.1093V0H4.2731L0.550781 3.7285V12.7062H1.25408V4.22564H4.77056V0.703297H15.32V11.483L12.4419 9.78956C11.7997 9.41161 10.9699 9.62677 10.5921 10.2689C10.4091 10.58 10.3582 10.9438 10.4487 11.2931C10.5188 11.5637 10.6675 11.8002 10.8753 11.9783L8.34092 16.2856C8.08431 16.1904 7.80529 16.1753 7.53475 16.2455C7.18535 16.336 6.89213 16.5572 6.70908 16.8683C6.45069 17.3075 6.46977 17.8344 6.71297 18.2445H1.25408V13.433H0.550781V18.9478H7.57887L9.40205 20.0205H5.47972V21.6381H4.3017V24H15.0856V21.6381H13.9134V20.0205H12.1484C12.3146 19.7176 12.3588 19.3686 12.2717 19.0327C12.2642 19.0041 12.2557 18.9758 12.2464 18.9478H14.1469C14.031 19.4447 14.2436 19.9811 14.706 20.2532C14.8926 20.363 15.1006 20.4192 15.3116 20.4192C15.4124 20.4192 15.5139 20.4064 15.6142 20.3804C15.8752 20.3134 16.1057 20.1598 16.268 19.9447L20.99 22.723C21.24 22.8706 21.5249 22.9483 21.8151 22.9482C22.375 22.9482 22.921 22.6604 23.2248 22.144C23.6813 21.3682 23.4215 20.3656 22.6457 19.9091ZM1.75037 3.52234L4.06727 1.20161V3.52234H1.75037ZM13.2101 21.6381H10.9889V22.3414H14.3823V23.2967H5.00499V22.3414H10.2797V21.6381H6.18302V20.7238H13.2101V21.6381ZM14.7925 17.7436L12.867 16.6106L13.3578 15.7765L15.2848 16.9071L14.7925 17.7436ZM14.3798 14.0396C14.5285 14.0947 14.6858 14.123 14.8444 14.1232C15.0071 14.1232 15.1683 14.0932 15.32 14.0365V16.1123L13.7144 15.1704L14.3798 14.0396ZM14.2571 18.2445H11.9056L12.5104 17.2168L14.2571 18.2445ZM11.1983 10.6255C11.2413 10.5521 11.2984 10.4878 11.3663 10.4366C11.4343 10.3853 11.5117 10.3481 11.5942 10.3269C11.6765 10.3054 11.7623 10.3004 11.8466 10.3122C11.9309 10.324 12.012 10.3524 12.0853 10.3957L15.1752 12.2138C15.4831 12.3949 15.5862 12.7929 15.4051 13.1008C15.2239 13.4087 14.826 13.5117 14.5181 13.3307L11.4275 11.5122C11.3542 11.4692 11.2901 11.4121 11.2389 11.3442C11.1878 11.2763 11.1506 11.199 11.1295 11.1166C11.1079 11.0343 11.1029 10.9485 11.1147 10.8642C11.1265 10.7799 11.1549 10.6988 11.1983 10.6255ZM11.4705 12.3535L13.7624 13.702L11.2498 17.9722L8.95804 16.6237L11.4705 12.3535ZM7.31528 17.2249C7.35824 17.1514 7.41536 17.0872 7.48332 17.0359C7.55128 16.9847 7.62873 16.9474 7.71119 16.9263C7.79348 16.9047 7.87923 16.8997 7.96348 16.9115C8.04774 16.9233 8.12882 16.9516 8.20204 16.9949L11.2923 18.8132C11.4414 18.901 11.5475 19.0416 11.5909 19.2091C11.6343 19.3766 11.6099 19.551 11.5221 19.7002V19.7002C11.4792 19.7737 11.422 19.8379 11.3541 19.8892C11.2861 19.9404 11.2087 19.9777 11.1263 19.9989C11.0439 20.0204 10.9581 20.0255 10.8738 20.0137C10.7895 20.0018 10.7084 19.9734 10.6351 19.9301L7.54516 18.112C7.23721 17.9308 7.13411 17.5328 7.31528 17.2249ZM15.4377 19.6996C15.3097 19.7327 15.1766 19.7141 15.0627 19.6471C14.8275 19.5087 14.7488 19.2048 14.8871 18.9697L16.4008 16.3972C16.4336 16.3411 16.4772 16.292 16.5291 16.2529C16.581 16.2137 16.6402 16.1853 16.7031 16.1691C16.766 16.1527 16.8315 16.1488 16.8959 16.1578C16.9603 16.1669 17.0222 16.1885 17.0782 16.2216C17.1343 16.2544 17.1833 16.2981 17.2225 16.35C17.2616 16.4018 17.2901 16.461 17.3062 16.524C17.3394 16.6517 17.3208 16.7847 17.2539 16.8986L15.7401 19.4715C15.7073 19.5276 15.6636 19.5767 15.6117 19.6158C15.5598 19.655 15.5007 19.6835 15.4377 19.6996Z" fill="white" stroke="white" stroke-width="2" mask="url(#path-3-inside-1_647_4909)"/>
</g>
<defs>
<clipPath id="clip0_647_4909">
<rect width="24" height="24" fill="white"/>
</clipPath>
</defs>
</svg>
