<svg width="24" height="25" viewBox="0 0 24 25" fill="none" xmlns="http://www.w3.org/2000/svg">
<path d="M21.8571 12.7825C21.8119 12.6946 21.7884 12.5979 21.7884 12.4999C21.7884 12.4019 21.8119 12.3052 21.8571 12.2173L22.7051 10.5527C23.1773 9.62578 22.8032 8.52103 21.8534 8.0375L20.1476 7.16905C20.0572 7.12339 19.979 7.05842 19.919 6.97914C19.859 6.89987 19.8187 6.80842 19.8014 6.71185L19.4678 4.88677C19.282 3.87062 18.3024 3.18779 17.238 3.33229L15.326 3.5918C15.2249 3.60582 15.1219 3.59736 15.0247 3.56707C14.9276 3.53679 14.839 3.48549 14.7659 3.41713L13.378 2.12885C12.6052 1.4115 11.3946 1.41146 10.6219 2.12885L9.23395 3.41726C9.16076 3.4856 9.07219 3.53689 8.97507 3.56717C8.87795 3.59746 8.77487 3.60593 8.6738 3.59193L6.7618 3.33241C5.69706 3.18783 4.71781 3.87075 4.53204 4.8869L4.19843 6.71189C4.1811 6.80846 4.14086 6.89991 4.08084 6.97919C4.02082 7.05847 3.94261 7.12346 3.85226 7.16913L2.14645 8.03759C1.19669 8.52108 0.822582 9.62591 1.29475 10.5528L2.14277 12.2174C2.18791 12.3053 2.21138 12.402 2.21138 12.5C2.21138 12.598 2.18791 12.6947 2.14277 12.7826L1.29471 14.4472C0.822538 15.3741 1.19665 16.4789 2.14641 16.9624L3.85221 17.8309C3.94257 17.8765 4.02079 17.9415 4.08082 18.0208C4.14085 18.1 4.18109 18.1915 4.19843 18.288L4.53204 20.1131C4.70116 21.0382 5.52781 21.6869 6.47788 21.6868C6.57146 21.6868 6.66641 21.6805 6.76184 21.6676L8.67384 21.4081C8.77492 21.394 8.878 21.4025 8.97513 21.4328C9.07225 21.4631 9.16082 21.5144 9.23399 21.5827L10.6219 22.871C11.0083 23.2297 11.504 23.409 11.9999 23.409C12.4957 23.409 12.9917 23.2296 13.378 22.871L14.7659 21.5827C14.9156 21.4438 15.1197 21.3803 15.326 21.4081L17.238 21.6676C18.3029 21.8121 19.282 21.1292 19.4678 20.1131L19.8014 18.2881C19.8188 18.1915 19.859 18.1001 19.919 18.0208C19.979 17.9415 20.0573 17.8765 20.1476 17.8309L21.8534 16.9624C22.8032 16.4789 23.1773 15.3741 22.7051 14.4472L21.8571 12.7825ZM21.2387 15.8507L19.5329 16.7192C18.9891 16.9961 18.6161 17.4887 18.5097 18.0706L18.1761 19.8956C18.1467 20.0604 18.0513 20.2076 17.9104 20.3058C17.7695 20.4041 17.5941 20.4456 17.4217 20.4216L15.5097 20.162C14.8999 20.0792 14.2966 20.2675 13.854 20.6782L12.4661 21.9665C12.3414 22.0831 12.1741 22.1484 11.9999 22.1484C11.8257 22.1484 11.6584 22.0831 11.5336 21.9665L10.1458 20.6782C9.77176 20.331 9.2828 20.1429 8.77234 20.1429C8.67882 20.1429 8.58453 20.1492 8.49012 20.162L6.57812 20.4215C6.40573 20.4455 6.23039 20.404 6.08946 20.3058C5.94854 20.2075 5.85318 20.0603 5.82372 19.8956L5.49006 18.0705C5.38366 17.4886 5.0107 16.996 4.46681 16.7192L2.761 15.8507C2.60679 15.773 2.49034 15.6405 2.4365 15.4815C2.38266 15.3225 2.3957 15.1496 2.47283 14.9998L3.32089 13.3351C3.59126 12.8043 3.59126 12.1955 3.32089 11.6647L2.47283 10C2.3957 9.85017 2.38266 9.6773 2.4365 9.51832C2.49034 9.35935 2.60679 9.22686 2.761 9.14911L4.46681 8.28065C5.01066 8.00371 5.38366 7.51119 5.49002 6.92926L5.82363 5.10423C5.85305 4.93947 5.94839 4.79226 6.08933 4.69401C6.23027 4.59575 6.40564 4.55423 6.57803 4.57829L8.49003 4.83781C9.09956 4.92061 9.70314 4.73238 10.1457 4.32164L11.5336 3.03335C11.6583 2.91668 11.8256 2.85138 11.9998 2.85138C12.174 2.85138 12.3413 2.91668 12.4661 3.03335L13.854 4.32164C14.2965 4.73243 14.9 4.92061 15.5096 4.83781L17.4216 4.57829C17.594 4.55425 17.7694 4.59578 17.9103 4.69403C18.0512 4.79229 18.1466 4.93948 18.176 5.10423L18.5096 6.9293C18.616 7.51123 18.989 8.00379 19.5329 8.28065L21.2387 9.14911C21.3929 9.22686 21.5093 9.35935 21.5632 9.51832C21.617 9.6773 21.604 9.85017 21.5269 10L20.6788 11.6647C20.4084 12.1954 20.4084 12.8043 20.6788 13.335L21.5269 14.9997C21.604 15.1496 21.6171 15.3225 21.5632 15.4815C21.5094 15.6405 21.393 15.773 21.2387 15.8507Z" fill="white"/>
<path d="M16.792 7.9042C16.536 7.65849 16.1208 7.65849 15.8647 7.9042L7.20963 16.2091C6.95356 16.4548 6.95356 16.8532 7.20963 17.0989C7.27045 17.1574 7.34272 17.2038 7.42229 17.2354C7.50185 17.267 7.58715 17.2833 7.67327 17.2832C7.84106 17.2832 8.00893 17.2218 8.13692 17.0989L16.792 8.79404C17.0482 8.54829 17.0482 8.14995 16.792 7.9042ZM9.37796 6.83887C8.05223 6.83887 6.97363 7.87381 6.97363 9.1459C6.97363 10.418 8.05223 11.4529 9.37796 11.4529C10.7037 11.4529 11.7823 10.418 11.7823 9.1459C11.7823 7.87381 10.7037 6.83887 9.37796 6.83887ZM9.37796 10.1945C8.77536 10.1945 8.28511 9.72412 8.28511 9.14586C8.28511 8.56764 8.77536 8.09723 9.37796 8.09723C9.98057 8.09723 10.4709 8.56764 10.4709 9.14586C10.4708 9.72412 9.98057 10.1945 9.37796 10.1945ZM14.6237 13.5502C13.298 13.5502 12.2194 14.5851 12.2194 15.8572C12.2194 17.1293 13.298 18.1642 14.6237 18.1642C15.9495 18.1642 17.028 17.1293 17.028 15.8572C17.028 14.5851 15.9495 13.5502 14.6237 13.5502ZM14.6237 16.9058C14.0211 16.9058 13.5308 16.4354 13.5308 15.8572C13.5308 15.279 14.0211 14.8086 14.6237 14.8086C15.2263 14.8086 15.7166 15.279 15.7166 15.8572C15.7166 16.4354 15.2263 16.9058 14.6237 16.9058Z" fill="white"/>
</svg>
