<svg width="26" height="26" viewBox="0 0 26 26" fill="none" xmlns="http://www.w3.org/2000/svg">
<path d="M21.5583 13.7151C21.3846 13.5174 21.2888 13.2632 21.2888 13.0001C21.2888 12.7369 21.3846 12.4828 21.5583 12.2851L22.945 10.7251C23.0978 10.5546 23.1927 10.3402 23.216 10.1125C23.2394 9.88476 23.19 9.6555 23.075 9.45759L20.9083 5.70926C20.7944 5.51157 20.6211 5.35487 20.4129 5.2615C20.2048 5.16813 19.9725 5.14284 19.7491 5.18926L17.7125 5.60092C17.4533 5.65447 17.1835 5.61131 16.954 5.47959C16.7245 5.34787 16.5511 5.1367 16.4666 4.88592L15.8058 2.90342C15.7331 2.68825 15.5947 2.50136 15.41 2.36917C15.2253 2.23698 15.0037 2.16617 14.7766 2.16676H10.4433C10.2071 2.15443 9.97328 2.21976 9.77766 2.35278C9.58205 2.4858 9.43535 2.67919 9.35997 2.90342L8.7533 4.88592C8.6688 5.1367 8.49544 5.34787 8.26592 5.47959C8.03641 5.61131 7.76662 5.65447 7.50747 5.60092L5.41664 5.18926C5.2049 5.15934 4.98904 5.19275 4.79626 5.28528C4.60348 5.37782 4.4424 5.52534 4.3333 5.70926L2.16664 9.45759C2.04873 9.65329 1.99571 9.88127 2.01517 10.1089C2.03462 10.3366 2.12556 10.5522 2.27497 10.7251L3.6508 12.2851C3.82448 12.4828 3.92026 12.7369 3.92026 13.0001C3.92026 13.2632 3.82448 13.5174 3.6508 13.7151L2.27497 15.2751C2.12556 15.4479 2.03462 15.6636 2.01517 15.8913C1.99571 16.1189 2.04873 16.3469 2.16664 16.5426L4.3333 20.2909C4.44716 20.4886 4.62051 20.6453 4.82866 20.7387C5.0368 20.8321 5.26911 20.8573 5.49247 20.8109L7.52914 20.3993C7.78829 20.3457 8.05808 20.3889 8.28759 20.5206C8.51711 20.6523 8.69047 20.8635 8.77497 21.1143L9.4358 23.0968C9.51118 23.321 9.65788 23.5144 9.8535 23.6474C10.0491 23.7804 10.2829 23.8458 10.5191 23.8334H14.8525C15.0796 23.834 15.3011 23.7632 15.4858 23.631C15.6705 23.4988 15.809 23.3119 15.8816 23.0968L16.5425 21.1143C16.627 20.8635 16.8003 20.6523 17.0298 20.5206C17.2594 20.3889 17.5292 20.3457 17.7883 20.3993L19.825 20.8109C20.0483 20.8573 20.2806 20.8321 20.4888 20.7387C20.6969 20.6453 20.8703 20.4886 20.9841 20.2909L23.1508 16.5426C23.2658 16.3447 23.3152 16.1154 23.2918 15.8877C23.2685 15.66 23.1736 15.4455 23.0208 15.2751L21.5583 13.7151ZM19.9441 15.1668L20.8108 16.1418L19.4241 18.5468L18.1458 18.2868C17.3656 18.1273 16.5539 18.2598 15.8649 18.6592C15.176 19.0586 14.6576 19.6971 14.4083 20.4534L13.9966 21.6668H11.2233L10.8333 20.4318C10.584 19.6754 10.0656 19.0369 9.37666 18.6375C8.68768 18.2381 7.87604 18.1056 7.0958 18.2651L5.81747 18.5251L4.40914 16.1309L5.2758 15.1559C5.80875 14.5601 6.1034 13.7887 6.1034 12.9893C6.1034 12.1898 5.80875 11.4184 5.2758 10.8226L4.40914 9.84759L5.7958 7.46426L7.07414 7.72426C7.85438 7.88375 8.66602 7.75121 9.35499 7.35181C10.044 6.9524 10.5623 6.31393 10.8116 5.55759L11.2233 4.33342H13.9966L14.4083 5.56842C14.6576 6.32476 15.176 6.96323 15.8649 7.36264C16.5539 7.76204 17.3656 7.89458 18.1458 7.73509L19.4241 7.47509L20.8108 9.88009L19.9441 10.8551C19.4172 11.4496 19.1262 12.2165 19.1262 13.0109C19.1262 13.8054 19.4172 14.5723 19.9441 15.1668ZM12.61 8.66676C11.7529 8.66676 10.9151 8.9209 10.2025 9.39706C9.48988 9.87321 8.93447 10.55 8.60649 11.3418C8.27851 12.1336 8.1927 13.0049 8.3599 13.8455C8.5271 14.6861 8.93981 15.4582 9.54584 16.0642C10.1519 16.6702 10.924 17.083 11.7646 17.2502C12.6052 17.4174 13.4765 17.3315 14.2683 17.0036C15.0601 16.6756 15.7369 16.1202 16.213 15.4076C16.6892 14.6949 16.9433 13.8571 16.9433 13.0001C16.9433 11.8508 16.4868 10.7486 15.6741 9.93596C14.8614 9.1233 13.7592 8.66676 12.61 8.66676ZM12.61 15.1668C12.1814 15.1668 11.7625 15.0397 11.4062 14.8016C11.0499 14.5635 10.7722 14.2251 10.6082 13.8292C10.4442 13.4333 10.4013 12.9977 10.4849 12.5774C10.5685 12.1571 10.7749 11.771 11.0779 11.468C11.3809 11.165 11.767 10.9587 12.1873 10.8751C12.6076 10.7915 13.0432 10.8344 13.4391 10.9984C13.835 11.1623 14.1734 11.44 14.4115 11.7964C14.6496 12.1527 14.7766 12.5716 14.7766 13.0001C14.7766 13.5747 14.5484 14.1258 14.142 14.5322C13.7357 14.9385 13.1846 15.1668 12.61 15.1668Z" fill="white"/>
</svg>
