<svg width="24" height="24" viewBox="0 0 24 24" fill="none" xmlns="http://www.w3.org/2000/svg">
<path d="M21.5494 2.69337H21.5081V2.02566C21.5081 1.4612 21.0475 1 20.4837 1C19.9166 1 19.4594 1.4612 19.4594 2.02566V2.69337H18.1153V2.02566C18.1153 1.4612 17.6547 1 17.0909 1C16.5238 1 16.0666 1.4612 16.0666 2.02566V2.69337H14.7191V2.02566C14.7191 1.4612 14.2619 1 13.6981 1C13.1309 1 12.6737 1.4612 12.6737 2.02566V2.69337H11.3263V2.02566C11.3263 1.4612 10.8691 1 10.3019 1C9.73812 1 9.28094 1.4612 9.28094 2.02566V2.69337H7.93344V2.02566C7.93344 1.4612 7.47625 1 6.90906 1C6.34531 1 5.88469 1.4612 5.88469 2.02566V2.69337H4.54063V2.02566C4.54063 1.4612 4.08344 1 3.51625 1C2.9525 1 2.49188 1.4612 2.49188 2.02566V2.69337H2.45062C2.0659 2.69337 1.69692 2.84639 1.42488 3.11878C1.15283 3.39116 1 3.7606 1 4.14581V21.551C1 22.3495 1.64969 23 2.45062 23H21.5494C22.3503 23 23 22.3495 23 21.551V4.14581C23 3.7606 22.8472 3.39116 22.5751 3.11878C22.3031 2.84639 21.9341 2.69337 21.5494 2.69337ZM19.975 2.02566C19.975 1.74687 20.2019 1.51627 20.4837 1.51627C20.7622 1.51627 20.9925 1.74687 20.9925 2.02566V3.87735C20.9925 4.15957 20.7622 4.38673 20.4837 4.38673C20.2019 4.38673 19.975 4.15957 19.975 3.87735V2.02566ZM16.5822 2.02566C16.5822 1.74687 16.8091 1.51627 17.0909 1.51627C17.3694 1.51627 17.5997 1.74687 17.5997 2.02566V3.87735C17.5997 4.15957 17.3694 4.38673 17.0909 4.38673C16.8091 4.38673 16.5822 4.15957 16.5822 3.87735V2.02566ZM15.8397 6.56195H18.9025V14.2647H15.8397V6.56195ZM20.6934 19.4584V20.4978H18.6859V19.4584H20.6934ZM13.1894 2.02566C13.1894 1.74687 13.4163 1.51627 13.6981 1.51627C13.9766 1.51627 14.2034 1.74687 14.2034 2.02566V3.87735C14.2034 4.01199 14.15 4.14111 14.0549 4.23632C13.9598 4.33153 13.8309 4.38501 13.6964 4.38501C13.5619 4.38501 13.433 4.33153 13.3379 4.23632C13.2428 4.14111 13.1894 4.01199 13.1894 3.87735V2.02566ZM9.79656 2.02566C9.79656 1.74687 10.0234 1.51627 10.3019 1.51627C10.5837 1.51627 10.8106 1.74687 10.8106 2.02566V3.87735C10.8106 4.01199 10.7572 4.14111 10.6621 4.23632C10.567 4.33153 10.4381 4.38501 10.3036 4.38501C10.1691 4.38501 10.0402 4.33153 9.94507 4.23632C9.84998 4.14111 9.79656 4.01199 9.79656 3.87735V2.02566ZM8.67594 10.107H10.2091C10.3534 10.107 10.4669 9.98999 10.4669 9.84887V8.28974C10.4669 8.14518 10.3534 8.0316 10.2091 8.0316H8.67594V6.56195H11.7422V14.2647H10.7488V12.9637C10.7488 12.8226 10.6319 12.7056 10.4909 12.7056H8.67594V10.107ZM13.5331 16.3401V17.383H10.7488V16.3401H13.5331ZM7.16688 11.1464V10.107H8.16031V11.1464H7.16688ZM6.65125 11.1464H3.30656V10.107H6.65125V11.1464ZM6.88844 13.2218H10.2331V14.2647H6.88844V13.2218ZM6.40031 2.02566C6.40031 1.74687 6.63063 1.51627 6.90906 1.51627C7.19094 1.51627 7.41781 1.74687 7.41781 2.02566V3.87735C7.41781 4.15957 7.19094 4.38673 6.90906 4.38673C6.63063 4.38673 6.40031 4.15957 6.40031 3.87735V2.02566ZM5.0975 6.56195H8.16031V8.0316H5.0975V6.56195ZM3.0075 2.02566C3.0075 1.74687 3.23781 1.51627 3.51625 1.51627C3.79812 1.51627 4.025 1.74687 4.025 2.02566V3.87735C4.025 4.15957 3.79812 4.38673 3.51625 4.38673C3.23781 4.38673 3.0075 4.15957 3.0075 3.87735V2.02566ZM4.58188 22.4837H2.45062C2.20324 22.4837 1.96594 22.3856 1.79069 22.2108C1.61544 22.0359 1.51653 21.7987 1.51562 21.551V6.56195H4.58188V8.0316H3.04875C2.90437 8.0316 2.79094 8.14518 2.79094 8.28974V11.4046C2.79094 11.5491 2.90437 11.6627 3.04875 11.6627H4.3V12.9637C4.3 13.1083 4.41344 13.2218 4.55781 13.2218H4.58188V22.4837ZM8.16031 22.4837H5.0975V13.2218H6.37281V14.5228C6.37281 14.6674 6.48625 14.781 6.63062 14.781H8.16031V22.4837ZM11.7422 22.4837H8.67594V14.781H10.2331V17.6411C10.2331 17.7822 10.35 17.8992 10.4909 17.8992H11.7422V22.4837ZM15.3241 22.4837H12.2578V17.8992H13.7909C13.9319 17.8992 14.0487 17.7822 14.0487 17.6411V16.3401H15.3241V22.4837ZM15.3241 14.2647H12.2578V6.56195H15.3241V14.2647ZM18.9025 22.4837H15.8397V16.3401H18.9025V17.383H17.3728C17.2284 17.383 17.115 17.4966 17.115 17.6411V19.2002C17.115 19.3414 17.2284 19.4584 17.3728 19.4584H18.1703V20.7559C18.1703 20.9005 18.2838 21.0141 18.4281 21.0141H18.9025V22.4837ZM22.4844 21.551C22.4835 21.7987 22.3846 22.0359 22.2093 22.2108C22.0341 22.3856 21.7968 22.4837 21.5494 22.4837H19.4181V21.0141H20.9513C21.0956 21.0141 21.2091 20.9005 21.2091 20.7559V17.6411C21.2091 17.4966 21.0956 17.383 20.9513 17.383H19.4181V6.56195H22.4844V21.551Z" fill="white"/>
</svg>
