<svg width="24" height="24" viewBox="0 0 24 24" fill="none" xmlns="http://www.w3.org/2000/svg">
<g clip-path="url(#clip0_647_4807)">
<path d="M0.501563 22.6789H7.02898V17.2899L4.71808 16.328H2.81246L0.501563 17.2899V22.6789Z" stroke="white" stroke-width="0.3"/>
<mask id="mask0_647_4807" style="mask-type:luminance" maskUnits="userSpaceOnUse" x="0" y="0" width="24" height="24">
<path d="M23.8499 23.85V0.15007H0.15V23.85H23.8499Z" fill="white" stroke="white" stroke-width="0.3"/>
</mask>
<g mask="url(#mask0_647_4807)">
<path d="M2.61581 14.8095H4.91563C5.48941 14.8095 5.95453 14.3444 5.95453 13.7706V11.7904H1.57695V13.7706C1.57695 14.3444 2.04209 14.8095 2.61581 14.8095Z" stroke="white" stroke-width="0.4"/>
<path d="M5.68109 13.7706C5.68109 14.1393 5.54255 14.4755 5.31469 14.73C5.69027 14.5735 5.95417 14.203 5.95417 13.7706V11.7905H5.68109V13.7706Z" stroke="white" stroke-width="0.4"/>
<path d="M0.90037 11.3903C0.900359 11.3903 0.900347 11.3903 0.900335 11.3903C0.88217 11.3903 0.864753 11.3831 0.851909 11.3703C0.839056 11.3574 0.831836 11.34 0.831836 11.3218V10.5959C0.831836 10.5778 0.839056 10.5603 0.851909 10.5475C0.864753 10.5346 0.88217 10.5274 0.900335 10.5274L0.90037 11.3903ZM0.90037 11.3903H6.62967H0.90037ZM6.62967 10.5274C6.62969 10.5274 6.6297 10.5274 6.62971 10.5274C6.64788 10.5274 6.66531 10.5346 6.67816 10.5475C6.69102 10.5603 6.69824 10.5778 6.69826 10.5959L6.62967 10.5274ZM6.62967 10.5274H0.90037H6.62967ZM6.69826 11.3217C6.69826 11.3218 6.69826 11.3218 6.69826 11.3218C6.69824 11.34 6.69102 11.3574 6.67816 11.3702C6.66531 11.3831 6.64788 11.3903 6.62971 11.3903L6.69826 11.3217ZM6.69826 11.3217V10.596V11.3217Z" stroke="white" stroke-width="0.4"/>
<path d="M6.62995 10.5275H6.4167C6.41998 10.5499 6.42167 10.5728 6.42167 10.5961V11.3217C6.42167 11.345 6.41997 11.3679 6.41668 11.3903H6.62995C6.66721 11.3903 6.69812 11.3598 6.69812 11.3217V10.5961C6.69812 10.5578 6.66744 10.5275 6.62995 10.5275Z" stroke="white" stroke-width="0.4"/>
<path d="M1.32098 10.1274H6.21003C6.11027 9.19439 5.32052 8.46776 4.36108 8.46776H3.16994C2.2105 8.46776 1.42074 9.19439 1.32098 10.1274Z" stroke="white" stroke-width="0.4"/>
<path d="M6.2096 10.1276C6.15229 9.59184 5.8674 9.12414 5.45357 8.82299C5.76877 9.17594 5.97477 9.6285 6.01853 10.1276H6.2096Z" stroke="white" stroke-width="0.4"/>
<path d="M4.1239 7.87845H3.40751C3.40296 7.87845 3.39845 7.87934 3.39424 7.88109C3.39004 7.88283 3.38622 7.88538 3.383 7.8886C3.3765 7.8951 3.37285 7.90391 3.37285 7.9131V10.1274H4.15855V7.9131C4.15855 7.90391 4.1549 7.8951 4.1484 7.8886C4.1419 7.8821 4.13309 7.87845 4.1239 7.87845Z" stroke="white" stroke-width="0.4"/>
<path d="M4.12375 7.87874H3.96428C3.96517 7.89008 3.96562 7.90154 3.96562 7.91311V10.1276H4.15859V7.91311C4.15859 7.89446 4.14339 7.87874 4.12375 7.87874Z" stroke="white" stroke-width="0.4"/>
<path d="M4.5475 15.2094H2.98223V15.9777H4.5475V15.2094Z" stroke="white" stroke-width="0.4"/>
<path d="M4.24785 15.2094V15.978H4.54774V15.2094H4.24785Z" stroke="white" stroke-width="0.4"/>
<path d="M4.4231 16.3781H3.10663L3.76486 17.6873L4.4231 16.3781Z" stroke="white" stroke-width="0.4"/>
<path d="M3.63888 17.4372L3.76476 17.6876L4.42329 16.3781H4.17117L3.63888 17.4372Z" stroke="white" stroke-width="0.4"/>
<path d="M0.551563 19.7036V20.8605H6.97907V19.7036H0.551563Z" stroke="white" stroke-width="0.4"/>
<path d="M6.97855 21.0605V21.0605V17.3234L6.15121 16.9788L4.73578 22.6291L6.97871 22.6289L6.97855 21.0605Z" stroke="white" stroke-width="0.4"/>
<path d="M5.17912 20.8605H6.97899V19.7034H5.46894L5.17912 20.8605Z" stroke="white" stroke-width="0.4"/>
<path d="M17.0213 22.6289H23.4488V17.3233L21.1778 16.378H19.2922L17.0213 17.3233V22.6289Z" stroke="white" stroke-width="0.4"/>
<path d="M23.1482 22.6291H23.4481V17.3234L23.1482 17.1985V22.6291Z" stroke="white" stroke-width="0.4"/>
<path d="M19.0846 14.8095H21.3844C21.9582 14.8095 22.4233 14.3444 22.4233 13.7706V11.7904H18.0457V13.7706C18.0457 14.3444 18.5108 14.8095 19.0846 14.8095Z" stroke="white" stroke-width="0.4"/>
<path d="M22.1498 13.7706C22.1498 14.1393 22.0113 14.4755 21.7834 14.73C22.159 14.5736 22.423 14.203 22.423 13.7706V11.7905H22.1498V13.7706Z" stroke="white" stroke-width="0.4"/>
<path d="M17.3016 11.3218V11.3218V10.5959V10.5959C17.3016 10.5869 17.3033 10.578 17.3068 10.5697C17.3102 10.5614 17.3153 10.5538 17.3216 10.5474C17.328 10.5411 17.3355 10.536 17.3438 10.5326C17.3522 10.5292 17.3611 10.5274 17.3701 10.5274H23.0994C23.0994 10.5274 23.0994 10.5274 23.0994 10.5274C23.1176 10.5274 23.135 10.5346 23.1479 10.5475L23.2893 10.4061L23.1479 10.5475C23.1607 10.5603 23.168 10.5778 23.168 10.5959L17.3016 11.3218ZM17.3016 11.3218C17.3016 11.3308 17.3033 11.3397 17.3068 11.348C17.3102 11.3564 17.3153 11.3639 17.3216 11.3703C17.328 11.3766 17.3355 11.3817 17.3438 11.3851C17.3522 11.3886 17.3611 11.3903 17.3701 11.3903H23.0994M17.3016 11.3218L23.0994 11.3903M23.0994 11.3903C23.0994 11.3903 23.0994 11.3903 23.0994 11.3903C23.1176 11.3903 23.135 11.3831 23.1479 11.3702L23.2893 11.5117L23.1479 11.3702C23.1607 11.3574 23.168 11.34 23.168 11.3218C23.168 11.3218 23.168 11.3218 23.168 11.3218M23.0994 11.3903L23.168 11.3218M23.168 11.3218V10.596V11.3218Z" stroke="white" stroke-width="0.4"/>
<path d="M23.0997 10.5275H22.8865C22.8897 10.5499 22.8914 10.5728 22.8914 10.5961V11.3217C22.8914 11.3448 22.8897 11.3678 22.8864 11.3903H23.0997C23.1369 11.3903 23.1678 11.3599 23.1678 11.3217V10.5961C23.1678 10.5578 23.1372 10.5275 23.0997 10.5275Z" stroke="white" stroke-width="0.4"/>
<path d="M17.7897 10.1274H22.6788C22.579 9.19439 21.7893 8.46776 20.8298 8.46776H19.6387C18.6792 8.46776 17.8895 9.19439 17.7897 10.1274Z" stroke="white" stroke-width="0.4"/>
<path d="M22.6793 10.1276C22.622 9.59184 22.3371 9.12414 21.9233 8.82299C22.2385 9.17594 22.4445 9.6285 22.4883 10.1276H22.6793Z" stroke="white" stroke-width="0.4"/>
<path d="M20.5926 7.87845H19.8763C19.8717 7.87845 19.8672 7.87934 19.863 7.88109C19.8588 7.88283 19.855 7.88538 19.8518 7.8886C19.8453 7.8951 19.8416 7.90391 19.8416 7.9131V10.1274H20.6273V7.9131C20.6273 7.90391 20.6237 7.8951 20.6172 7.8886C20.6107 7.8821 20.6018 7.87845 20.5926 7.87845Z" stroke="white" stroke-width="0.4"/>
<path d="M20.5925 7.87874H20.433C20.4339 7.89008 20.4344 7.90154 20.4344 7.91311V10.1276H20.6273V7.91311C20.6273 7.89446 20.6121 7.87874 20.5925 7.87874Z" stroke="white" stroke-width="0.4"/>
<path d="M21.0172 15.2094H19.452V15.9777H21.0172V15.2094Z" stroke="white" stroke-width="0.4"/>
<path d="M20.7176 15.2094V15.978H21.0175V15.2094H20.7176Z" stroke="white" stroke-width="0.4"/>
<path d="M20.8928 16.3781H19.5764L20.2346 17.6873L20.8928 16.3781Z" stroke="white" stroke-width="0.4"/>
<path d="M20.1086 17.4372L20.2345 17.6876L20.893 16.3781H20.6409L20.1086 17.4372Z" stroke="white" stroke-width="0.4"/>
<path d="M17.0213 19.7036V20.8605H23.4488V19.7036H17.0213Z" stroke="white" stroke-width="0.4"/>
<path d="M23.1482 19.7034V20.8605H23.4481V19.7034H23.1482Z" stroke="white" stroke-width="0.4"/>
<path d="M15.2994 7.90137L15.5372 9.13806C16.1489 9.05813 16.6213 8.53492 16.6213 7.90137C16.6213 7.26782 16.1489 6.74462 15.5372 6.66469L15.2994 7.90137Z" stroke="white" stroke-width="0.4"/>
<path d="M7.37871 7.90137C7.37871 8.53388 7.8495 9.0564 8.45978 9.13766L8.6756 7.90137L8.45978 6.66509C7.8495 6.74634 7.37871 7.26887 7.37871 7.90137Z" stroke="white" stroke-width="0.4"/>
<path d="M8.10234 9.03394C8.21358 9.08542 8.33367 9.12109 8.45989 9.1379L8.67572 7.90139L8.45987 6.66516C8.33624 6.6816 8.21569 6.71663 8.10234 6.76916V9.03394Z" stroke="white" stroke-width="0.4"/>
<path d="M10.3756 11.5856H13.6235C14.4794 11.5856 15.1732 10.8919 15.1732 10.036V6.65414H8.82598V10.036C8.82598 10.8919 9.5198 11.5856 10.3756 11.5856Z" stroke="white" stroke-width="0.4"/>
<path d="M14.7291 10.0361C14.7291 10.6371 14.4573 11.1746 14.0298 11.5322C14.689 11.3539 15.1738 10.7517 15.1738 10.0361V6.65434H14.7291V10.0361Z" stroke="white" stroke-width="0.4"/>
<path d="M16.0458 6.2541H16.0458C16.0693 6.2541 16.0926 6.24947 16.1144 6.24047C16.1361 6.23146 16.1559 6.21826 16.1725 6.20162C16.1892 6.18498 16.2024 6.16522 16.2114 6.14347L16.3955 6.21973L16.2114 6.14347C16.2204 6.12173 16.225 6.09842 16.225 6.07488V5.29128C16.225 5.26774 16.2204 5.24443 16.2114 5.22269L16.3962 5.14615L16.2114 5.22269C16.2024 5.20094 16.1892 5.18118 16.1725 5.16454C16.1559 5.1479 16.1361 5.1347 16.1144 5.1257L16.1909 4.94091L16.1144 5.12569C16.0926 5.11669 16.0693 5.11206 16.0458 5.11206H16.0458H7.95446H7.95443C7.9309 5.11206 7.90759 5.11669 7.88584 5.12569C7.8641 5.1347 7.84434 5.1479 7.82769 5.16454C7.81105 5.18119 7.79785 5.20094 7.78884 5.22269C7.77983 5.24443 7.7752 5.26774 7.7752 5.29128V6.07488C7.7752 6.09842 7.77983 6.12173 7.78884 6.14347C7.79785 6.16522 7.81105 6.18498 7.82769 6.20162C7.84434 6.21826 7.8641 6.23146 7.88584 6.24047C7.90759 6.24947 7.9309 6.2541 7.95443 6.2541H7.95446H16.0458Z" stroke="white" stroke-width="0.4"/>
<path d="M16.0454 5.11216H15.8108C15.8291 5.16859 15.839 5.22882 15.839 5.29138V6.07513C15.839 6.13769 15.8291 6.19792 15.8108 6.25435H16.0454C16.1445 6.25435 16.2247 6.1742 16.2247 6.07513V5.29138C16.2247 5.19231 16.1445 5.11216 16.0454 5.11216Z" stroke="white" stroke-width="0.4"/>
<path d="M8.45727 4.71211H15.5423C15.44 3.3095 14.2696 2.20334 12.8408 2.20334H11.1588C9.73001 2.20334 8.55963 3.3095 8.45727 4.71211Z" stroke="white" stroke-width="0.4"/>
<path d="M15.5429 4.71211C15.4679 3.68463 14.8195 2.81626 13.9164 2.42531C14.6213 2.95499 15.0937 3.77742 15.153 4.71211H15.5429Z" stroke="white" stroke-width="0.4"/>
<path d="M12.5062 1.37112H11.4945H11.4944C11.4596 1.37113 11.4262 1.38498 11.4016 1.40962C11.3769 1.43426 11.3631 1.46768 11.3631 1.50253V4.71211H12.6375V1.50253C12.6375 1.46768 12.6237 1.43426 12.5991 1.40961C12.5744 1.38498 12.541 1.37113 12.5062 1.37112C12.5062 1.37112 12.5062 1.37112 12.5062 1.37112Z" stroke="white" stroke-width="0.4"/>
<path d="M12.5054 1.37103H12.2338C12.2445 1.41306 12.2502 1.45709 12.2502 1.50243V4.71211H12.6368V1.50243C12.6368 1.46758 12.6229 1.43416 12.5983 1.40951C12.5736 1.38487 12.5402 1.37103 12.5054 1.37103Z" stroke="white" stroke-width="0.4"/>
<path d="M13.1878 11.9857H10.8123V13.2358H13.1878V11.9857Z" stroke="white" stroke-width="0.4"/>
<path d="M12.7293 11.9858V13.2358H13.1876V11.9858H12.7293Z" stroke="white" stroke-width="0.4"/>
<path d="M5.43989 22.6289H18.5597L16.8599 15.8448L16.8599 15.8446C16.7972 15.5935 16.678 15.3601 16.5115 15.162L16.5111 15.1616C16.3352 14.9512 16.1112 14.7864 15.858 14.6811L15.8579 14.6811L13.3476 13.6359H10.652L8.14173 14.6811L8.14163 14.6811C7.88843 14.7864 7.66438 14.9512 7.4885 15.1616L7.48812 15.162C7.32157 15.3601 7.20242 15.5935 7.13976 15.8446L7.13972 15.8448L5.43989 22.6289Z" stroke="white" stroke-width="0.4"/>
<path d="M15.8579 14.6813L15.6255 14.5845C15.7479 14.6783 15.86 14.7857 15.9596 14.9049C16.1652 15.1493 16.3123 15.4375 16.3898 15.7474C16.3898 15.7474 16.3898 15.7475 16.3898 15.7475L18.1139 22.6291H18.5594L16.8597 15.8446L16.8596 15.8444C16.797 15.5934 16.6778 15.36 16.5112 15.1622L16.5106 15.1615C16.335 14.9511 16.1112 14.7863 15.8581 14.6814L15.8579 14.6813Z" stroke="white" stroke-width="0.4"/>
<path d="M8.14122 14.6813L8.14097 14.6814C7.9388 14.7652 7.75527 14.8872 7.60014 15.0402C8.08595 15.6586 8.3534 16.4247 8.3534 17.2191V22.6291H15.6456V17.2192C15.6456 17.2191 15.6456 17.2191 15.6456 17.2191C15.6454 16.4272 15.9118 15.6602 16.3988 15.0402C16.2437 14.8872 16.0602 14.7652 15.858 14.6814L15.8577 14.6813L13.4637 13.6843L12.1667 15.6624L11.9995 15.9175L11.8322 15.6624L10.5352 13.6843L8.14122 14.6813Z" stroke="white" stroke-width="0.4"/>
<path d="M15.8586 14.6813L15.6256 14.5842C15.7482 14.6782 15.8605 14.7858 15.9602 14.9052L16.0694 15.0362L15.9574 15.1647C15.4626 15.7326 15.1882 16.4613 15.1882 17.2191V22.6291H15.6464V17.2192C15.6464 17.2191 15.6464 17.2191 15.6464 17.2191C15.6463 16.4272 15.9127 15.6602 16.3997 15.0402C16.2446 14.8872 16.061 14.7652 15.8589 14.6814L15.8586 14.6813Z" stroke="white" stroke-width="0.4"/>
<path d="M8.3543 18.3324V20.1313H15.6462V18.3324H8.3543Z" stroke="white" stroke-width="0.4"/>
<path d="M15.1873 18.3326V20.1311H15.6456V18.3326H15.1873Z" stroke="white" stroke-width="0.4"/>
<path d="M17.3486 16.9704L19.2523 16.178H21.2178L23.6488 17.1899V22.8289" stroke="white" stroke-width="0.4" stroke-miterlimit="10" stroke-linecap="round" stroke-linejoin="round"/>
<path d="M21.3844 15.0095H19.0846C18.4004 15.0095 17.8457 14.4549 17.8457 13.7706V11.5904H22.6233V13.7706C22.6233 14.4549 22.0686 15.0095 21.3844 15.0095Z" stroke="white" stroke-width="0.4" stroke-miterlimit="10" stroke-linecap="round" stroke-linejoin="round"/>
<path d="M23.0994 11.5903H17.3701C17.3348 11.5903 17.2999 11.5834 17.2673 11.5699C17.2347 11.5564 17.2051 11.5366 17.1802 11.5117C17.1553 11.4867 17.1355 11.4571 17.122 11.4246C17.1085 11.392 17.1016 11.357 17.1016 11.3218V10.5959C17.1016 10.5607 17.1085 10.5257 17.122 10.4932C17.1355 10.4606 17.1553 10.431 17.1802 10.406C17.2051 10.3811 17.2347 10.3613 17.2673 10.3478C17.2999 10.3343 17.3348 10.3274 17.3701 10.3274H23.0994C23.1707 10.3274 23.239 10.3557 23.2893 10.4061C23.3397 10.4564 23.368 10.5247 23.368 10.5959V11.3218C23.368 11.393 23.3397 11.4613 23.2893 11.5117C23.239 11.562 23.1707 11.5903 23.0994 11.5903Z" stroke="white" stroke-width="0.4" stroke-miterlimit="10" stroke-linecap="round" stroke-linejoin="round"/>
<path d="M20.8271 8.26776H20.8298C21.9673 8.26776 22.8894 9.18988 22.8894 10.3274H17.5791C17.5791 9.18988 18.5012 8.26776 19.6387 8.26776H19.6414" stroke="white" stroke-width="0.4" stroke-miterlimit="10" stroke-linecap="round" stroke-linejoin="round"/>
<path d="M20.5926 7.67845H19.8763C19.8454 7.67845 19.8149 7.68452 19.7865 7.69631C19.758 7.7081 19.7321 7.72539 19.7103 7.74718C19.6663 7.79118 19.6416 7.85087 19.6416 7.9131V10.3274H20.8273V7.9131C20.8273 7.85087 20.8026 7.79118 20.7586 7.74718C20.7146 7.70317 20.6549 7.67845 20.5926 7.67845Z" stroke="white" stroke-width="0.4" stroke-miterlimit="10" stroke-linecap="round" stroke-linejoin="round"/>
<path d="M20.2344 11.5904V12.4233" stroke="white" stroke-width="0.4" stroke-miterlimit="10" stroke-linecap="round" stroke-linejoin="round"/>
<path d="M19.6787 13.4455C19.7764 13.6546 19.9888 13.7996 20.2349 13.7996C20.4811 13.7996 20.6935 13.6546 20.7911 13.4455" stroke="white" stroke-width="0.4" stroke-miterlimit="10" stroke-linecap="round" stroke-linejoin="round"/>
<path d="M21.2172 15.0094H19.252V16.1777H21.2172V15.0094Z" stroke="white" stroke-width="0.4" stroke-miterlimit="10" stroke-linecap="round" stroke-linejoin="round"/>
<path d="M19.252 16.1781L20.2346 18.1326L21.2172 16.1781H19.252Z" stroke="white" stroke-width="0.4" stroke-miterlimit="10" stroke-linecap="round" stroke-linejoin="round"/>
<path d="M20.2344 18.1324V22.8289" stroke="white" stroke-width="0.4" stroke-miterlimit="10" stroke-linecap="round" stroke-linejoin="round"/>
<path d="M22.7712 19.5036H23.6483V21.0605H18.373" stroke="white" stroke-width="0.4" stroke-miterlimit="10" stroke-linecap="round" stroke-linejoin="round"/>
<path d="M17.9824 19.5034H21.1322" stroke="white" stroke-width="0.4" stroke-miterlimit="10" stroke-linecap="round" stroke-linejoin="round"/>
<path d="M13.6235 11.7856H10.3756C9.40935 11.7856 8.62598 11.0023 8.62598 10.036V6.45415H15.3732V10.036C15.3732 11.0023 14.5898 11.7856 13.6235 11.7856Z" stroke="white" stroke-width="0.4" stroke-miterlimit="10" stroke-linecap="round" stroke-linejoin="round"/>
<path d="M16.0458 6.4541H7.95446C7.90466 6.45411 7.85534 6.4443 7.80932 6.42525C7.76331 6.40619 7.7215 6.37826 7.68628 6.34305C7.65106 6.30783 7.62313 6.26603 7.60407 6.22002C7.58501 6.174 7.5752 6.12469 7.5752 6.07488V5.29128C7.5752 5.24147 7.58501 5.19216 7.60407 5.14615C7.62313 5.10013 7.65106 5.05833 7.68628 5.02311C7.7215 4.9879 7.76331 4.95997 7.80932 4.94091C7.85534 4.92186 7.90466 4.91205 7.95446 4.91206H16.0458C16.0956 4.91205 16.1449 4.92186 16.1909 4.94091C16.2369 4.95997 16.2787 4.9879 16.3139 5.02311C16.3492 5.05833 16.3771 5.10013 16.3962 5.14615C16.4152 5.19216 16.425 5.24147 16.425 5.29128V6.07488C16.425 6.12469 16.4152 6.174 16.3962 6.22002C16.3771 6.26603 16.3492 6.30783 16.3139 6.34305C16.2787 6.37826 16.2369 6.40619 16.1909 6.42525C16.1449 6.4443 16.0956 6.45411 16.0458 6.4541Z" stroke="white" stroke-width="0.4" stroke-miterlimit="10" stroke-linecap="round" stroke-linejoin="round"/>
<path d="M12.837 2.00348L12.8408 2.00338C14.4473 2.00338 15.7496 3.30566 15.7496 4.91211H8.25C8.25 3.30566 9.55228 2.00338 11.1587 2.00338H11.1625" stroke="white" stroke-width="0.4" stroke-miterlimit="10" stroke-linecap="round" stroke-linejoin="round"/>
<path d="M12.5062 1.17112H11.4944C11.4066 1.17113 11.3223 1.20605 11.2601 1.2682C11.198 1.33035 11.1631 1.41464 11.1631 1.50253V4.91211H12.8375V1.50253C12.8375 1.41464 12.8026 1.33035 12.7405 1.2682C12.6784 1.20605 12.5941 1.17113 12.5062 1.17112Z" stroke="white" stroke-width="0.4" stroke-miterlimit="10" stroke-linecap="round" stroke-linejoin="round"/>
<path d="M9.04102 2.91889L9.75581 3.40039" stroke="white" stroke-width="0.4" stroke-miterlimit="10" stroke-linecap="round" stroke-linejoin="round"/>
<path d="M14.9589 2.91889L14.2441 3.40039" stroke="white" stroke-width="0.4" stroke-miterlimit="10" stroke-linecap="round" stroke-linejoin="round"/>
<path d="M12 7.54919V8.68042" stroke="white" stroke-width="0.4" stroke-miterlimit="10" stroke-linecap="round" stroke-linejoin="round"/>
<path d="M11.2148 9.77577C11.3528 10.0712 11.6528 10.2759 12.0004 10.2759C12.348 10.2759 12.648 10.0712 12.786 9.77577" stroke="white" stroke-width="0.4" stroke-miterlimit="10" stroke-linecap="round" stroke-linejoin="round"/>
<path d="M13.3878 11.7857H10.6123V13.4358H13.3878V11.7857Z" stroke="white" stroke-width="0.4" stroke-miterlimit="10" stroke-linecap="round" stroke-linejoin="round"/>
<path d="M8.62597 9.34863C7.82666 9.34863 7.17871 8.70068 7.17871 7.90137C7.17871 7.10206 7.82666 6.45411 8.62597 6.45411V9.34863Z" stroke="white" stroke-width="0.4" stroke-miterlimit="10" stroke-linecap="round" stroke-linejoin="round"/>
<path d="M15.374 9.34863C16.1733 9.34863 16.8213 8.70068 16.8213 7.90137C16.8213 7.10206 16.1733 6.45411 15.374 6.45411V9.34863Z" stroke="white" stroke-width="0.4" stroke-miterlimit="10" stroke-linecap="round" stroke-linejoin="round"/>
<path d="M5.18359 22.8289L6.94571 15.7962C7.01578 15.5156 7.14894 15.2547 7.33506 15.0333" stroke="white" stroke-width="0.4" stroke-miterlimit="10" stroke-linecap="round" stroke-linejoin="round"/>
<path d="M16.665 15.0333C16.8512 15.2546 16.9844 15.5155 17.0544 15.7961L18.8165 22.8289" stroke="white" stroke-width="0.4" stroke-miterlimit="10" stroke-linecap="round" stroke-linejoin="round"/>
<path d="M8.15368 22.8289V17.2189C8.15374 16.4154 7.86292 15.639 7.33496 15.0333C7.53149 14.7982 7.78184 14.6141 8.06476 14.4964L10.6119 13.4359H13.3874L14.2715 13.8039" stroke="white" stroke-width="0.4" stroke-miterlimit="10" stroke-linecap="round" stroke-linejoin="round"/>
<path d="M15.6729 14.3874L15.9349 14.4965C16.2178 14.6141 16.4682 14.7983 16.6647 15.0333C16.1367 15.639 15.8459 16.4154 15.846 17.2189V22.8289" stroke="white" stroke-width="0.4" stroke-miterlimit="10" stroke-linecap="round" stroke-linejoin="round"/>
<path d="M10.6123 13.4359L12 15.5525L13.3878 13.4359H10.6123Z" stroke="white" stroke-width="0.4" stroke-miterlimit="10" stroke-linecap="round" stroke-linejoin="round"/>
<path d="M12 15.5525V22.8289" stroke="white" stroke-width="0.4" stroke-miterlimit="10" stroke-linecap="round" stroke-linejoin="round"/>
<path d="M15.8462 20.3313H8.1543V18.1324H15.8462V20.3313Z" stroke="white" stroke-width="0.4" stroke-miterlimit="10" stroke-linecap="round" stroke-linejoin="round"/>
<path d="M6.65168 16.9704L4.74805 16.178H2.78254L0.351562 17.1899V22.8289" stroke="white" stroke-width="0.4" stroke-miterlimit="10" stroke-linecap="round" stroke-linejoin="round"/>
<path d="M2.61586 15.0095H4.91568C5.59986 15.0095 6.15453 14.4549 6.15453 13.7706V11.5904H1.37695V13.7706C1.37695 14.4549 1.93162 15.0095 2.61586 15.0095Z" stroke="white" stroke-width="0.4" stroke-miterlimit="10" stroke-linecap="round" stroke-linejoin="round"/>
<path d="M0.900382 11.5903H6.62976C6.66502 11.5903 6.69994 11.5834 6.73252 11.5699C6.7651 11.5564 6.7947 11.5366 6.81963 11.5117C6.84456 11.4867 6.86434 11.4571 6.87783 11.4246C6.89132 11.392 6.89826 11.357 6.89826 11.3218V10.5959C6.89826 10.5607 6.89132 10.5257 6.87783 10.4932C6.86434 10.4606 6.84456 10.431 6.81963 10.406C6.7947 10.3811 6.7651 10.3613 6.73252 10.3478C6.69994 10.3343 6.66502 10.3274 6.62976 10.3274H0.900382C0.829163 10.3274 0.760864 10.3557 0.710505 10.4061C0.660146 10.4564 0.631848 10.5247 0.631836 10.5959V11.3218C0.631848 11.393 0.660146 11.4613 0.710505 11.5117C0.760864 11.562 0.829163 11.5903 0.900382 11.5903Z" stroke="white" stroke-width="0.4" stroke-miterlimit="10" stroke-linecap="round" stroke-linejoin="round"/>
<path d="M1.18001 9.79424C1.13361 9.96815 1.11019 10.1474 1.11035 10.3274H6.42066C6.42066 9.18983 5.49854 8.26776 4.36103 8.26776H4.35836" stroke="white" stroke-width="0.4" stroke-miterlimit="10" stroke-linecap="round" stroke-linejoin="round"/>
<path d="M3.17286 8.26779H3.17015C2.81974 8.26725 2.47504 8.35653 2.16895 8.5271" stroke="white" stroke-width="0.4" stroke-miterlimit="10" stroke-linecap="round" stroke-linejoin="round"/>
<path d="M3.40751 7.67845H4.1239C4.15471 7.67845 4.18522 7.68452 4.21369 7.69631C4.24216 7.7081 4.26803 7.72539 4.28982 7.74718C4.31161 7.76897 4.3289 7.79483 4.34069 7.8233C4.35248 7.85177 4.35855 7.88229 4.35855 7.9131V10.3274H3.17285V7.9131C3.17285 7.85087 3.19757 7.79118 3.24158 7.74718C3.28559 7.70317 3.34527 7.67845 3.40751 7.67845Z" stroke="white" stroke-width="0.4" stroke-miterlimit="10" stroke-linecap="round" stroke-linejoin="round"/>
<path d="M3.76562 11.5904V12.4233" stroke="white" stroke-width="0.4" stroke-miterlimit="10" stroke-linecap="round" stroke-linejoin="round"/>
<path d="M3.20898 13.4455C3.30667 13.6546 3.51906 13.7996 3.7652 13.7996C4.01134 13.7996 4.22373 13.6546 4.32142 13.4455" stroke="white" stroke-width="0.4" stroke-miterlimit="10" stroke-linecap="round" stroke-linejoin="round"/>
<path d="M2.78223 15.0094H4.7475V16.1777H2.78223V15.0094Z" stroke="white" stroke-width="0.4" stroke-miterlimit="10" stroke-linecap="round" stroke-linejoin="round"/>
<path d="M4.7475 16.1781L3.76486 18.1326L2.78223 16.1781H4.7475Z" stroke="white" stroke-width="0.4" stroke-miterlimit="10" stroke-linecap="round" stroke-linejoin="round"/>
<path d="M3.76562 18.1324V22.8289" stroke="white" stroke-width="0.4" stroke-miterlimit="10" stroke-linecap="round" stroke-linejoin="round"/>
<path d="M6.01705 19.5036H0.351562V21.0605H5.62681" stroke="white" stroke-width="0.4" stroke-miterlimit="10" stroke-linecap="round" stroke-linejoin="round"/>
</g>
</g>
<defs>
<clipPath id="clip0_647_4807">
<rect width="24" height="24" fill="white"/>
</clipPath>
</defs>
</svg>
